<svg id="Capa_1" data-name="Capa 1" xmlns="http://www.w3.org/2000/svg" viewBox="0 0 170 170"><defs><style>.cls-1{fill:#6a8666;}</style></defs><title>carrito</title><path class="cls-1" d="M143.78,47.47,65,47.3h0a4.3,4.3,0,0,0,0,8.6l73,.16L126.57,96.11H48.46l-4.74-58c0-4.23-3.28-10.52-12.33-10.52H20.68a4.3,4.3,0,0,0,0,8.6H31.39c2.38,0,3.64.69,3.75,2.27l6.47,79.38a4.3,4.3,0,0,0,4.29,4h1.49a16.82,16.82,0,0,0-2.45,8.66,17.19,17.19,0,0,0,34.38,0,16.82,16.82,0,0,0-2.44-8.66h24.93a16.82,16.82,0,0,0-2.45,8.66,17.19,17.19,0,0,0,34.38,0,16.91,16.91,0,0,0-2.44-8.66h2.51a4.3,4.3,0,1,0,0-8.6H49.86l-.7-8.51H129.5a6.65,6.65,0,0,0,1.47-.25,4.27,4.27,0,0,0,3-2.95L147.9,53a4.31,4.31,0,0,0-4.12-5.49ZM62.13,139a8.53,8.53,0,1,1,8.6-8.53A8.56,8.56,0,0,1,62.13,139Zm54.42,0a8.53,8.53,0,1,1,8.6-8.53A8.56,8.56,0,0,1,116.55,139Z"/></svg>