<svg id="Capa_1" data-name="Capa 1" xmlns="http://www.w3.org/2000/svg" viewBox="0 0 1520 763.49"><defs><style>.cls-1,.cls-3,.cls-4,.cls-5{fill:none;}.cls-1,.cls-2{stroke:#f3b244;}.cls-1,.cls-4,.cls-5{stroke-linecap:round;}.cls-1,.cls-2,.cls-3{stroke-miterlimit:10;}.cls-1{stroke-width:2.82px;stroke-dasharray:5.65 9.42;}.cls-2{fill:#f3b244;}.cls-3,.cls-4,.cls-5{stroke:#6a8666;stroke-width:5px;}.cls-4,.cls-5{stroke-linejoin:round;}.cls-4{stroke-dasharray:6.78 11.3 6.78 11.3;}</style></defs><title>error</title><path class="cls-1" d="M1046.48,78c54-40.52,114.42-54.61,155-30.94,28.07,16.39,55.69,56.2,46,76-3.56,7.29-13.45,14-21,12-8.29-2.21-12.83-14.71-13-23-.54-26.73,43.47-54.65,82-63,71.45-15.48,128.66,35.35,137,43,14.61,13.41,36.62,33.59,36,60-.57,24.53-20.11,31.59-25,58-5.86,31.68,16.53,49.5,28.34,79.94,35.55,91.62-68,194.59-36.34,223.06,7.58,6.81,22.2,8.74,29.09,3.35,9.65-7.55,4-29.41,1.91-37.35C1450.52,417.81,1350.6,334.37,1299,360.55,1256.75,382,1271.37,464,1239.51,471c-19.9,4.34-43.71-23.76-63.73-54.68"/><path class="cls-2" d="M1017.57,105.19c.13,0,3.2.23,4.95-1.26l3.5-3,15.25,5.09h.41l0,0h0l0,0h0l1.6-1.37h0l0,0,0,0h0l0,0h0l0,0v-.56l0,0,0,0h0l0,0,0,0h0l-10.27-8.9L1038.8,90l2.59,1.1h.45l2.58-1.29h0l0,0h0l0,0h0l0,0,0,0v0l0,0h0l.05-.09s0,0,0,0h0s0,0,0,0v-.12h0v0h0v0h0s0,0,0-.08v0h0l0-.05h0l0,0v0l0,0v0l0,0h0l0,0-4.17-3,.56-.48a.52.52,0,0,0,.06-.74.54.54,0,0,0-.36-.18.55.55,0,0,0-.39.12l-.55.48-2.28-4.57h0a.09.09,0,0,0,0-.05v0l0,0h0s0,0,0,0h0l0,0h0l0,0h0l0,0h-.39l0,0h0l0,0h0l0,0h0l0,0h0l0,0h0l-1.67,2.36v0l0,0v.39l.68,2.73L1019.1,99.93h0c-1.74,1.49-2,4.57-2,4.7A.53.53,0,0,0,1017.57,105.19Zm24.66-1-.91.78-14.36-4.8,5.34-4.58Zm-22.45-3.42h0l16.53-14.15h0l0,0h0l0,0,0,0v0l0,0h0v-.38h0l-.7-2.81,1-1.44,2,4-2.36,2a.52.52,0,0,0-.06.74.54.54,0,0,0,.75.06l2.35-2,3.67,2.61-1.59.79-2.67-1.13h0l-.07,0h-.26l-.06,0h0l-.06,0h0l0,0h0l-16.53,14.15a6,6,0,0,1-3.63,1A6.1,6.1,0,0,1,1019.78,100.73Z"/><path class="cls-2" d="M1019.91,81v.08h0l2.32,13.72a.53.53,0,0,0,1-.17L1021,81.2l.91-.78,6.07,9.71a.53.53,0,0,0,.73.17.54.54,0,0,0,.17-.73l-6.4-10.23h0s0,0,0,0h0l0,0,0,0,0,0h0l0,0h-.4l-.07,0h0l-.06,0h0l0,0,0,0h0l-1.6,1.37h0l0,0,0,0,0,0v0l0,0v0l0,0V81Z"/><path class="cls-1" d="M442.12,60.58c-20-9-59.52-22.87-98-7.75-19.44,7.64-47,26-44.25,38.5,1.28,5.83,9.5,11.45,14.5,9.75,4.4-1.49,6.71-8.81,6.25-13C318.68,70.61,262.68,54.77,210.26,57,131,60.37,87.4,103.91,64.59,83c-8.16-7.5-13.79-23.39-8.2-31.65,4.25-6.3,15.42-8.1,23.44-4.69C89.84,50.87,93,62.43,94,66.06c8.72,31.78-34.41,50.94-43.47,97.78-9.27,47.87,33.09,90.45,36.34,93.78a135.15,135.15,0,0,0,24.36,20c19.58,12.43,28.32,14.17,33.8,19.37,31.2,29.65-70.66,167-45,190.49,6.62,6.07,21.51,4.37,25.5-1.5,5.32-7.83-4.94-28.78-19.5-33-19.06-5.52-39.28,19.46-40.5,21-27,34.16-18.41,101,16.5,142.5C114.45,655,168.88,670.85,223,660"/><path class="cls-2" d="M476.21,77.37c0-.13-.94-3.08-3-4.17L469.18,71,468.43,55h0v-.2l0,0v-.06l0,0h0l0,0h0l0,0h0l0,0h0l-1.86-1h0l0,0h-.45l0,0h-.05l0,0h0l0,0v0l0,0,0,0v0l0,0v0h0v0l0,0v0h0L461,66.59,454.37,63l.09-2.81V60l0,0v0l0,0v0l0,0v0l0,0h0l0,0h0l-2.13-1.94h0l0,0h0l0,0h-.5l0,0h0l-.06,0h0l0,0h0l0,.05h0a.05.05,0,0,1,0,0v0l0,0v0s0,0,0,0l-1.26,5-.64-.34a.52.52,0,0,0-.75.61.48.48,0,0,0,.25.31l.64.35-3.44,3.78h0l0,0h0s0,0,0,0v0l0,0v0h0a.09.09,0,0,0,0,0v.16s0,0,0,0v0h0v0s0,0,0,0,0,0,0,0l0,0,0,0,0,0,0,0,0,0h0l0,0h0l.06,0h0l0,0h0l.06,0h0l2.8.71h.35l0,0h.07l2.3-1.62,18.87,10.16h0c2,1.09,5,.22,5.11.18A.51.51,0,0,0,476.21,77.37Zm-9.87-22.63,1.06.56.7,15.13-6.2-3.33Zm4.91,22.17h0L452.09,66.6h-.45l0,0h0l0,0h0l-2.37,1.67-1.72-.44,3-3.33L453.21,66a.53.53,0,0,0,.71-.21.54.54,0,0,0-.21-.72L451,63.61l1.11-4.37,1.31,1.2-.09,2.9h0v.09a.2.2,0,0,0,0,.07h0l0,.06v0l0,.06h0l0,.05h0l.05,0h0l.05,0h0l19.16,10.32a6.05,6.05,0,0,1,2.26,3A6,6,0,0,1,471.25,76.91Z"/><path class="cls-2" d="M452.79,83.91h0l0,0h0l12-7.12a.52.52,0,1,0-.54-.9l-11.7,7-1-.57,6.86-9.17a.51.51,0,0,0-.1-.73.53.53,0,0,0-.74.1l-7.23,9.66h0l0,0v0h0l0,0v0a.14.14,0,0,1,0,.06h0s0,0,0,0v.14s0,0,0,0h0s0,0,0,.06h0a.14.14,0,0,0,0,.06v0l0,.06h0l.05.06h0l.06,0h0l0,0h0l1.85,1h.44Z"/><path class="cls-3" d="M1010.76,321.05H560.82l-58-49.73h0V199h0l56.51-41.83h451.45Z"/><path class="cls-4" d="M998.92,311.3H570l-55.32-43.81h0V203.76h0l53.88-36.86H998.92Z"/><circle class="cls-3" cx="535.81" cy="238.59" r="10.03"/><path class="cls-5" d="M535,238.59a717.8,717.8,0,0,1-80.71-42.14c-13.6-8.28-35-22-41.51-17.91-1.85,1.17-2.57,3.91-1.54,6.55,2.48,6.33,14.77,11.27,20.8,13.65C478.5,217,535,238.59,535,238.59Z"/><circle class="cls-3" cx="535.81" cy="238.59" r="3.38"/><path class="cls-1" d="M358.79,633.56c.72-2.26,6.81-20.42,24.6-26.38,20.3-6.82,39,10.13,41.76,12.73,25.15,23.41,5.79,53.3,24,72.86,32.06,34.5,133.45-14.27,142.62,6.15,1.64,3.65.52,10-2.23,14.14-3.79,5.73-12.45,10.07-19.64,7.08a15.16,15.16,0,0,1-8.59-10.54c-2.72-12,10.52-24.18,14.5-27.84,30.16-27.81,113,33.6,210.49,21.52,78.85-9.78,120.48-61.9,164.37-36,16.55,9.77,29.76,28.46,52.17,26.32,16.63-1.6,34.3-14.28,33-23-1-6.89-14-13.15-20.08-9.51-8.81,5.31-7.34,34.55,8,45.22,6.71,4.66,13.89,4.26,25.23,3.63,9.27-.52,29.86-1.68,49.22-15.72,19.18-13.91,18.62-27.05,31.47-28.77,12.65-1.68,17.56,10.48,32.12,12.32,9.92,1.25,24.76-2.22,45.2-25"/><path class="cls-2" d="M1229.78,625.9c-.13,0-3.2.28-4.69,2l-3,3.52-15.86-2.62h-.31l0,0h0l0,0h0l0,0h0l0,0v0h0l-1.37,1.6h0l0,0,0,0h0v.54l0,0v0l0,0,0,0v0l0,0h0l0,0,0,0h0l11.54,7.16-4.84,5.71-2.73-.67h-.35l0,0h0l0,0h0l-2.34,1.68h0l0,0h0l0,0v0l0,0,0,0v0l0,0h0l0,.1s0,0,0,.05h0a.06.06,0,0,1,0,0h0v0h0v.06h0v0h0s0,0,0,0h0l0,.07v0h0l0,0h0l0,0h0l0,0h0l0,0h0l0,0,4.58,2.26-.47.56a.52.52,0,0,0,.06.74.51.51,0,0,0,.38.13.56.56,0,0,0,.36-.19l.47-.55,3,4.15h0l0,0h0l0,0h0l0,0h0l0,0h0l.05,0h.39l0,0h0l0,0h0l0,0h0l0,0h0l0,0v0l0-.05h0l1.27-2.59h0v-.43l-1.11-2.58,13.87-16.34h0c1.49-1.75,1.26-4.82,1.25-5A.53.53,0,0,0,1229.78,625.9Zm-24.19,4.93.78-.91,14.94,2.46-4.56,5.37Zm22.71-.18h0l-14.08,16.59h0v0l0,0v.05h0l0,0v.4h0l1.13,2.66-.78,1.6-2.62-3.66,2-2.36a.53.53,0,1,0-.8-.69l-2,2.37-4-2,1.44-1,2.81.69h.26l.07,0h0l.06,0h0l0,0h0l0,0h0l14.08-16.59a6.06,6.06,0,0,1,3.42-1.59A6,6,0,0,1,1228.3,630.65Z"/><path class="cls-2" d="M1231.29,650.17v-.08h0l-4.46-13.18a.52.52,0,0,0-.67-.33.53.53,0,0,0-.33.66l4.37,12.9-.77.91-7.54-8.62a.52.52,0,0,0-.74,0,.51.51,0,0,0-.05.74l7.93,9.09h0l0,0,0,0h0l0,0h0s0,0,.05,0h0l0,0h.25l.07,0h0l.07,0h0l.06,0h0l.06,0h0l0,0v0h0l1.37-1.6h0l0,0v0l0,0v-.34Z"/></svg>