<?xml version="1.0" encoding="utf-8"?>
<!-- Generator: Adobe Illustrator 22.1.0, SVG Export Plug-In . SVG Version: 6.00 Build 0)  -->
<svg version="1.1" id="Capa_1" xmlns="http://www.w3.org/2000/svg" xmlns:xlink="http://www.w3.org/1999/xlink" x="0px" y="0px"
	 viewBox="0 0 1520 763.5" style="enable-background:new 0 0 1520 763.5;" xml:space="preserve">
<style type="text/css">
	.st0{fill:none;stroke:#76C0B4;stroke-width:2;stroke-miterlimit:10;}
	
		.st1{fill:none;stroke:#76C0B4;stroke-width:2;stroke-linecap:round;stroke-linejoin:round;stroke-miterlimit:10;stroke-dasharray:6.7812,11.302,6.7812,11.302;}
	.st2{fill:none;stroke:#76C0B4;stroke-width:2;stroke-linecap:round;stroke-linejoin:round;stroke-miterlimit:10;}
	.st3{opacity:0.28;}
	.st4{fill:none;stroke:#A2A6DE;stroke-width:1.5;stroke-linecap:round;stroke-miterlimit:10;stroke-dasharray:5.6494,9.4157;}
	.st5{fill:#A2A6DE;}
</style>
<title>error</title>
<g>
	<path class="st0" d="M1010.8,321c-188.1,0-449.9,0-449.9,0l0,0c0,0-20.4-17.5-58-49.7l0,0c0,0,0-72.3,0-72.3l0,0
		c38.4-28.4,56.5-41.8,56.5-41.8l0,0c0,0,274.2,0,451.4,0C1010.8,211.8,1010.8,266.4,1010.8,321z"/>
	<path class="st1" d="M998.9,311.3c-179.4,0-429,0-429,0l0,0c0,0-19.5-15.4-55.3-43.8l0,0c0,0,0-63.7,0-63.7l0,0
		c36.6-25.1,53.9-36.9,53.9-36.9l0,0c0,0,261.4,0,430.4,0C998.9,215,998.9,263.2,998.9,311.3z"/>
	<circle class="st0" cx="535.8" cy="238.6" r="10"/>
	<path class="st2" d="M535,238.6c-35.1-15.7-61.9-30.7-80.7-42.1c-13.6-8.3-35.1-22-41.5-17.9c-1.9,1.2-2.6,3.9-1.5,6.6
		c2.5,6.3,14.8,11.3,20.8,13.6C478.5,217,535,238.6,535,238.6z"/>
	<circle class="st0" cx="535.8" cy="238.6" r="3.4"/>
</g>
<g class="st3">
	<path class="st4" d="M1046.5,78c54-40.5,114.4-54.6,154.9-30.9c28.1,16.4,55.7,56.2,46,76c-3.6,7.3-13.5,14-21,12
		c-8.3-2.2-12.8-14.7-13-23c-0.5-26.7,43.5-54.7,82-63c71.5-15.5,128.7,35.4,137,43c14.6,13.4,36.6,33.6,36,60
		c-0.6,24.5-20.1,31.6-25,58c-5.9,31.7,16.5,49.5,28.3,79.9c35.5,91.6-68,194.6-36.3,223.1c7.6,6.8,22.2,8.7,29.1,3.3
		c9.7-7.6,4-29.4,1.9-37.3c-15.9-61.3-115.8-144.7-167.5-118.5c-42.2,21.4-27.6,103.5-59.4,110.4c-19.9,4.3-43.7-23.8-63.7-54.7"/>
	<g>
		<g>
			<g>
				<path class="st5" d="M1017.6,105.2c0.1,0,3.2,0.2,5-1.3l3.5-3l15.2,5.1c0,0,0,0,0,0c0,0,0,0,0,0c0,0,0,0,0,0c0,0,0,0,0,0
					c0,0,0,0,0,0c0,0,0,0,0,0c0,0,0,0,0,0c0,0,0,0,0,0c0,0,0,0,0,0c0,0,0,0,0,0c0,0,0,0,0,0c0,0,0,0,0,0c0,0,0,0,0,0c0,0,0,0,0,0
					c0,0,0,0,0,0c0,0,0,0,0,0c0,0,0,0,0,0c0,0,0,0,0,0c0,0,0,0,0,0c0,0,0,0,0,0c0,0,0,0,0,0c0,0,0,0,0,0l1.6-1.4c0,0,0,0,0,0
					c0,0,0,0,0,0c0,0,0,0,0,0c0,0,0,0,0,0c0,0,0,0,0,0c0,0,0,0,0,0c0,0,0,0,0,0c0,0,0,0,0,0c0,0,0,0,0,0c0,0,0,0,0,0c0,0,0,0,0,0
					c0,0,0,0,0,0c0,0,0,0,0,0c0,0,0,0,0,0c0,0,0,0,0,0c0,0,0,0,0,0c0,0,0,0,0,0c0,0,0,0,0,0c0,0,0,0,0,0c0,0,0,0,0,0c0,0,0,0,0,0
					c0,0,0,0,0,0c0,0,0,0,0,0c0,0,0,0,0,0c0,0,0,0,0,0c0,0,0,0,0,0c0,0,0,0,0,0c0,0,0,0,0,0c0,0,0,0,0,0c0,0,0,0,0,0c0,0,0,0,0,0
					c0,0,0,0,0,0c0,0,0,0,0,0c0,0,0,0,0,0c0,0,0,0,0,0c0,0,0,0,0,0c0,0,0,0,0,0c0,0,0,0,0,0l-10.3-8.9l5.7-4.9l2.6,1.1c0,0,0,0,0,0
					c0,0,0,0,0,0c0,0,0,0,0,0c0,0,0,0,0,0c0,0,0,0,0,0c0,0,0,0,0,0c0,0,0,0,0,0c0,0,0,0,0,0c0,0,0,0,0,0c0,0,0,0,0,0c0,0,0,0,0,0
					c0,0,0,0,0,0c0,0,0,0,0,0c0,0,0,0,0,0c0,0,0,0,0,0c0,0,0,0,0,0c0,0,0,0,0,0c0,0,0,0,0,0l0,0c0,0,0,0,0,0l2.6-1.3c0,0,0,0,0,0
					l0,0c0,0,0,0,0,0c0,0,0,0,0,0c0,0,0,0,0,0c0,0,0,0,0,0c0,0,0,0,0,0c0,0,0,0,0,0c0,0,0,0,0,0c0,0,0,0,0,0c0,0,0,0,0,0
					c0,0,0,0,0,0c0,0,0,0,0,0c0,0,0-0.1,0.1-0.1c0,0,0,0,0,0c0,0,0,0,0,0c0,0,0,0,0,0c0,0,0,0,0,0c0,0,0,0,0,0c0,0,0,0,0,0
					c0,0,0,0,0,0c0,0,0,0,0,0c0,0,0,0,0,0c0,0,0,0,0,0c0,0,0,0,0,0c0,0,0,0,0,0c0,0,0,0,0,0c0,0,0,0,0-0.1c0,0,0,0,0,0c0,0,0,0,0,0
					c0,0,0,0,0,0c0,0,0,0,0,0c0,0,0,0,0,0c0,0,0,0,0-0.1c0,0,0,0,0,0c0,0,0,0,0,0c0,0,0,0,0,0c0,0,0,0,0,0c0,0,0,0,0,0c0,0,0,0,0,0
					l-4.2-3l0.6-0.5c0.2-0.2,0.2-0.5,0.1-0.7c-0.1-0.1-0.2-0.2-0.4-0.2s-0.3,0-0.4,0.1l-0.6,0.5l-2.3-4.6c0,0,0,0,0,0l0,0
					c0,0,0,0,0,0c0,0,0,0,0-0.1c0,0,0,0,0,0c0,0,0,0,0,0c0,0,0,0,0,0c0,0,0,0,0,0c0,0,0,0,0,0c0,0,0,0,0,0c0,0,0,0,0,0c0,0,0,0,0,0
					c0,0,0,0,0,0c0,0,0,0,0,0c0,0,0,0,0,0c0,0,0,0,0,0c0,0,0,0,0,0c0,0,0,0,0,0c0,0,0,0,0,0c0,0,0,0,0,0c0,0,0,0,0,0c0,0,0,0,0,0
					c0,0,0,0,0,0c0,0,0,0,0,0c0,0,0,0,0,0c0,0,0,0,0,0c0,0,0,0,0,0c0,0,0,0,0,0c0,0,0,0,0,0c0,0,0,0,0,0c0,0,0,0,0,0c0,0,0,0,0,0
					c0,0,0,0,0,0c0,0,0,0,0,0c0,0,0,0,0,0c0,0,0,0,0,0c0,0,0,0,0,0c0,0,0,0,0,0l0,0c0,0,0,0,0,0l-1.7,2.4c0,0,0,0,0,0c0,0,0,0,0,0
					c0,0,0,0,0,0c0,0,0,0,0,0c0,0,0,0,0,0c0,0,0,0,0,0c0,0,0,0,0,0c0,0,0,0,0,0c0,0,0,0,0,0c0,0,0,0,0,0c0,0,0,0,0,0c0,0,0,0,0,0
					c0,0,0,0,0,0c0,0,0,0,0,0c0,0,0,0,0,0c0,0,0,0,0,0c0,0,0,0,0,0c0,0,0,0,0,0l0.7,2.7l-16.3,13.9c0,0,0,0,0,0
					c-1.7,1.5-2,4.6-2,4.7C1017.1,104.9,1017.3,105.2,1017.6,105.2z M1042.2,104.2l-0.9,0.8l-14.4-4.8l5.3-4.6L1042.2,104.2z
					 M1019.8,100.7C1019.8,100.7,1019.8,100.7,1019.8,100.7l16.5-14.2c0,0,0,0,0,0c0,0,0,0,0,0c0,0,0,0,0,0c0,0,0,0,0,0c0,0,0,0,0,0
					c0,0,0,0,0,0c0,0,0,0,0,0c0,0,0,0,0,0c0,0,0,0,0,0c0,0,0,0,0,0c0,0,0,0,0,0c0,0,0,0,0,0c0,0,0,0,0,0c0,0,0,0,0,0c0,0,0,0,0,0
					c0,0,0,0,0,0c0,0,0,0,0,0c0,0,0,0,0,0c0,0,0,0,0,0c0,0,0,0,0,0c0,0,0,0,0,0c0,0,0,0,0,0c0,0,0,0,0,0c0,0,0,0,0,0l-0.7-2.8l1-1.4
					l2,4l-2.4,2c-0.2,0.2-0.2,0.5-0.1,0.7c0.2,0.2,0.5,0.2,0.7,0.1l2.4-2l3.7,2.6l-1.6,0.8l-2.7-1.1c0,0,0,0,0,0c0,0,0,0-0.1,0
					c0,0,0,0,0,0c0,0,0,0-0.1,0c0,0,0,0,0,0c0,0,0,0,0,0c0,0,0,0-0.1,0c0,0,0,0,0,0c0,0,0,0-0.1,0c0,0,0,0,0,0c0,0,0,0-0.1,0
					c0,0,0,0,0,0c0,0,0,0-0.1,0c0,0,0,0,0,0c0,0,0,0,0,0c0,0,0,0,0,0c0,0,0,0,0,0l-16.5,14.2c-1,0.9-2.7,1-3.6,1
					C1018.3,103.3,1018.8,101.6,1019.8,100.7z"/>
			</g>
		</g>
		<g>
			<g>
				<path class="st5" d="M1019.9,81C1019.9,81,1019.9,81,1019.9,81C1019.9,81,1019.9,81,1019.9,81C1019.9,81,1019.9,81.1,1019.9,81
					C1019.9,81.1,1019.9,81.1,1019.9,81l2.3,13.8c0,0.3,0.3,0.5,0.6,0.4c0.3,0,0.5-0.3,0.4-0.6l-2.3-13.4l0.9-0.8l6.1,9.7
					c0.2,0.2,0.5,0.3,0.7,0.2c0.2-0.2,0.3-0.5,0.2-0.7l-6.4-10.2c0,0,0,0,0,0c0,0,0,0,0,0c0,0,0,0,0,0c0,0,0,0,0,0c0,0,0,0,0,0
					c0,0,0,0,0,0c0,0,0,0,0,0c0,0,0,0,0,0c0,0,0,0,0,0c0,0,0,0,0,0c0,0,0,0,0,0c0,0,0,0,0,0c0,0,0,0,0,0c0,0,0,0,0,0c0,0,0,0,0,0
					c0,0,0,0,0,0c0,0,0,0-0.1,0c0,0,0,0,0,0c0,0,0,0,0,0c0,0,0,0-0.1,0c0,0,0,0,0,0c0,0,0,0-0.1,0c0,0,0,0,0,0c0,0,0,0-0.1,0
					c0,0,0,0,0,0c0,0,0,0-0.1,0c0,0,0,0,0,0c0,0,0,0,0,0c0,0,0,0,0,0c0,0,0,0,0,0c0,0,0,0,0,0l-1.6,1.4c0,0,0,0,0,0c0,0,0,0,0,0
					c0,0,0,0,0,0c0,0,0,0,0,0c0,0,0,0,0,0c0,0,0,0,0,0c0,0,0,0,0,0c0,0,0,0,0,0c0,0,0,0,0,0c0,0,0,0,0,0c0,0,0,0,0,0c0,0,0,0,0,0
					c0,0,0,0,0,0c0,0,0,0,0,0C1019.9,80.9,1019.9,80.9,1019.9,81C1019.9,80.9,1019.9,80.9,1019.9,81
					C1019.9,80.9,1019.9,81,1019.9,81C1019.9,81,1019.9,81,1019.9,81z"/>
			</g>
		</g>
	</g>
	<path class="st4" d="M442.1,60.6c-20-9-59.5-22.9-98-7.8c-19.4,7.6-47,26-44.3,38.5c1.3,5.8,9.5,11.4,14.5,9.8
		c4.4-1.5,6.7-8.8,6.3-13c-1.9-17.5-57.9-33.3-110.4-31.1C131,60.4,87.4,103.9,64.6,83c-8.2-7.5-13.8-23.4-8.2-31.7
		c4.3-6.3,15.4-8.1,23.4-4.7C89.8,50.9,93,62.4,94,66.1c8.7,31.8-34.4,50.9-43.5,97.8c-9.3,47.9,33.1,90.5,36.3,93.8
		c8.9,9.1,17.1,15.4,24.4,20c19.6,12.4,28.3,14.2,33.8,19.4c31.2,29.6-70.7,167-45,190.5c6.6,6.1,21.5,4.4,25.5-1.5
		c5.3-7.8-4.9-28.8-19.5-33c-19.1-5.5-39.3,19.5-40.5,21c-27,34.2-18.4,101,16.5,142.5c32.4,38.5,86.8,54.4,141,43.5"/>
	<g>
		<g>
			<g>
				<path class="st5" d="M476.2,77.4c0-0.1-0.9-3.1-3-4.2l-4.1-2.2L468.4,55c0,0,0,0,0,0c0,0,0,0,0,0c0,0,0,0,0,0c0,0,0,0,0,0
					c0,0,0,0,0,0c0,0,0,0,0,0c0,0,0,0,0,0c0,0,0,0,0,0c0,0,0,0,0,0c0,0,0,0,0,0c0,0,0,0,0,0c0,0,0,0,0,0c0,0,0,0,0,0c0,0,0,0,0,0
					c0,0,0,0,0,0c0,0,0,0,0,0c0,0,0,0,0,0c0,0,0,0,0,0c0,0,0,0,0,0c0,0,0,0,0,0c0,0,0,0,0,0c0,0,0,0,0,0l-1.9-1c0,0,0,0,0,0
					c0,0,0,0,0,0c0,0,0,0,0,0c0,0,0,0,0,0c0,0,0,0,0,0c0,0,0,0,0,0c0,0,0,0,0,0c0,0,0,0,0,0c0,0,0,0,0,0c0,0,0,0,0,0c0,0,0,0,0,0
					c0,0,0,0,0,0c0,0,0,0,0,0c0,0,0,0,0,0c0,0,0,0,0,0c0,0,0,0,0,0c0,0,0,0,0,0c0,0,0,0,0,0c0,0,0,0,0,0c0,0,0,0,0,0c0,0,0,0,0,0
					c0,0,0,0,0,0c0,0,0,0,0,0c0,0,0,0,0,0c0,0,0,0,0,0c0,0,0,0,0,0c0,0,0,0,0,0c0,0,0,0,0,0c0,0,0,0,0,0c0,0,0,0,0,0c0,0,0,0,0,0
					c0,0,0,0,0,0c0,0,0,0,0,0c0,0,0,0,0,0c0,0,0,0,0,0c0,0,0,0,0,0c0,0,0,0,0,0c0,0,0,0,0,0L461,66.6l-6.6-3.5l0.1-2.8c0,0,0,0,0,0
					c0,0,0,0,0,0c0,0,0,0,0,0c0,0,0,0,0,0c0,0,0,0,0,0c0,0,0,0,0,0c0,0,0,0,0,0c0,0,0,0,0,0c0,0,0,0,0,0c0,0,0,0,0,0c0,0,0,0,0,0
					c0,0,0,0,0,0c0,0,0,0,0,0c0,0,0,0,0,0c0,0,0,0,0,0c0,0,0,0,0,0c0,0,0,0,0,0c0,0,0,0,0,0l0,0c0,0,0,0,0,0l-2.1-1.9c0,0,0,0,0,0
					l0,0c0,0,0,0,0,0c0,0,0,0,0,0c0,0,0,0,0,0c0,0,0,0,0,0c0,0,0,0,0,0c0,0,0,0,0,0c0,0,0,0,0,0c0,0,0,0,0,0c0,0,0,0,0,0
					c0,0,0,0,0,0c0,0,0,0,0,0c0,0-0.1,0-0.1,0c0,0,0,0,0,0c0,0,0,0,0,0c0,0,0,0,0,0c0,0,0,0,0,0c0,0,0,0,0,0c0,0,0,0,0,0
					c0,0,0,0,0,0c0,0,0,0,0,0c0,0,0,0,0,0c0,0,0,0,0,0c0,0,0,0,0,0c0,0,0,0,0,0c0,0,0,0,0,0c0,0,0,0-0.1,0c0,0,0,0,0,0c0,0,0,0,0,0
					c0,0,0,0,0,0c0,0,0,0,0,0c0,0,0,0,0,0c0,0,0,0,0,0c0,0,0,0,0,0c0,0,0,0,0,0c0,0,0,0,0,0c0,0,0,0,0,0.1c0,0,0,0,0,0c0,0,0,0,0,0
					l-1.3,5l-0.6-0.3c-0.3-0.1-0.6,0-0.7,0.2c-0.1,0.1-0.1,0.3,0,0.4c0,0.1,0.1,0.2,0.3,0.3l0.6,0.3l-3.4,3.8c0,0,0,0,0,0l0,0
					c0,0,0,0,0,0c0,0,0,0,0,0c0,0,0,0,0,0c0,0,0,0,0,0c0,0,0,0,0,0c0,0,0,0,0,0.1c0,0,0,0,0,0c0,0,0,0,0,0c0,0,0,0,0,0c0,0,0,0,0,0
					c0,0,0,0,0,0c0,0,0,0,0,0c0,0,0,0,0,0c0,0,0,0,0,0c0,0,0,0,0,0c0,0,0,0,0,0c0,0,0,0,0,0c0,0,0,0,0,0s0,0,0,0c0,0,0,0,0,0
					c0,0,0,0,0,0c0,0,0,0,0,0c0,0,0,0,0,0c0,0,0,0,0,0c0,0,0,0,0,0c0,0,0,0,0,0c0,0,0,0,0,0c0,0,0,0,0,0c0,0,0,0,0,0c0,0,0,0,0,0
					c0,0,0,0,0.1,0c0,0,0,0,0,0c0,0,0,0,0,0c0,0,0,0,0,0c0,0,0,0,0.1,0c0,0,0,0,0,0l0,0c0,0,0,0,0,0l2.8,0.7c0,0,0,0,0,0
					c0,0,0,0,0,0c0,0,0,0,0,0c0,0,0,0,0,0c0,0,0,0,0,0c0,0,0,0,0,0c0,0,0,0,0,0c0,0,0,0,0,0c0,0,0,0,0,0c0,0,0,0,0,0c0,0,0,0,0,0
					c0,0,0,0,0,0c0,0,0,0,0,0c0,0,0,0,0,0c0,0,0,0,0,0c0,0,0,0,0,0c0,0,0,0,0,0c0,0,0,0,0,0l2.3-1.6l18.9,10.2c0,0,0,0,0,0
					c2,1.1,5,0.2,5.1,0.2C476.1,77.9,476.3,77.6,476.2,77.4z M466.3,54.7l1.1,0.6l0.7,15.1l-6.2-3.3L466.3,54.7z M471.3,76.9
					C471.3,76.9,471.3,76.9,471.3,76.9l-19.2-10.3c0,0,0,0,0,0c0,0,0,0,0,0c0,0,0,0,0,0c0,0,0,0,0,0c0,0,0,0,0,0c0,0,0,0,0,0
					c0,0,0,0,0,0c0,0,0,0,0,0c0,0,0,0,0,0c0,0,0,0,0,0c0,0,0,0,0,0c0,0,0,0,0,0c0,0,0,0,0,0c0,0,0,0,0,0c0,0,0,0,0,0c0,0,0,0,0,0
					c0,0,0,0,0,0c0,0,0,0,0,0c0,0,0,0,0,0c0,0,0,0,0,0c0,0,0,0,0,0c0,0,0,0,0,0c0,0,0,0,0,0c0,0,0,0,0,0l-2.4,1.7l-1.7-0.4l3-3.3
					l2.7,1.5c0.3,0.1,0.6,0,0.7-0.2c0.1-0.3,0-0.6-0.2-0.7l-2.7-1.5l1.1-4.4l1.3,1.2l-0.1,2.9c0,0,0,0,0,0c0,0,0,0,0,0.1
					c0,0,0,0,0,0c0,0,0,0,0,0.1c0,0,0,0,0,0c0,0,0,0,0,0c0,0,0,0,0,0.1c0,0,0,0,0,0c0,0,0,0,0,0.1c0,0,0,0,0,0c0,0,0,0,0,0
					c0,0,0,0,0,0c0,0,0,0,0.1,0c0,0,0,0,0,0c0,0,0,0,0,0c0,0,0,0,0,0c0,0,0,0,0,0l19.2,10.3c1.2,0.6,1.9,2.2,2.3,3
					C474.1,77.3,472.4,77.6,471.3,76.9z"/>
			</g>
		</g>
		<g>
			<g>
				<path class="st5" d="M452.8,83.9C452.8,83.9,452.8,83.9,452.8,83.9C452.8,83.9,452.8,83.9,452.8,83.9
					C452.8,83.9,452.9,83.9,452.8,83.9C452.9,83.9,452.9,83.9,452.8,83.9l12-7.2c0.2-0.1,0.3-0.5,0.2-0.7c-0.1-0.2-0.5-0.3-0.7-0.2
					l-11.7,7l-1.1-0.6l6.9-9.2c0.2-0.2,0.1-0.6-0.1-0.7c-0.2-0.2-0.6-0.1-0.7,0.1l-7.2,9.7c0,0,0,0,0,0c0,0,0,0,0,0c0,0,0,0,0,0
					c0,0,0,0,0,0c0,0,0,0,0,0c0,0,0,0,0,0c0,0,0,0,0,0.1c0,0,0,0,0,0c0,0,0,0,0,0c0,0,0,0,0,0c0,0,0,0,0,0c0,0,0,0,0,0c0,0,0,0,0,0
					c0,0,0,0,0,0c0,0,0,0,0,0c0,0,0,0,0,0c0,0,0,0,0,0.1c0,0,0,0,0,0c0,0,0,0,0,0c0,0,0,0,0,0.1c0,0,0,0,0,0c0,0,0,0,0,0.1
					c0,0,0,0,0,0c0,0,0,0,0,0.1c0,0,0,0,0,0c0,0,0,0,0.1,0.1c0,0,0,0,0,0c0,0,0,0,0,0c0,0,0,0,0,0c0,0,0,0,0,0c0,0,0,0,0,0l1.9,1
					c0,0,0,0,0,0c0,0,0,0,0,0c0,0,0,0,0,0c0,0,0,0,0,0c0,0,0,0,0,0c0,0,0,0,0,0c0,0,0,0,0,0c0,0,0,0,0,0c0,0,0,0,0,0c0,0,0,0,0,0
					c0,0,0,0,0,0c0,0,0,0,0,0c0,0,0,0,0,0C452.7,83.9,452.7,83.9,452.8,83.9C452.7,83.9,452.7,83.9,452.8,83.9
					C452.7,83.9,452.7,83.9,452.8,83.9C452.7,83.9,452.8,83.9,452.8,83.9C452.8,83.9,452.8,83.9,452.8,83.9z"/>
			</g>
		</g>
	</g>
	<path class="st4" d="M358.8,633.6c0.7-2.3,6.8-20.4,24.6-26.4c20.3-6.8,39,10.1,41.8,12.7c25.2,23.4,5.8,53.3,24,72.9
		c32.1,34.5,133.4-14.3,142.6,6.2c1.6,3.7,0.5,10-2.2,14.1c-3.8,5.7-12.4,10.1-19.6,7.1c-4.4-1.8-7.6-6.1-8.6-10.5
		c-2.7-12,10.5-24.2,14.5-27.8c30.2-27.8,113.1,33.6,210.5,21.5c78.8-9.8,120.5-61.9,164.4-36c16.6,9.8,29.8,28.5,52.2,26.3
		c16.6-1.6,34.3-14.3,33-23c-1-6.9-14-13.1-20.1-9.5c-8.8,5.3-7.3,34.6,8,45.2c6.7,4.7,13.9,4.3,25.2,3.6
		c9.3-0.5,29.9-1.7,49.2-15.7c19.2-13.9,18.6-27.1,31.5-28.8c12.7-1.7,17.6,10.5,32.1,12.3c9.9,1.3,24.8-2.2,45.2-25"/>
	<g>
		<g>
			<g>
				<path class="st5" d="M1229.8,625.9c-0.1,0-3.2,0.3-4.7,2l-3,3.5l-15.9-2.6c0,0,0,0,0,0c0,0,0,0,0,0c0,0,0,0,0,0c0,0,0,0,0,0
					c0,0,0,0,0,0c0,0,0,0,0,0c0,0,0,0,0,0c0,0,0,0,0,0c0,0,0,0,0,0c0,0,0,0,0,0c0,0,0,0,0,0c0,0,0,0,0,0c0,0,0,0,0,0c0,0,0,0,0,0
					c0,0,0,0,0,0c0,0,0,0,0,0c0,0,0,0,0,0c0,0,0,0,0,0c0,0,0,0,0,0c0,0,0,0,0,0c0,0,0,0,0,0c0,0,0,0,0,0l-1.4,1.6c0,0,0,0,0,0
					c0,0,0,0,0,0c0,0,0,0,0,0c0,0,0,0,0,0c0,0,0,0,0,0c0,0,0,0,0,0c0,0,0,0,0,0c0,0,0,0,0,0c0,0,0,0,0,0c0,0,0,0,0,0c0,0,0,0,0,0
					c0,0,0,0,0,0c0,0,0,0,0,0c0,0,0,0,0,0c0,0,0,0,0,0c0,0,0,0,0,0c0,0,0,0,0,0c0,0,0,0,0,0c0,0,0,0,0,0c0,0,0,0,0,0c0,0,0,0,0,0
					c0,0,0,0,0,0c0,0,0,0,0,0c0,0,0,0,0,0c0,0,0,0,0,0c0,0,0,0,0,0c0,0,0,0,0,0c0,0,0,0,0,0c0,0,0,0,0,0c0,0,0,0,0,0c0,0,0,0,0,0
					c0,0,0,0,0,0c0,0,0,0,0,0c0,0,0,0,0,0c0,0,0,0,0,0c0,0,0,0,0,0c0,0,0,0,0,0c0,0,0,0,0,0l11.5,7.2l-4.8,5.7l-2.7-0.7c0,0,0,0,0,0
					c0,0,0,0,0,0c0,0,0,0,0,0c0,0,0,0,0,0c0,0,0,0,0,0c0,0,0,0,0,0c0,0,0,0,0,0c0,0,0,0,0,0c0,0,0,0,0,0c0,0,0,0,0,0c0,0,0,0,0,0
					c0,0,0,0,0,0c0,0,0,0,0,0c0,0,0,0,0,0c0,0,0,0,0,0c0,0,0,0,0,0c0,0,0,0,0,0c0,0,0,0,0,0l0,0c0,0,0,0,0,0l-2.3,1.7c0,0,0,0,0,0
					l0,0c0,0,0,0,0,0c0,0,0,0,0,0c0,0,0,0,0,0c0,0,0,0,0,0c0,0,0,0,0,0c0,0,0,0,0,0c0,0,0,0,0,0c0,0,0,0,0,0c0,0,0,0,0,0
					c0,0,0,0,0,0c0,0,0,0,0,0c0,0,0,0.1,0,0.1c0,0,0,0,0,0c0,0,0,0,0,0c0,0,0,0,0,0c0,0,0,0,0,0c0,0,0,0,0,0c0,0,0,0,0,0
					c0,0,0,0,0,0c0,0,0,0,0,0c0,0,0,0,0,0c0,0,0,0,0,0c0,0,0,0,0,0c0,0,0,0,0,0c0,0,0,0,0,0c0,0,0,0,0,0.1c0,0,0,0,0,0c0,0,0,0,0,0
					c0,0,0,0,0,0c0,0,0,0,0,0c0,0,0,0,0,0c0,0,0,0,0,0c0,0,0,0,0,0c0,0,0,0,0,0c0,0,0,0,0,0c0,0,0,0,0,0c0,0,0,0,0,0c0,0,0,0,0,0
					l4.6,2.3l-0.5,0.6c-0.2,0.2-0.2,0.6,0.1,0.7c0.1,0.1,0.2,0.1,0.4,0.1s0.3-0.1,0.4-0.2l0.5-0.6l3,4.2c0,0,0,0,0,0l0,0
					c0,0,0,0,0,0c0,0,0,0,0,0c0,0,0,0,0,0c0,0,0,0,0,0c0,0,0,0,0,0c0,0,0,0,0,0c0,0,0,0,0,0c0,0,0,0,0,0c0,0,0,0,0,0c0,0,0,0,0,0
					c0,0,0,0,0,0c0,0,0,0,0,0c0,0,0,0,0,0c0,0,0,0,0,0c0,0,0,0,0,0c0,0,0,0,0,0c0,0,0,0,0,0c0,0,0,0,0,0s0,0,0,0c0,0,0,0,0,0
					c0,0,0,0,0,0c0,0,0,0,0,0c0,0,0,0,0,0c0,0,0,0,0,0c0,0,0,0,0,0c0,0,0,0,0,0c0,0,0,0,0,0c0,0,0,0,0,0c0,0,0,0,0,0c0,0,0,0,0,0
					c0,0,0,0,0,0c0,0,0,0,0,0c0,0,0,0,0,0c0,0,0,0,0,0c0,0,0,0,0-0.1c0,0,0,0,0,0l0,0c0,0,0,0,0,0l1.3-2.6c0,0,0,0,0,0c0,0,0,0,0,0
					c0,0,0,0,0,0c0,0,0,0,0,0c0,0,0,0,0,0c0,0,0,0,0,0c0,0,0,0,0,0c0,0,0,0,0,0c0,0,0,0,0,0c0,0,0,0,0,0c0,0,0,0,0,0c0,0,0,0,0,0
					c0,0,0,0,0,0c0,0,0,0,0,0c0,0,0,0,0,0c0,0,0,0,0,0c0,0,0,0,0,0c0,0,0,0,0,0l-1.1-2.6l13.9-16.3c0,0,0,0,0,0
					c1.5-1.8,1.3-4.8,1.2-5C1230.3,626.1,1230.1,625.9,1229.8,625.9z M1205.6,630.8l0.8-0.9l14.9,2.5l-4.6,5.4L1205.6,630.8z
					 M1228.3,630.7C1228.3,630.7,1228.3,630.7,1228.3,630.7l-14.1,16.6c0,0,0,0,0,0c0,0,0,0,0,0c0,0,0,0,0,0c0,0,0,0,0,0
					c0,0,0,0,0,0c0,0,0,0,0,0c0,0,0,0,0,0c0,0,0,0,0,0c0,0,0,0,0,0c0,0,0,0,0,0c0,0,0,0,0,0c0,0,0,0,0,0c0,0,0,0,0,0c0,0,0,0,0,0
					c0,0,0,0,0,0c0,0,0,0,0,0c0,0,0,0,0,0c0,0,0,0,0,0c0,0,0,0,0,0c0,0,0,0,0,0c0,0,0,0,0,0c0,0,0,0,0,0c0,0,0,0,0,0c0,0,0,0,0,0
					l1.1,2.7l-0.8,1.6l-2.6-3.7l2-2.4c0.2-0.2,0.2-0.6-0.1-0.7c-0.2-0.2-0.6-0.2-0.7,0.1l-2,2.4l-4-2l1.4-1l2.8,0.7c0,0,0,0,0,0
					c0,0,0,0,0.1,0c0,0,0,0,0,0c0,0,0,0,0.1,0c0,0,0,0,0,0c0,0,0,0,0,0c0,0,0,0,0.1,0c0,0,0,0,0,0c0,0,0,0,0.1,0c0,0,0,0,0,0
					c0,0,0,0,0.1,0c0,0,0,0,0,0c0,0,0,0,0.1,0c0,0,0,0,0,0c0,0,0,0,0,0c0,0,0,0,0,0c0,0,0,0,0,0l14.1-16.6c0.9-1,2.5-1.4,3.4-1.6
					C1229.3,627.9,1229.2,629.6,1228.3,630.7z"/>
			</g>
		</g>
		<g>
			<g>
				<path class="st5" d="M1231.3,650.2C1231.3,650.2,1231.3,650.1,1231.3,650.2C1231.3,650.1,1231.3,650.1,1231.3,650.2
					C1231.3,650.1,1231.3,650.1,1231.3,650.2C1231.3,650.1,1231.3,650.1,1231.3,650.2l-4.5-13.3c-0.1-0.3-0.4-0.4-0.7-0.3
					c-0.3,0.1-0.4,0.4-0.3,0.7l4.4,12.9l-0.8,0.9l-7.5-8.6c-0.2-0.2-0.5-0.2-0.7-0.1c-0.2,0.2-0.2,0.5-0.1,0.7l7.9,9.1c0,0,0,0,0,0
					c0,0,0,0,0,0c0,0,0,0,0,0c0,0,0,0,0,0c0,0,0,0,0,0c0,0,0,0,0,0c0,0,0,0,0,0c0,0,0,0,0,0c0,0,0,0,0,0c0,0,0,0,0,0c0,0,0,0,0,0
					c0,0,0,0,0,0c0,0,0,0,0,0c0,0,0,0,0,0c0,0,0,0,0,0c0,0,0,0,0,0c0,0,0,0,0.1,0c0,0,0,0,0,0c0,0,0,0,0,0c0,0,0,0,0.1,0
					c0,0,0,0,0,0c0,0,0,0,0.1,0c0,0,0,0,0,0c0,0,0,0,0.1,0c0,0,0,0,0,0c0,0,0,0,0.1,0c0,0,0,0,0,0c0,0,0,0,0,0c0,0,0,0,0,0
					c0,0,0,0,0,0c0,0,0,0,0,0l1.4-1.6c0,0,0,0,0,0c0,0,0,0,0,0c0,0,0,0,0,0c0,0,0,0,0,0c0,0,0,0,0,0c0,0,0,0,0,0c0,0,0,0,0,0
					c0,0,0,0,0,0c0,0,0,0,0,0c0,0,0,0,0,0c0,0,0,0,0,0c0,0,0,0,0,0c0,0,0,0,0,0c0,0,0,0,0,0C1231.3,650.3,1231.3,650.3,1231.3,650.2
					C1231.3,650.2,1231.3,650.2,1231.3,650.2C1231.3,650.2,1231.3,650.2,1231.3,650.2C1231.3,650.2,1231.3,650.2,1231.3,650.2z"/>
			</g>
		</g>
	</g>
</g>
</svg>
