<?xml version="1.0" encoding="utf-8"?>
<!-- Generator: Adobe Illustrator 22.1.0, SVG Export Plug-In . SVG Version: 6.00 Build 0)  -->
<svg version="1.1" id="Capa_1" xmlns="http://www.w3.org/2000/svg" xmlns:xlink="http://www.w3.org/1999/xlink" x="0px" y="0px"
	 viewBox="0 0 483 763.6" style="enable-background:new 0 0 483 763.6;" xml:space="preserve">
<style type="text/css">
	.st0{fill:none;stroke:#76C0B4;stroke-width:1.05;stroke-miterlimit:10;}
	
		.st1{fill:none;stroke:#76C0B4;stroke-width:1.05;stroke-linecap:round;stroke-linejoin:round;stroke-dasharray:3.56,5.93,3.56,5.93;}
	.st2{fill:none;stroke:#76C0B4;stroke-width:1.05;stroke-linecap:round;stroke-linejoin:round;}
	.st3{fill:none;stroke:#A2A6DE;stroke-width:1.01;stroke-linecap:round;stroke-miterlimit:10;stroke-dasharray:3.8,6.33;}
	.st4{fill:#A2A6DE;}
</style>
<title>error_fondo2</title>
<path class="st0" d="M391.2,235h-236l-30.4-26.1l0,0v-38l0,0l29.7-21.9h236.7V235z"/>
<path class="st1" d="M385,229.8H160l-29-23l0,0v-33.4l0,0c19.2-13.1,28.3-19.3,28.3-19.3H385V229.8z"/>
<circle class="st0" cx="142.1" cy="191.7" r="5.3"/>
<path class="st2" d="M141.7,191.7c-14.6-6.5-28.7-13.8-42.3-22.1c-7.1-4.3-18.4-11.5-21.8-9.4c-1,0.8-1.4,2.2-0.8,3.4
	c1.3,3.3,7.7,5.9,10.9,7.1C112.1,180.4,141.7,191.7,141.7,191.7z"/>
<circle class="st0" cx="142.1" cy="191.7" r="1.8"/>
<path class="st3" d="M90.2,66c5.8-7.9,15.7-19,31-25c29.9-11.7,46.5,9.3,91,9c43.4-0.3,54.4-20.5,78.6-9.1
	c21.8,10.2,37.3,38,30.9,51.1c-2.4,4.9-9,9.4-14.1,8.1c-5.6-1.5-8.6-9.9-8.7-15.4c-0.4-18,29.2-36.7,55.1-42.3
	c48-10.4,86.4,23.8,92,28.9c9.8,9,24.6,22.6,24.2,40.3c-0.4,16.5-13.5,21.2-16.8,39c-3.9,21.1,11,31.8,19,53.7
	c21.8,59.6-38.7,121.2-16.2,141.9c4.1,3.8,12.5,7.6,16,5c4.4-3.3,2-18.1-3.4-19.9c-12.1-4-56.8,50.8-48.6,99.9
	c4.3,25.7,19.8,30.1,32,58c10.2,23.3,16.6,59.4-2,115"/>
<path class="st4" d="M68.1,85.1c1.2,0.1,2.3-0.2,3.3-0.8l2.4-2L84,85.7h0.3l1.1-0.9l0,0l0,0l0,0l0,0l0,0l0,0l0,0l0,0l0,0l0,0l0,0
	l0,0l0,0l0,0l0,0l0,0l0,0l0,0l0,0l0,0l0,0l0,0l0,0l0,0l0,0l0,0l0,0l-6.9-6l3.8-3.3l1.7,0.7h0.3l1.7-0.9h0.1l0,0l0,0l0,0l0,0v-0.1
	l0,0l0,0l0,0l0,0l0,0l0,0l0,0l0,0l0,0l0,0l0,0l0,0c0,0,0,0,0-0.1l0,0l0,0l0,0l0,0l0,0l0,0l0,0l0,0l0,0l0,0l-2.8-2l0.4-0.3
	c0.1-0.1,0.1-0.4,0-0.5c-0.1-0.1-0.2-0.1-0.3-0.1c-0.1,0-0.2,0-0.3,0.1l-0.4,0.3l-1.5-3.1l0,0l0,0l0,0l0,0l0,0l0,0l0,0l0,0H81l0,0
	l0,0l0,0l0,0l0,0l0,0l-1.1,1.6l0,0l0,0l0,0l0,0l0,0v0.1l0,0l0,0l0,0v0.1l0,0l0,0l0.1,0.9l-10.9,9.4l0,0c-0.8,0.9-1.3,2-1.3,3.2
	C67.7,84.9,67.8,85.1,68.1,85.1C68,85.1,68,85.1,68.1,85.1z M84.6,84.4L84,85l-9.7-3.2l3.7-3.1L84.6,84.4z M69.5,82.1L69.5,82.1
	l11.1-9.5l0,0l0,0l0,0l0,0l0,0l0,0l0,0l0,0l0,0l0,0l0,0l0,0l0,0l0,0l0,0l0,0l0,0l0,0l0,0l-0.5-1.9l0.7-1l1.3,2.7l-1.6,1.3
	c-0.1,0.1-0.1,0.4,0,0.5c0,0,0,0,0,0c0.1,0.1,0.4,0.1,0.5,0l1.6-1.4l2.5,1.8l-1.1,0.5l-1.8-0.8l0,0l0,0h-0.2l0,0l0,0l0,0l0,0l0,0
	l0,0l-11.2,9.3c-0.7,0.5-1.6,0.7-2.4,0.7C68.6,83.6,69,82.8,69.5,82.1z"/>
<path class="st4" d="M69.6,68.9L69.6,68.9L69.6,68.9L69.6,68.9L69.6,68.9l1.6,9.2c0,0.2,0.2,0.3,0.4,0.3c0.2,0,0.3-0.2,0.3-0.4
	c0,0,0,0,0,0l-1.5-9l0.6-0.5l4.1,6.5c0.1,0.2,0.3,0.2,0.5,0.1c0,0,0,0,0,0c0.2-0.1,0.2-0.3,0.1-0.5l-4.3-6.9l0,0l0,0l0,0l0,0l0,0
	l0,0H71l0,0H71l-1.1,0.9l0,0l0,0l0,0l0,0l0,0l0,0l0,0l0,0l0,0v0.1l0,0L69.6,68.9z"/>
<path class="st3" d="M62.8,484.8c-5.3-8.1-10.6-19.5-8.6-31.7c2.7-16.1,15.7-19.8,15.9-33.9c0.3-16.1-16.1-32.2-24.9-30.6
	c-3.9,0.7-7.9,6.1-6.9,9.5c0.9,3,5.8,4.7,8.6,4.5c11.8-0.9,23.7-38.2,23.3-73.4c-0.5-53.3-28.8-83.5-14.2-98.4
	c5.2-5.3,16-8.7,21.4-4.8c4.1,3,5.1,10.5,2.6,15.9c-2.3,5.1-8,9.2-13.4,9.1C52,250.7,39.6,211.9,37.2,183c-1.1-14-0.7-35.8,9-62"/>
<path class="st4" d="M73.1,510.3c0.4-1.1,0.5-2.3,0.1-3.4l-1.3-2.8l6.1-8.9l0,0l0,0l0,0l0,0l0,0V495l0,0l0,0l0,0l0,0l0,0l0,0l0,0
	l0,0l0,0l0,0l0,0l-0.6-1.3l0,0l0,0l0,0l0,0l0,0l0,0H77l-7.7,5l-2.1-4.6l1.2-1.5l0,0l0,0l0,0l0,0l0,0l0,0l0,0l0,0l0,0V492l0,0l0,0
	l0,0l0,0l0,0l-0.3-2l0,0l0,0l0,0l0,0l0,0l0,0l0,0l0,0l0,0l0,0l0,0l0,0h-0.4l0,0l0,0l-2.8,2l-0.2-0.4c-0.1-0.2-0.3-0.3-0.5-0.2
	c-0.1,0-0.1,0.1-0.2,0.2c0,0.1,0,0.2,0,0.3l0.2,0.5l-3.4,0.6h-0.1l0,0l0,0l0,0l0,0l0,0l0,0v0.1l0,0v0.2l0,0l0,0l0,0l0,0l0,0l0,0l0,0
	l0,0l0,0l1.1,1.8l0,0l0,0H62l1.9,0.1l6,13.1l0,0c0.6,1,1.6,1.8,2.7,2.2C72.7,510.4,72.9,510.4,73.1,510.3z M77,494.1l0.3,0.7
	l-5.8,8.4l-2-4.3L77,494.1z M70.6,508L70.6,508l-6.1-13.3l0,0l0,0l0,0l0,0l0,0l0,0h-0.2l-1.9-0.1l-0.7-0.9l3-0.5l0.9,1.9
	c0.1,0.2,0.3,0.2,0.5,0.2c0.2-0.1,0.3-0.3,0.2-0.5l-0.9-1.9l2.4-1.9l0.2,1.2l-1.2,1.5l0,0l0,0l0,0l0,0l0,0c0,0,0,0,0,0l0,0l0,0l0,0
	v0l0,0v0l0,0l0,0l0,0l6.1,13.3c0.3,0.8,0.3,1.7,0,2.5C71.8,509.3,71.1,508.8,70.6,508z"/>
<path class="st4" d="M57.9,504.2L57.9,504.2l9.4,1.1c0.2,0,0.4-0.1,0.4-0.3c0-0.2-0.1-0.4-0.3-0.4l-9.1-1l-0.3-0.7l7.4-2.1
	c0.2-0.1,0.3-0.3,0.2-0.4c-0.1-0.2-0.2-0.3-0.4-0.2c0,0,0,0,0,0l-7.8,2.2h-0.1l0,0l0,0l0,0l0,0l0,0l0,0l0,0l0,0l0,0l0,0l0,0l0,0
	c0,0,0,0,0,0l0,0v0l0,0c0,0,0,0,0,0l0,0l0,0l0,0l0.6,1.3l0,0l0,0l0,0l0,0l0,0l0,0h0.1L57.9,504.2z"/>
<path class="st3" d="M41.2,546c-2,5.4-4,13.4-2,22c4.5,19.7,25.4,21.8,27,36c2.3,20.4-31.6,25.3-34,51
	c-1.8,19.3,14.6,46.7,17.9,67.8c0.3,1.7,0.9,5.9-1.5,9.5c-2.5,3.8-8.4,6.8-13.2,4.8c-2.9-1.3-5.1-3.9-5.8-7.1
	c-1.8-8,7.1-16.2,9.7-18.7c20.3-18.7,76,22.6,141.4,14.5c53-6.6,80.9-41.6,110.4-24.2c11.1,6.6,20,19.1,35,17.7
	c11.2-1.1,23-9.6,22.2-15.4c-0.7-4.6-9.4-8.8-13.5-6.4c-5.9,3.6-4.9,23.2,5.4,30.4c4.5,3.1,9.3,2.9,17,2.4
	c6.2-0.3,20.1-1.1,33.1-10.6s12.5-18.2,21.1-19.3s11.8,7,21.6,8.3c6.7,0.8,16.6-1.5,30.4-16.8"/>
<path class="st4" d="M478.8,673.8c-1.2,0.1-2.3,0.6-3.1,1.4l-2,2.4l-10.7-1.8h-0.2l0,0l0,0l0,0l0,0l-0.9,1.1l0,0l0,0l0,0l0,0l0,0
	l0,0l0,0l0,0l0,0l0,0l0,0l0,0l0,0l0,0l0,0l0,0l0,0l0,0l0,0l0,0l0,0l0,0l0,0l0,0h0.1l7.8,4.8l-3.3,3.8l-1.8-0.5h-0.3l-1.6,1.1l0,0
	l0,0l0,0l0,0l0,0l0,0l0,0l0,0l0,0c0,0,0,0,0,0.1l0,0l0,0l0,0l0,0l0,0l0,0l0,0l0,0l0,0l0,0l0,0l0,0l0,0l0,0l0,0l0,0l0,0l0,0l0,0l0,0
	l0,0l0,0l3.1,1.5l-0.3,0.4c-0.1,0.1-0.1,0.4,0,0.5c0.1,0.1,0.2,0.1,0.3,0.1c0.1,0,0.2-0.1,0.2-0.1l0.3-0.4l2,2.8l0,0l0,0l0,0l0,0
	l0,0l0,0h0.4l0,0l0,0l0,0l0,0l0,0l0,0l0,0l0,0l0,0l0,0l0.9-1.7l0,0l0,0l0,0l0,0l0,0l0,0l0,0l0,0l0,0l0,0l0,0l0,0l0,0l-0.8-1.7
	l9.3-11l0,0c0.6-1,0.9-2.2,0.8-3.3c-0.2,0.1-0.3,0.3-0.2,0.5C478.7,673.7,478.8,673.7,478.8,673.8z M462.6,677.1l0.5-0.6l10,1.7
	l-3.1,3.6L462.6,677.1z M477.8,677L477.8,677l-9.5,11.2l0,0l0,0l0,0l0,0l0,0l0,0l0,0l0,0l0,0l0,0l0,0v0.1l0,0l0,0l0,0l0,0l0,0l0,0
	l0,0l0.8,1.8l-0.5,1.1l-1.8-2.5l1.4-1.6c0.1-0.1,0.1-0.4,0-0.5c0,0,0,0,0,0c-0.1-0.1-0.4-0.1-0.5,0l-1.4,1.6l-2.7-1.3l1-0.7l1.9,0.5
	h0.2h0l0,0l0,0l0,0l0,0l0,0l0,0l0,0l9.5-11.2c0-0.8,0.6-1.4,1.4-1.4c0.8,0,1.4,0.6,1.4,1.4c0,0.7-0.5,1.3-1.2,1.4L477.8,677z"/>
<path class="st4" d="M479.8,690.1L479.8,690.1L479.8,690.1L479.8,690.1l-3-8.8c-0.1-0.2-0.2-0.3-0.4-0.2c0,0,0,0,0,0
	c-0.2,0.1-0.3,0.3-0.2,0.4l2.9,8.7l-0.5,0.6l-5.1-5.8c-0.1-0.1-0.3-0.2-0.5,0c-0.1,0.1-0.2,0.3,0,0.5l5.3,6.1l0,0l0,0l0,0l0,0h0.3
	l0,0l0,0l0,0l0,0l0,0l0,0l0,0l0,0l0.9-1.1l0,0l0,0l0,0l0,0l0,0l0,0l0,0v-0.1l0,0l0,0l0,0v-0.1L479.8,690.1z"/>
</svg>
