<svg id="Capa_1" data-name="Capa 1" xmlns="http://www.w3.org/2000/svg" viewBox="0 0 483.05 763.59"><defs><style>.cls-1,.cls-2,.cls-3,.cls-4{fill:none;}.cls-1,.cls-2,.cls-3{stroke:#76c0b4;stroke-width:1.05px;}.cls-1,.cls-4{stroke-miterlimit:10;}.cls-2,.cls-3,.cls-4{stroke-linecap:round;}.cls-2,.cls-3{stroke-linejoin:round;}.cls-2{stroke-dasharray:3.56 5.93 3.56 5.93;}.cls-4{stroke:#a2a6de;stroke-width:1.01px;stroke-dasharray:3.8 6.33;}.cls-5{fill:#a2a6de;}</style></defs><title>error_fondo2</title><path class="cls-1" d="M379.21,235h-236l-30.42-26.08h0V170.93h0L142.46,149H379.21Z"/><path class="cls-2" d="M373,229.83H148l-29-23h0V173.44h0c19.21-13.15,28.26-19.33,28.26-19.33H373Z"/><circle class="cls-1" cx="130.14" cy="191.7" r="5.26"/><path class="cls-3" d="M129.7,191.7a375,375,0,0,1-42.32-22.1c-7.14-4.34-18.38-11.54-21.77-9.39a2.81,2.81,0,0,0-.81,3.44c1.3,3.32,7.74,5.91,10.91,7.15C100.08,180.39,129.7,191.7,129.7,191.7Z"/><circle class="cls-1" cx="130.14" cy="191.7" r="1.78"/><path class="cls-4" d="M78.21,66c5.8-7.94,15.74-19,31-25,29.86-11.71,46.46,9.33,91,9,43.4-.33,54.36-20.5,78.56-9.13,21.8,10.24,37.27,38.05,30.91,51.06-2.4,4.9-9,9.41-14.11,8.06-5.57-1.48-8.62-9.88-8.74-15.45-.36-18,29.21-36.72,55.1-42.33,48-10.4,86.44,23.75,92,28.89,9.82,9,24.6,22.57,24.19,40.31-.39,16.48-13.52,21.22-16.8,39-3.89,21.06,11,31.8,19,53.71,21.83,59.63-38.67,121.18-16.19,141.91,4.12,3.8,12.55,7.63,16,5,4.38-3.34,2.05-18.09-3.4-19.89-12.15-4-56.78,50.76-48.6,99.89,4.28,25.73,19.75,30.06,32,58,10.2,23.26,16.64,59.42-2,115"/><path class="cls-5" d="M56.05,85.13a5.18,5.18,0,0,0,3.33-.85l2.36-2L72,85.69h.34l1.08-.92h0l0,0h0v0h0v0h0v0h0v0h0v0h0v0h0v0h0v0h0v0h0v0h0v0h0v0h0l-6.9-6,3.82-3.27,1.74.73h.31l1.73-.86h.08l0,0h0l0,0h0l0-.06v0h0v0h0v0h0v0h0v0h0v0h0a.43.43,0,0,0,0-.05v0h0v0h0a.05.05,0,0,1,0,0h0l0,0h0l0,0h0l-2.8-2,.37-.32a.36.36,0,0,0,0-.5.39.39,0,0,0-.25-.12.33.33,0,0,0-.25.08l-.37.32-1.54-3.07h0s0,0,0,0h0l0,0h0l0,0h0l0,0h-.36l0,0h0l0,0h0l0,0h0l-1.12,1.59h0v0h0v0h0v.06h0v0h0v.06h0v0L68,72.23,57.08,81.59h0a5.24,5.24,0,0,0-1.35,3.15A.34.34,0,0,0,56.05,85.13Zm16.58-.7L72,85l-9.65-3.22L66,78.65Zm-15.09-2.3h0l11.11-9.5h0v0h0v0h0v0h0v0h0v0h0v0h0v0h0v0h0v0h0l-.47-1.89.69-1,1.35,2.71-1.58,1.35a.35.35,0,0,0,0,.5.36.36,0,0,0,.5,0l1.58-1.36,2.47,1.76-1.07.53-1.79-.76h0l0,0h-.18l0,0h0l0,0h0l0,0h0L58.92,83.75a4.08,4.08,0,0,1-2.44.68A4.1,4.1,0,0,1,57.54,82.13Z"/><path class="cls-5" d="M57.63,68.87v0h0v0h0l1.56,9.22a.35.35,0,0,0,.4.29.35.35,0,0,0,.29-.41l-1.52-9,.61-.52L63.06,75a.35.35,0,0,0,.49.11.35.35,0,0,0,.11-.48l-4.3-6.88h0l0,0h0s0,0,0,0h0l0,0h-.32l0,0h-.05l-1.07.92h0v0h0v0h0v0h0v0h0v.06h0Z"/><path class="cls-4" d="M50.78,484.75c-5.3-8.11-10.62-19.45-8.57-31.74,2.69-16.1,15.67-19.81,15.94-33.9.32-16.06-16.09-32.19-24.87-30.56-3.94.73-7.89,6.13-6.87,9.52.91,3,5.77,4.7,8.6,4.48,11.77-.91,23.65-38.17,23.31-73.41-.51-53.3-28.77-83.54-14.2-98.39,5.22-5.32,16-8.74,21.44-4.81,4.13,3,5.1,10.54,2.63,15.85-2.35,5.05-8,9.16-13.37,9.08C40,250.67,27.56,211.93,25.21,183c-1.14-14-.72-35.79,9-62"/><path class="cls-5" d="M61.05,510.25a5.28,5.28,0,0,0,.1-3.44L59.87,504,66,495.1h0v0h0v0h0v-.06h0v0h0v0h0v0h0v0h0v0h0l-.59-1.29h0v0h0v0h0l0,0h-.42l-7.66,5-2.08-4.57,1.19-1.47h0l0,0h0v0h0v0h0v0h0V492h0v0h0v0h0L56.1,490h0v0h0v0h0v0l0,0h0l0,0h0l-.05-.05,0,0h-.37l0,0h0L52.84,492l-.2-.44a.36.36,0,0,0-.47-.18.35.35,0,0,0-.18.2.29.29,0,0,0,0,.27l.2.45-3.38.62h-.09l0,0h0l0,0,0,0v0h0v.07h0v.19h0v0h0s0,0,0,0h0l0,0h0l0,0h0L49.82,495h0v0h.22l1.89.07,6,13.11h0a5.26,5.26,0,0,0,2.66,2.17A.36.36,0,0,0,61.05,510.25ZM65,494.13l.33.73-5.77,8.38-2-4.3ZM58.58,508h0l-6.06-13.31h0v0h0v0h0v0h-.23l-1.94-.07-.74-.93,3-.55.86,1.9a.36.36,0,0,0,.47.17.36.36,0,0,0,.18-.47l-.87-1.89,2.37-1.88.22,1.17-1.23,1.51h0l0,0v0a.05.05,0,0,0,0,0h0a.09.09,0,0,1,0,.05h0s0,0,0,0h0v.05h0v.05h0a.06.06,0,0,0,0,0h0l6.06,13.31a4.17,4.17,0,0,1,0,2.53A4.07,4.07,0,0,1,58.58,508Z"/><path class="cls-5" d="M45.86,504.22h.06l9.29,1.06a.35.35,0,1,0,.08-.7l-9.09-1-.33-.73,7.4-2.11a.36.36,0,0,0,.24-.44.35.35,0,0,0-.44-.24l-7.79,2.22H45.2l0,0h0l0,0h0l0,0h0l0,0h0l0,0h0s0,0,0,0h0a.07.07,0,0,0,0,.05h0v.05h0a.43.43,0,0,1,0,.05h0v0h0l.59,1.29h0v0h0v0h0l0,0h.13Z"/><path class="cls-4" d="M29.21,546c-2,5.44-4,13.36-2,22,4.49,19.67,25.4,21.83,27,36,2.3,20.38-31.62,25.29-34,51-1.79,19.31,14.56,46.73,17.93,67.81.26,1.66.87,5.91-1.5,9.5-2.55,3.85-8.37,6.76-13.2,4.76A10.23,10.23,0,0,1,17.67,730c-1.83-8,7.07-16.24,9.74-18.7,20.27-18.69,76,22.58,141.42,14.46,53-6.57,80.95-41.59,110.43-24.21,11.13,6.56,20,19.12,35.05,17.68,11.18-1.07,23.05-9.59,22.2-15.44-.66-4.63-9.43-8.83-13.49-6.39-5.92,3.57-4.93,23.21,5.39,30.38,4.51,3.13,9.33,2.86,16.95,2.44,6.23-.35,20.06-1.13,33.07-10.56s12.51-18.18,21.14-19.33,11.8,7,21.59,8.28c6.66.84,16.62-1.5,30.36-16.81"/><path class="cls-5" d="M466.82,673.76a5.21,5.21,0,0,0-3.15,1.36l-2,2.37L451,675.73h-.24l0,0h0l0,0h0l-.92,1.08h0v0h0v0h0v0h0v0h0v0h0v0h0v0h0v0h0v0h0v0h0v0h0v0h.08l7.75,4.81-3.25,3.83-1.84-.45h-.29l-1.58,1.13h0l0,0h0l0,0h0l0,0h0l0,0h0a.14.14,0,0,0,0,.07v0h0v0h0v0h0v0h0v0h0v0h0s0,0,0,0h0l0,0h0l0,0h0l0,0h0l0,0h0l3.08,1.53-.32.37a.37.37,0,0,0,0,.5.37.37,0,0,0,.26.08.37.37,0,0,0,.24-.12l.32-.38,2,2.79h0l0,0h0l0,0h0l0,0h.37l0,0h0l0,0h0l0,0h0l0,0h0l0,0h0l.86-1.74h0v0h0v0h0v0h0v0h0v0h0v0h0l-.75-1.74,9.32-11h0a5.23,5.23,0,0,0,.84-3.33A.36.36,0,0,0,466.82,673.76Zm-16.25,3.31.52-.61,10,1.65-3.06,3.61Zm15.26-.12h0l-9.47,11.15h0v0h0v0h0v0h0v0h0v0h0v.08h0v0h0v0h0v0h0l.76,1.79-.53,1.07-1.76-2.46,1.35-1.59a.35.35,0,0,0,0-.5.36.36,0,0,0-.5,0l-1.35,1.59-2.71-1.34,1-.69,1.89.46h.17l.05,0h0l0,0h0l0,0h0l0,0h0l9.46-11.15a1.39,1.39,0,1,1,1.62,1.37Z"/><path class="cls-5" d="M467.84,690.06h0v0h0l-3-8.85a.34.34,0,0,0-.45-.22.35.35,0,0,0-.22.44l2.94,8.67-.52.61-5.07-5.79a.35.35,0,1,0-.53.46l5.33,6.11h0l0,0h0l0,0h.26l0,0h0l0,0h0l0,0h0v0h0l.92-1.07h0v0h0v0h0v0h0v-.06h0v0h0v-.06Z"/></svg>