<svg id="Capa_1" data-name="Capa 1" xmlns="http://www.w3.org/2000/svg" viewBox="0 0 1520 1088.97"><defs><style>.cls-1{fill:#f0be9c;}.cls-1,.cls-2,.cls-3,.cls-4{stroke:#f0be9c;stroke-miterlimit:10;}.cls-2,.cls-3,.cls-4{fill:none;stroke-linecap:round;stroke-width:2.82px;}.cls-3{stroke-dasharray:5.66 9.44;}.cls-4{stroke-dasharray:5.65 9.42;}</style></defs><title>fondo-preferencias</title><path class="cls-1" d="M134,817.2c0-.12,1.14-3,.21-5.11l-1.88-4.22,9.23-13.15h0v-.05l0,0v-.2h0s0,0,0,0h0v0h0v-.11h0l-.86-1.92h0v0l0,0h0l0,0v0l0,0,0,0h0l0,0,0,0h0l0,0H140l0,0h0l-11.45,7.3-3-6.84,1.79-2.18h0l0,0v0l0,0v-.31h0l-.5-2.84h0V787l0,0v-.08h0l0,0h0l-.07-.07,0,0h0l0,0h-.36l-.06,0h0l0,0h0l0,0v0h0l-4,3.15-.3-.66A.52.52,0,0,0,121,789a.56.56,0,0,0-.28.29.53.53,0,0,0,0,.41l.3.66-5,.89h-.15l0,0h0l0,0h0l0,0,0,0,0,0,0,0,0,0,0,0,0,0v0h0v.06a.08.08,0,0,1,0,0v.17h0a0,0,0,0,1,0,0v0a.08.08,0,0,0,0,0v0l0,0v0l0,0h0l1.78,2.28h0l0,0,0,0,0,0,0,0h0l0,0h.26l2.81.13,8.71,19.58h0c.93,2.1,3.8,3.22,3.92,3.27A.53.53,0,0,0,134,817.2Zm6-23.94.49,1.09-8.7,12.4-2.86-6.43Zm-9.68,20.55h0l-8.85-19.88h0l0,0v0l0,0h0l0,0h0l0,0h0l0,0h0l0,0H121l-2.89-.13-1.09-1.4,4.43-.78,1.26,2.83a.52.52,0,1,0,1-.42l-1.26-2.83L126,788.1l.3,1.75-1.84,2.24h0l0,.06v0l0,.06h0s0,0,0,.06v0a.17.17,0,0,1,0,.07h0v.07h0a.2.2,0,0,0,0,.07h0l0,.06v0h0l8.84,19.88a6.08,6.08,0,0,1,0,3.77A6.09,6.09,0,0,1,130.32,813.81Z"/><path class="cls-1" d="M111.43,808h.09l13.82,1.69a.52.52,0,0,0,.13-1L112,807.05l-.49-1.09,11-3.05a.53.53,0,0,0-.28-1l-11.63,3.22h-.07l0,0h0l0,0h0l0,0v0l0,0v0l0,0v0l0,0h0a.08.08,0,0,1,0,0h0s0,0,0,.06v0a.17.17,0,0,0,0,.07h0v.07h0s0,.05,0,.08h0v.06h0l.86,1.92h0l0,0v0l0,0v0l0,0,0,0,0,0h0l0,0,0,0h.13Z"/><path class="cls-2" d="M514.68,102.26c-.84.44-1.67.87-2.51,1.29"/><path class="cls-3" d="M503.71,107.73c-61.89,29.54-105.72,27.63-135,19.68-55.15-15-62.92-52.54-132-68-14-3.12-76.52-17.12-116.66,16.78C114.65,80.76,95.39,97,95.43,120.28c0,14.88,7.84,33.73,20.74,37.6,1,.3,7.66,2.18,11.67-1.3,5.25-4.56,3.81-16.41-1.3-19.45-6.22-3.7-17.71,5.77-23.24,10.32-3.66,3-35.6,29.93-37.69,70.07-2.24,43,32.6,46.72,45.11,96.72,14,55.93-23.88,74.08-9.06,141,6.71,30.33,24.32,71,44.06,71.16,8.58.07,18.67-7.5,20-16,1.48-9.47-8.11-18.92-16-23-21.62-11.17-60.16,2.67-72,30-9.83,22.69,2.24,46.56,6,54,16.32,32.29,40.34,28.74,52,52,22.59,45.05-31.19,130.17-63,128-5-.33-14.39-3.13-16-9-1.81-6.61,6.45-16.61,14-18,15.82-2.9,34.66,30.89,43.73,49.21"/><path class="cls-2" d="M116.51,777.86c.45.93.85,1.78,1.21,2.55"/><path class="cls-4" d="M41.72,860.41c.84-2.21,7.92-20,26-25,16.26-4.48,35.32,3.08,41,15,12.55,26.33-45.43,62.85-36,83,15.34,32.79,189.68-19.15,198,5,1,2.93.42,9.4-3,14-4.09,5.52-13,9.38-20,6a15.19,15.19,0,0,1-8-11c-2.06-12.08,11.84-23.56,16-27,31.64-26.12,111,39.74,209,33,79.27-5.45,123.69-55.21,166.09-27,16,10.66,28.16,30.05,50.66,29.13,16.69-.68,35-12.38,34.25-21.15-.61-6.92-13.31-13.89-19.53-10.59-9.09,4.82-9.22,34.1,5.53,45.59,6.45,5,13.64,5,25,5,9.28,0,29.9,0,50-13,18-11.63,18.12-22.37,33-27,12.19-3.79,24.12-.32,32,3"/><path class="cls-4" d="M1451.61,295.14c-67.47,83.34-75.4,146.05-71.31,186.7,9.67,96.11,94.5,147.6,68.42,204.57-14.06,30.71-56.85,55.37-76,46-7.29-3.56-14-13.45-12-21,2.21-8.29,14.71-12.83,23-13,26.73-.54,54.65,43.47,63,82,15.48,71.45-35.35,128.66-43,137-13.41,14.62-33.59,36.62-60,36-24.52-.57-31.58-20.11-58-25-31.68-5.86-49.49,16.53-79.94,28.34-91.62,35.55-194.59-68-223.06-36.34-6.8,7.58-8.73,22.2-3.35,29.09,7.56,9.65,29.42,4,37.35,1.91,61.27-15.91,144.72-115.82,118.53-167.48-21.39-42.2-103.45-27.59-110.43-59.44-4.77-21.74,29.47-47.5,54.68-63.73"/><path class="cls-1" d="M869.08,949.51c-.05-.12-1.27-3-3.4-3.81L861.41,944l-2.49-15.88h0v-.15l0,0v0l0,0h0l0,0h0l0,0h0l0,0h-.06l0,0h0l-2-.8h-.44l0,0h0l0,0,0,0h0l0,0,0,0,0,0v0l0,0v.07h0v.07h0l-3.18,13.21-6.94-2.82-.22-2.8v-.13h0l0,0v0l0,0v0l0,0v0l0,0v0l0,0h0l0,0h0l-2.32-1.7h0l0,0h-.51l0,0h0l0,0h0l-.06,0h0l0,0h0l0,0h0s0,0,0,.05h0l0,.06v0a0,0,0,0,1,0,0l-.71,5.07-.68-.28a.52.52,0,0,0-.68.29.5.5,0,0,0,0,.4.52.52,0,0,0,.29.29l.67.27-3,4.13h0l0,.05h0s0,0,0,0h0a.14.14,0,0,1,0,.06v0h0v.17s0,0,0,0,0,0,0,0v0h0v0s0,0,0,0l0,0,0,0,0,0,0,0,0,0,0,0h0l0,0h0l0,0h0l0,0h.09l2.86.4h.36l0,0,0,0h0l2.11-1.86,19.86,8.05h0c2.13.86,5-.33,5.09-.38A.52.52,0,0,0,869.08,949.51Zm-12.26-21.42,1.11.45,2.34,15-6.53-2.64Zm7.28,21.51h0l-20.17-8.17h-.45l0,0h0l0,0h0l-2.17,1.91-1.76-.25,2.65-3.63,2.87,1.16a.53.53,0,0,0,.69-.29.52.52,0,0,0-.29-.68l-2.87-1.17.62-4.45,1.44,1,.22,2.89h0a.17.17,0,0,0,0,.07v0s0,0,0,.06h0l0,.06h0a.21.21,0,0,0,0,.06h0l0,0h0l.06,0h0l.05,0h0l20.17,8.17a2.08,2.08,0,1,1-1.19,2.93Z"/><path class="cls-1" d="M846.51,958.56l0,0h0l0,0h0l11.11-8.37a.53.53,0,1,0-.63-.84l-10.88,8.19-1.11-.45,5.83-9.86a.52.52,0,1,0-.9-.54L843.87,957h0l0,0v0h0v0s0,0,0,.05v.18h0s0,0,0,0v0s0,0,0,0h0a.16.16,0,0,0,0,.07h0l0,.06h0l.05.05h0l.06,0h.08l2,.8h.44Z"/><path class="cls-1" d="M1479.52,266.6c-.13,0-3.22,0-4.84,1.64l-3.26,3.26-15.6-3.89h-.31l0,0h0l0,0h0l0,0h0l0,0h0l-1.49,1.49h0l0,0,0,0h0v.05l0,0v.47l0,0v0l0,0v0l0,0h0l0,0,0,0h0l10.93,8.07-5.3,5.3-2.67-.89h-.39l0,0h0l-2.47,1.48h0l0,0h0l0,0h0v0l0,0h0a.08.08,0,0,0,0,0h0l0,.1a.06.06,0,0,0,0,0h0v0h0v.15h0v0h0a.24.24,0,0,0,0,.08v0h0s0,0,0,0h0l0,.05h0l0,0h0s0,0,0,0h0l0,0,4.39,2.63-.52.51a.54.54,0,0,0,0,.75.55.55,0,0,0,.38.15.53.53,0,0,0,.37-.15l.51-.52,2.63,4.38h0l0,.05h0s0,0,0,0h0l0,0h0l0,0h0l0,0h0l0,0h.33l0,0h0a.05.05,0,0,0,0,0h0l0,0h0l0,0h0l0,0h0l0-.05h0l1.49-2.47v-.44l-.89-2.67L1478.4,272h0c1.63-1.62,1.65-4.71,1.65-4.84A.52.52,0,0,0,1479.52,266.6ZM1455,269.54l.85-.84,14.69,3.67-5,5Zm22.65,1.68h0l-15.39,15.38h0l0,0,0,0v0l0,0v0l0,0h0l0,0h0v.34h0l.92,2.75-.91,1.52-2.32-3.85,2.19-2.2a.52.52,0,1,0-.74-.74l-2.19,2.19-3.86-2.31,1.52-.92,2.75.92h0l.08,0h.18l.06,0h0l.06,0h0l.06,0h0l0,0h0L1475.42,269a6.12,6.12,0,0,1,3.54-1.3A6.12,6.12,0,0,1,1477.66,271.22Z"/><path class="cls-1" d="M1479.05,290.91v-.08h0l-3.38-13.5a.52.52,0,0,0-.64-.38.52.52,0,0,0-.38.63l3.3,13.22-.84.84-6.81-9.21a.53.53,0,1,0-.85.63l7.17,9.7h0l0,0h0l0,0h0l0,0h0l0,0h0l0,0h.28l.06,0h0l.06,0h0l.06,0h0l0,0h0l1.49-1.49h0l0,0v0l0,0v0l0,0v-.27Z"/><path class="cls-4" d="M1019.72,80.16c20-9,59.52-22.87,98-7.75,19.43,7.64,47,26,44.25,38.5-1.28,5.84-9.5,11.45-14.5,9.75-4.4-1.49-6.71-8.81-6.25-13,1.93-17.46,57.94-33.31,110.36-31.08,79.26,3.37,122.86,46.91,145.67,26,8.16-7.5,13.78-23.39,8.2-31.65-4.26-6.3-15.42-8.1-23.44-4.69-10,4.26-13.18,15.82-14.17,19.45-8.72,31.78,34.41,50.94,43.47,97.78,7.58,39.16-11.24,87.33-36.34,93.78-28.52,7.32-49-43.37-86.61-40.85-28.26,1.9-50.1,32.79-65.64,64.06"/><path class="cls-1" d="M986,97.6c.13,0,3.08.91,5.11-.18h0L1010,87.26l2.3,1.62h0l0,0h.36l2.8-.71h0l.06,0h0l0,0h0l0,0h0l0,0h0l0,0,0,0,0,0,0,0v0l0,0s0,0,0,0v0h0v0s0,0,0,0v-.1a.08.08,0,0,0,0,0v0a.09.09,0,0,0,0,0h0v0h0l0-.06h0s0,0,0,0h0l0-.05h0l-3.44-3.78.64-.35a.49.49,0,0,0,.25-.31.51.51,0,0,0,0-.4.52.52,0,0,0-.71-.21l-.64.34-1.26-5s0,0,0,0h0s0,0,0-.06h0l0,0v0l0-.05h0l0,0h0l-.06,0h0a.05.05,0,0,1,0,0H1010l-.1,0h-.12l0,0,0,0h0l0,0h0l-2.13,1.94h0l0,0h0l0,0,0,0v0l0,0v.05h0v.18l.09,2.81-6.6,3.55-4.59-12.78h0v0l0,0h0v0l0,0v0l0,0,0,0,0,0h0l0,0v0H996l0,0h-.42l0,0h0l-1.86,1h0l0,0h0l0,0h0l0,0h0l0,0h0l0,0h0v.23h0l-.75,16.06-4.07,2.18c-2,1.09-2.93,4-3,4.17A.51.51,0,0,0,986,97.6Zm14-10.92L993.74,90l.7-15.12,1.06-.57Zm-13.11,10a6.09,6.09,0,0,1,2.26-3l19.16-10.31h0l.05,0h0l0,0h0l0-.05h0l0-.06v0a.14.14,0,0,0,0-.06h0s0,0,0-.07h0a.22.22,0,0,0,0-.08h0l-.09-2.9,1.31-1.19,1.11,4.36-2.73,1.47a.52.52,0,1,0,.5.92l2.73-1.47,3,3.33-1.72.44-2.37-1.67h0l0,0h-.52L990.59,96.49h0A6,6,0,0,1,986.83,96.72Z"/><path class="cls-1" d="M1009.05,103.49h0l0,0h0l-12-7.12a.52.52,0,1,1,.53-.9l11.71,7,1-.57-6.86-9.17a.51.51,0,0,1,.1-.73.53.53,0,0,1,.74.1l7.23,9.66h0s0,0,0,0v0h0l0,0h0s0,0,0,.06h0s0,0,0,0v.18h0s0,0,0,.06h0a.25.25,0,0,1,0,.07h0l0,.06h0l0,.06h0l-.06,0h0l0,0h0l-1.85,1h0l0,0h-.4Z"/></svg>