<?xml version="1.0" encoding="utf-8"?>
<!-- Generator: Adobe Illustrator 22.1.0, SVG Export Plug-In . SVG Version: 6.00 Build 0)  -->
<svg version="1.1" id="Capa_1" xmlns="http://www.w3.org/2000/svg" xmlns:xlink="http://www.w3.org/1999/xlink" x="0px" y="0px"
	 viewBox="0 0 96.6 138.1" style="enable-background:new 0 0 96.6 138.1;" xml:space="preserve">
<style type="text/css">
	.st0{fill:#76C0B4;}
</style>
<path class="st0" d="M48.4,1.6c-25.4,0-46,20.2-46,45.1c0,7.6,2,15.1,5.7,21.7l0,0l40.3,68.7l40.3-68.7c3.7-6.6,5.7-14.1,5.7-21.7
	C94.4,21.8,73.8,1.6,48.4,1.6z M48.4,61.2c-8.4-0.2-15.1-7.1-14.9-15.5c0.2-8.4,7.1-15.1,15.5-14.9C57.3,31,63.9,37.8,63.9,46
	C63.8,54.5,56.9,61.3,48.4,61.2z"/>
</svg>
