<svg id="Capa_1" data-name="Capa 1" xmlns="http://www.w3.org/2000/svg" viewBox="0 0 40 40"><defs><style>.cls-1{fill:#df854f;}.cls-2{fill:#fff;}</style></defs><title>img</title><rect class="cls-1" width="40" height="40" rx="20" ry="20"/><path class="cls-2" d="M33.18,13.71a3.41,3.41,0,0,0-2.39-2.4c-2.1-.56-10.54-.56-10.54-.56s-8.45,0-10.55.56a3.41,3.41,0,0,0-2.39,2.4,35.85,35.85,0,0,0-.56,6.54,35.76,35.76,0,0,0,.56,6.53,3.37,3.37,0,0,0,2.39,2.4c2.1.57,10.55.57,10.55.57s8.44,0,10.54-.57a3.37,3.37,0,0,0,2.39-2.4,35.14,35.14,0,0,0,.57-6.53,35.23,35.23,0,0,0-.57-6.54"/><polygon class="cls-1" points="17.48 24.26 24.54 20.25 17.48 16.24 17.48 24.26"/></svg>