<svg id="Capa_1" data-name="Capa 1" xmlns="http://www.w3.org/2000/svg" viewBox="0 0 40 40"><defs><style>.cls-1{fill:#df854f;}.cls-2{fill:#fff;stroke:#fff;stroke-miterlimit:10;stroke-width:0.53px;}</style></defs><title>img</title><rect class="cls-1" width="40" height="40" rx="20" ry="20"/><path class="cls-2" d="M20,10.69c2.94,0,3.29,0,4.45.06a6.13,6.13,0,0,1,2,.38,3.44,3.44,0,0,1,1.26.82,3.38,3.38,0,0,1,.83,1.27,6.07,6.07,0,0,1,.38,2c.05,1.16.06,1.51.06,4.44s0,3.29-.06,4.45a6.13,6.13,0,0,1-.38,2,3.67,3.67,0,0,1-2.09,2.09,6.13,6.13,0,0,1-2,.38c-1.16.05-1.51.06-4.45.06s-3.28,0-4.44-.06a6.15,6.15,0,0,1-2-.38,3.52,3.52,0,0,1-1.26-.82,3.56,3.56,0,0,1-.82-1.27,6.13,6.13,0,0,1-.38-2C11,23,11,22.64,11,19.7s0-3.28.07-4.44a6.07,6.07,0,0,1,.38-2A3.48,3.48,0,0,1,12.29,12a3.52,3.52,0,0,1,1.26-.82,6.15,6.15,0,0,1,2-.38c1.16-.05,1.51-.06,4.44-.06m0-2c-3,0-3.36,0-4.53.07a8,8,0,0,0-2.67.51A5.63,5.63,0,0,0,9.62,12.5a8,8,0,0,0-.51,2.67C9.05,16.34,9,16.72,9,19.7s0,3.37.07,4.54a8,8,0,0,0,.51,2.67,5.42,5.42,0,0,0,1.27,1.95,5.34,5.34,0,0,0,1.95,1.27,8.31,8.31,0,0,0,2.67.51c1.17.05,1.55.06,4.53.06s3.36,0,4.54-.06a8.31,8.31,0,0,0,2.67-.51,5.58,5.58,0,0,0,3.21-3.22A8,8,0,0,0,31,24.24c.05-1.17.06-1.55.06-4.54s0-3.36-.06-4.53a8,8,0,0,0-.52-2.67,5.31,5.31,0,0,0-1.26-1.95,5.42,5.42,0,0,0-1.95-1.27,8,8,0,0,0-2.67-.51C23.4,8.72,23,8.7,20,8.7"/><path class="cls-2" d="M20,14.06a5.65,5.65,0,1,0,5.65,5.64A5.64,5.64,0,0,0,20,14.06m0,9.31a3.67,3.67,0,1,1,3.67-3.67A3.66,3.66,0,0,1,20,23.37"/><path class="cls-2" d="M27.23,13.83a1.32,1.32,0,1,1-1.32-1.32,1.32,1.32,0,0,1,1.32,1.32"/></svg>