<svg id="Capa_1" data-name="Capa 1" xmlns="http://www.w3.org/2000/svg" viewBox="0 0 300 300"><defs><style>.cls-1{fill:#76c0b4;}.cls-2,.cls-3{fill:#fff;stroke:#fff;stroke-miterlimit:10;}.cls-2{stroke-width:1.35px;}.cls-3{font-size:33.73px;stroke-width:1.34px;font-family:Lato-Black, Lato;}</style></defs><title>logo_og</title><rect class="cls-1" x="-2.97" y="-3.1" width="306" height="307.27"/><path class="cls-2" d="M220.85,91.52c-.58.9-1.2,1.79-1.89,2.66a5.17,5.17,0,0,1-2.72,1.74,89.21,89.21,0,1,1-151,78.14H65.1c-2.09,0-4.18.07-6.27.15a95.6,95.6,0,1,0,162-82.7Z"/><path class="cls-2" d="M153.22,79.78A79.25,79.25,0,1,0,232.47,159,79.34,79.34,0,0,0,153.22,79.78Zm0,152.13A72.88,72.88,0,1,1,226.09,159,73,73,0,0,1,153.22,231.91Z"/><path class="cls-2" d="M200.1,202.19a2.81,2.81,0,0,0-.08-.31,2.47,2.47,0,0,0-.1-.29s0-.09,0-.13l-24.86-54a3.22,3.22,0,0,0-1-1.2,24.91,24.91,0,0,0-3.53-4.5,24.44,24.44,0,0,0-4.49-3.51,3.23,3.23,0,0,0-1.2-1l-54-24.86-.11,0a2,2,0,0,0-.32-.11l-.29-.08-.31,0-.3,0-.31,0-.31,0-.29.08a2.44,2.44,0,0,0-.32.11l-.11,0-.09.06a2.72,2.72,0,0,0-.64.42l-.06,0a3.05,3.05,0,0,0-.52.61l-.11.18c0,.08-.1.16-.14.25a2.83,2.83,0,0,0-.11.31c0,.07,0,.14-.07.22a3.1,3.1,0,0,0-.12.8v0a3,3,0,0,0,.11.77,1.83,1.83,0,0,0,.08.25,1.42,1.42,0,0,0,.1.29l24.86,54a3.11,3.11,0,0,0,1,1.2,24.35,24.35,0,0,0,3.52,4.49,24.8,24.8,0,0,0,4.52,3.54,3.21,3.21,0,0,0,1.18,1l54,24.86.12,0,.31.11.29.07.31,0,.3,0,.31,0,.31,0,.29-.07.31-.11.11,0a1.29,1.29,0,0,0,.16-.09l.28-.16.25-.19.23-.21.21-.23.18-.24a2.75,2.75,0,0,0,.17-.29l.09-.15s0-.08,0-.12.07-.2.11-.31a2.46,2.46,0,0,0,.07-.29c0-.1,0-.21,0-.31s0-.2,0-.3,0-.21,0-.32A1.36,1.36,0,0,0,200.1,202.19ZM129.82,151.9,116,121.77l30.15,13.88a24.43,24.43,0,0,0-16.29,16.25Zm10.62,19.92a18.08,18.08,0,1,1,25.56,0A18,18,0,0,1,140.44,171.82Zm19.89,10.6a24.49,24.49,0,0,0,16.29-16.25l13.86,30.13Z"/><path class="cls-2" d="M153.07,108.51a3.19,3.19,0,0,0,3.19-3.19V95a3.19,3.19,0,1,0-6.37,0v10.36A3.18,3.18,0,0,0,153.07,108.51Z"/><path class="cls-2" d="M153.22,208.91A3.18,3.18,0,0,0,150,212.1v10.36a3.19,3.19,0,0,0,6.37,0V212.1A3.18,3.18,0,0,0,153.22,208.91Z"/><path class="cls-2" d="M203.35,158.64a3.18,3.18,0,0,0,3.18,3.18h10.36a3.19,3.19,0,1,0,0-6.37H206.53A3.18,3.18,0,0,0,203.35,158.64Z"/><path class="cls-2" d="M99.76,155.59H89.4a3.19,3.19,0,1,0,0,6.37H99.76a3.19,3.19,0,0,0,0-6.37Z"/><text class="cls-3" transform="matrix(0.09, -1, 1, 0.09, 63.5, 161.54)">E</text><text class="cls-3" transform="matrix(0.41, -0.91, 0.91, 0.41, 66.99, 133.72)">X</text><text class="cls-3" transform="matrix(0.69, -0.72, 0.72, 0.69, 81.9, 104.45)">P</text><text class="cls-3" transform="translate(104.29 83.82) rotate(-27.65)">L</text><text class="cls-3" transform="matrix(0.99, -0.15, 0.15, 0.99, 126.85, 72.57)">O</text><text class="cls-3" transform="translate(162.43 69.38) rotate(12.66)">R</text><text class="cls-3" transform="translate(192.59 77.92) rotate(31.21)">E</text></svg>