<svg id="Capa_1" data-name="Capa 1" xmlns="http://www.w3.org/2000/svg" viewBox="0 0 170 170"><defs><style>.cls-1,.cls-2{fill:#fff;stroke:#fff;stroke-miterlimit:10;}.cls-2{font-size:25px;font-family:Lato-Black, Lato;}</style></defs><title>logo</title><path class="cls-1" d="M140.51,42a21.6,21.6,0,0,1-1.41,2,3.72,3.72,0,0,1-2,1.29,66.12,66.12,0,1,1-111.9,57.92h-.12c-1.55,0-3.1,0-4.65.11A70.86,70.86,0,1,0,140.51,42Z"/><path class="cls-1" d="M90.38,33.27A58.74,58.74,0,1,0,149.12,92,58.81,58.81,0,0,0,90.38,33.27Zm0,112.76a54,54,0,1,1,54-54A54.08,54.08,0,0,1,90.38,146Z"/><path class="cls-1" d="M125.13,124l-.06-.23a2,2,0,0,0-.08-.22.32.32,0,0,0,0-.09l-18.42-40a2.37,2.37,0,0,0-.73-.89,17.58,17.58,0,0,0-5.94-5.94,2.45,2.45,0,0,0-.89-.73L58.93,57.43l-.08,0-.24-.08-.21,0a.91.91,0,0,0-.23,0l-.23,0-.22,0a.85.85,0,0,0-.23,0l-.21,0L57,57.4a.32.32,0,0,1-.09,0l-.06,0a1.88,1.88,0,0,0-.48.31l0,0a2.11,2.11,0,0,0-.39.45l-.08.14c0,.06-.08.11-.11.18a2,2,0,0,0-.07.23l-.06.16a2.47,2.47,0,0,0-.08.6h0a2.24,2.24,0,0,0,.08.57l.06.19c0,.07,0,.14.07.21l18.43,40.05a2.37,2.37,0,0,0,.73.89,18.41,18.41,0,0,0,2.61,3.33,18.06,18.06,0,0,0,3.35,2.62,2.46,2.46,0,0,0,.87.72l40,18.43.09,0a.9.9,0,0,0,.23.08.79.79,0,0,0,.22.06,1.66,1.66,0,0,0,.22,0l.23,0,.23,0,.23,0a.83.83,0,0,0,.21-.06l.23-.07.09,0,.11-.07.21-.12a1.41,1.41,0,0,0,.18-.14l.17-.15.16-.18a1.18,1.18,0,0,0,.13-.18,1.48,1.48,0,0,0,.13-.21l.07-.11a.32.32,0,0,1,0-.09c0-.07.05-.15.08-.23a1.6,1.6,0,0,0,.05-.21,2.08,2.08,0,0,0,0-.23,1.8,1.8,0,0,0,0-.22,2.29,2.29,0,0,0,0-.25A1.49,1.49,0,0,0,125.13,124ZM73,86.73,62.76,64.4,85.11,74.68A18.15,18.15,0,0,0,73,86.73Zm7.87,14.76a13.4,13.4,0,1,1,18.94,0A13.29,13.29,0,0,1,80.91,101.49Zm14.74,7.86a18.14,18.14,0,0,0,12.08-12L118,119.63Z"/><path class="cls-1" d="M90.27,54.56a2.36,2.36,0,0,0,2.37-2.36V44.52a2.37,2.37,0,0,0-4.73,0V52.2A2.36,2.36,0,0,0,90.27,54.56Z"/><path class="cls-1" d="M90.38,129A2.36,2.36,0,0,0,88,131.34V139a2.36,2.36,0,1,0,4.72,0v-7.68A2.36,2.36,0,0,0,90.38,129Z"/><path class="cls-1" d="M127.54,91.72a2.35,2.35,0,0,0,2.36,2.36h7.68a2.36,2.36,0,0,0,0-4.72H129.9A2.36,2.36,0,0,0,127.54,91.72Z"/><path class="cls-1" d="M50.75,89.46H43.08a2.37,2.37,0,1,0,0,4.73h7.67a2.37,2.37,0,1,0,0-4.73Z"/><text class="cls-2" transform="translate(23.82 93.78) rotate(-84.99)">E</text><text class="cls-2" transform="matrix(0.41, -0.91, 0.91, 0.41, 26.44, 73.17)">X</text><text class="cls-2" transform="translate(37.48 51.53) rotate(-45.97)">P</text><text class="cls-2" transform="matrix(0.89, -0.46, 0.46, 0.89, 54.06, 36.25)">L</text><text class="cls-2" transform="translate(70.76 27.92) rotate(-8.45)">O</text><text class="cls-2" transform="matrix(0.98, 0.22, -0.22, 0.98, 97.07, 25.55)">R</text><text class="cls-2" transform="translate(119.44 31.85) rotate(31.15)">E</text></svg>