<svg id="Capa_1" data-name="Capa 1" xmlns="http://www.w3.org/2000/svg" viewBox="0 0 80 80"><defs><style>.cls-1{fill:#88b773;}</style></defs><title>preferencias</title><rect class="cls-1" x="49.57" y="17.67" width="3.62" height="1.47"/><path class="cls-1" d="M64.92,18.41a4.84,4.84,0,1,0-4.84,4.83A4.84,4.84,0,0,0,64.92,18.41Zm-4.84,3.36a3.36,3.36,0,1,1,3.36-3.36A3.37,3.37,0,0,1,60.08,21.77Z"/><rect class="cls-1" x="59.35" y="7.9" width="1.47" height="3.62"/><rect class="cls-1" x="53.2" y="10.45" width="1.47" height="3.62" transform="translate(7.13 41.72) rotate(-45)"/><rect class="cls-1" x="52.12" y="23.82" width="3.62" height="1.47" transform="translate(-1.57 45.33) rotate(-45)"/><rect class="cls-1" x="59.35" y="25.29" width="1.47" height="3.62"/><rect class="cls-1" x="65.5" y="22.75" width="1.47" height="3.62" transform="translate(2.03 54.03) rotate(-45)"/><rect class="cls-1" x="66.97" y="17.67" width="3.62" height="1.47"/><rect class="cls-1" x="64.42" y="11.52" width="3.62" height="1.47" transform="translate(10.73 50.42) rotate(-45)"/><path class="cls-1" d="M43.49,62.94l.77-1.25a28.27,28.27,0,0,0-8.63-3.5A22.23,22.23,0,0,1,51,53.59l.13-1.47a23.4,23.4,0,0,0-17.41,5.71A36.5,36.5,0,0,0,19,58.77V55.42H23.1a2,2,0,0,0,2-2V46.27a2.18,2.18,0,0,0-4.36,0v4.8H19V36a2.72,2.72,0,1,0-5.43,0V42.7H11.72V39.85a2.18,2.18,0,1,0-4.35,0V45a2,2,0,0,0,2,2h4.14V60.54a45.42,45.42,0,0,0-7.87,3.92l.82,1.22C6.69,65.55,26.49,52.54,43.49,62.94Zm-30-17.36H9.4A.56.56,0,0,1,8.84,45V39.85a.71.71,0,1,1,1.41,0v4.32h3.28Zm8.72,7V46.27a.71.71,0,0,1,.71-.71.7.7,0,0,1,.7.71v7.12a.56.56,0,0,1-.56.56H19V52.54ZM15,36a1.25,1.25,0,1,1,2.49,0V51.07h0v4.35h0v3.76c-.86.26-1.7.53-2.49.81V36Z"/><path class="cls-1" d="M75.67,57.53a31.55,31.55,0,0,0-5.54-2.67V53.48a2.18,2.18,0,0,0-4.36,0v8.43H64V38.66a2.72,2.72,0,0,0-5.44,0V51H56.71V46.34a2.18,2.18,0,1,0-4.35,0v7a2,2,0,0,0,2,2h4.13V70.92H6.8v1.47H74.55V70.92H64V66.26h4.13a2,2,0,0,0,2-2v-7.8a30.26,30.26,0,0,1,4.74,2.34ZM54.39,53.88a.57.57,0,0,1-.56-.57v-7a.7.7,0,0,1,.7-.7.7.7,0,0,1,.71.7v6.13h3.28v1.41Zm8.1,17H60V38.66a1.25,1.25,0,1,1,2.49,0V70.92Zm6.16-6.69a.56.56,0,0,1-.56.56H64V63.38h3.28v-9.9a.71.71,0,0,1,.71-.7.7.7,0,0,1,.7.7Z"/><path class="cls-1" d="M25.67,21.72H38.61l.11-.61a5.51,5.51,0,0,0-5.43-6.51,5.52,5.52,0,0,0-3.07.93A7.27,7.27,0,0,0,23.1,9.66a7.15,7.15,0,0,0-6,3.12,7.28,7.28,0,0,0-1.27,4.65,4.25,4.25,0,0,0-2.8-.17A4.18,4.18,0,0,0,10,20.9l-.09.82h10V20.24H11.66a2.76,2.76,0,0,1,1.8-1.56,2.73,2.73,0,0,1,2.95,1L17,19.2l.69-.26a5.8,5.8,0,0,1,.67-5.32,5.69,5.69,0,0,1,4.75-2.49,5.79,5.79,0,0,1,5.78,5.78v2.16l1.3-1.55a4.06,4.06,0,0,1,6.23,0,4,4,0,0,1,.93,2.71H25.67Z"/><rect class="cls-1" x="21.55" y="20.24" width="2.61" height="1.47"/><rect class="cls-1" x="40.67" y="39.71" width="2.06" height="1.47"/><path class="cls-1" d="M44,41.18h8.07L52,40.36a3.52,3.52,0,0,0-4.62-3A5.86,5.86,0,0,0,35.79,35.9a4.51,4.51,0,0,0-6.74,4.68l.11.6H39.47V39.71h-9a3,3,0,0,1,5.37-1.88l1.3,1.54V37.24a4.39,4.39,0,1,1,8.51,1.54l1.27.71a2,2,0,0,1,3.36.22H44Z"/><rect class="cls-1" x="11.19" y="67.41" width="2.46" height="1.47"/><rect class="cls-1" x="15.66" y="63.44" width="2.46" height="1.47"/><rect class="cls-1" x="21.94" y="66.85" width="2.46" height="1.47"/><rect class="cls-1" x="23.75" y="60.87" width="2.46" height="1.47"/><rect class="cls-1" x="32.79" y="67.72" width="2.46" height="1.47"/><rect class="cls-1" x="28.48" y="64.33" width="2.46" height="1.47"/><rect class="cls-1" x="36.5" y="63.05" width="2.46" height="1.47"/><rect class="cls-1" x="41.33" y="67.72" width="2.46" height="1.47"/><rect class="cls-1" x="46.4" y="64" width="2.46" height="1.47"/><rect class="cls-1" x="52.56" y="67.72" width="2.46" height="1.47"/><rect class="cls-1" x="68.62" y="68.07" width="2.46" height="1.47"/><rect class="cls-1" x="72.09" y="60.87" width="2.46" height="1.47"/><rect class="cls-1" x="51.09" y="61.97" width="2.46" height="1.47"/><rect class="cls-1" x="44.33" y="56.53" width="2.46" height="1.47"/><rect class="cls-1" x="54.44" y="58.05" width="2.46" height="1.47"/></svg>