<svg id="Capa_1" data-name="Capa 1" xmlns="http://www.w3.org/2000/svg" viewBox="0 0 80 80"><defs><style>.cls-1{fill:#88b773;}</style></defs><title>preferencias</title><rect class="cls-1" x="6.09" y="73.61" width="68.21" height="1.48"/><rect class="cls-1" x="6.09" y="67.61" width="2.33" height="1.48"/><rect class="cls-1" x="11.16" y="67.61" width="2.33" height="1.48"/><rect class="cls-1" x="16.23" y="67.61" width="2.33" height="1.48"/><rect class="cls-1" x="21.29" y="67.61" width="2.33" height="1.48"/><rect class="cls-1" x="26.36" y="67.61" width="2.33" height="1.48"/><rect class="cls-1" x="31.43" y="67.61" width="2.33" height="1.48"/><rect class="cls-1" x="36.5" y="67.61" width="2.33" height="1.48"/><rect class="cls-1" x="41.57" y="67.61" width="2.33" height="1.48"/><rect class="cls-1" x="46.63" y="67.61" width="2.33" height="1.48"/><rect class="cls-1" x="51.7" y="67.61" width="2.33" height="1.48"/><rect class="cls-1" x="56.77" y="67.61" width="2.33" height="1.48"/><rect class="cls-1" x="61.84" y="67.61" width="2.33" height="1.48"/><rect class="cls-1" x="66.91" y="67.61" width="2.33" height="1.48"/><rect class="cls-1" x="71.97" y="67.61" width="2.33" height="1.48"/><path class="cls-1" d="M74.3,61.61H69.93V57.76h2.4V53.7H68.4V51.26h3.19V49.77H68.4v-.88h3.19V47.4H68.4v-.88h3.19V45H47.8v1.49h3.45v.88H47.8v1.49h3.45v.88H47.8v1.49h3.45V53.7H47.06v4.06h2.66v3.85H25.85A3.5,3.5,0,0,0,21,59.32a4.36,4.36,0,0,0-8,2.29H6.09v1.48H74.3ZM17.35,58.77A2.87,2.87,0,0,1,20,60.63a.75.75,0,0,0,1.17.32,2,2,0,0,1,3,.58H14.48A2.88,2.88,0,0,1,17.35,58.77ZM52.74,46.52H66.92v.88H52.74Zm0,2.37H66.92v.88H52.74Zm0,2.37H66.92V53.7H52.74Zm-4.2,5V55.18h22.3v1.09Zm2.66,5.34V57.76h1.59v3.85Zm3.07,0V57.76H65.38v3.85Zm12.6,0V57.76h1.58v3.85Z"/><path class="cls-1" d="M5.68,58.77c1.48-.7,3-1.38,4.63-2.07h0A98.06,98.06,0,0,1,31.42,51a66.73,66.73,0,0,1,15-.8l.1-1.48c-.87,0-1.73-.08-2.6-.1v-29H32V16.9H29.21V12.48h-3A5.61,5.61,0,0,0,21.4,7.66V5.05H19.92V7.66a5.63,5.63,0,0,0-4.82,4.82h-3V16.9H9.28V55.52c-1.48.64-2.87,1.26-4.23,1.91Zm15-49.68a4.13,4.13,0,0,1,4.06,3.39H16.6A4.14,4.14,0,0,1,20.66,9.09ZM13.6,14H27.73V16.9H13.6ZM42.49,21.1V48.6A70.1,70.1,0,0,0,32,49.41V21.1ZM10.77,18.38H30.56V49.64a101.16,101.16,0,0,0-19.79,5.27Z"/><path class="cls-1" d="M12,24.77h4.82V19.62H12Zm1.48-3.67h1.85v2.19H13.51Z"/><path class="cls-1" d="M18.25,24.77h4.82V19.62H18.25Zm1.49-3.67h1.85v2.19H19.74Z"/><path class="cls-1" d="M24.48,24.77H29.3V19.62H24.48ZM26,21.1h1.85v2.19H26Z"/><path class="cls-1" d="M12,31.71h4.82V26.56H12ZM13.51,28h1.85v2.19H13.51Z"/><path class="cls-1" d="M18.25,31.71h4.82V26.56H18.25ZM19.74,28h1.85v2.19H19.74Z"/><path class="cls-1" d="M24.48,31.71H29.3V26.56H24.48ZM26,28h1.85v2.19H26Z"/><path class="cls-1" d="M12,38.65h4.82V33.5H12ZM13.51,35h1.85v2.19H13.51Z"/><path class="cls-1" d="M18.25,38.65h4.82V33.5H18.25ZM19.74,35h1.85v2.19H19.74Z"/><path class="cls-1" d="M24.48,38.65H29.3V33.5H24.48ZM26,35h1.85v2.19H26Z"/><path class="cls-1" d="M12,45.59h4.82V40.44H12Zm1.48-3.67h1.85v2.19H13.51Z"/><path class="cls-1" d="M18.25,45.59h4.82V40.44H18.25Zm1.49-3.67h1.85v2.19H19.74Z"/><path class="cls-1" d="M24.48,45.59H29.3V40.44H24.48ZM26,41.92h1.85v2.19H26Z"/><polygon class="cls-1" points="12.03 51.79 13.51 51.79 13.51 48.86 15.36 48.86 15.36 50.23 16.85 50.23 16.85 47.38 12.03 47.38 12.03 51.79"/><polygon class="cls-1" points="18.25 50.77 19.74 50.77 19.74 48.86 22.33 48.86 22.33 47.38 18.25 47.38 18.25 50.77"/><polygon class="cls-1" points="24.48 49.77 25.96 49.77 25.96 48.86 28.55 48.86 28.55 47.38 24.48 47.38 24.48 49.77"/><rect class="cls-1" x="14.6" y="14.74" width="1.48" height="1.53"/><rect class="cls-1" x="17.26" y="14.74" width="1.48" height="1.53"/><rect class="cls-1" x="19.92" y="14.74" width="1.48" height="1.53"/><rect class="cls-1" x="22.58" y="14.74" width="1.48" height="1.53"/><rect class="cls-1" x="25.24" y="14.74" width="1.48" height="1.53"/><rect class="cls-1" x="33.78" y="23.29" width="6.98" height="1.48"/><rect class="cls-1" x="33.78" y="26.82" width="6.98" height="1.48"/><rect class="cls-1" x="33.78" y="30.35" width="6.98" height="1.48"/><rect class="cls-1" x="33.78" y="33.88" width="6.98" height="1.48"/><rect class="cls-1" x="33.78" y="37.41" width="6.98" height="1.48"/><rect class="cls-1" x="33.78" y="40.94" width="6.98" height="1.48"/><rect class="cls-1" x="33.78" y="44.47" width="6.98" height="1.48"/><path class="cls-1" d="M44.75,21.47V23h1.9l.07-.67a5.3,5.3,0,0,1,10.54,0l.07.67h3.19a2.61,2.61,0,0,1,0,5.22h-6v1.48h6a4.1,4.1,0,1,0,0-8.19H58.63a6.79,6.79,0,0,0-13.28,0Z"/><rect class="cls-1" x="44.84" y="28.18" width="4.56" height="1.48"/><rect class="cls-1" x="51.2" y="28.18" width="1.48" height="1.48"/><path class="cls-1" d="M67.15,16.52a3.72,3.72,0,1,0-3.72-3.72A3.72,3.72,0,0,0,67.15,16.52Zm0-5.95a2.24,2.24,0,1,1-2.23,2.23A2.23,2.23,0,0,1,67.15,10.57Z"/><rect class="cls-1" x="66.41" y="4.91" width="1.48" height="3.04"/><rect class="cls-1" x="61.91" y="6.77" width="1.48" height="3.04" transform="translate(12.49 46.74) rotate(-45.01)"/><rect class="cls-1" x="59.26" y="12.06" width="3.04" height="1.48"/><rect class="cls-1" x="61.13" y="16.57" width="3.04" height="1.48" transform="translate(6.11 49.37) rotate(-45)"/><rect class="cls-1" x="66.42" y="17.66" width="1.48" height="3.04"/><rect class="cls-1" x="70.92" y="15.79" width="1.48" height="3.04" transform="translate(8.75 55.73) rotate(-44.99)"/><rect class="cls-1" x="72.01" y="12.06" width="3.04" height="1.48"/><rect class="cls-1" x="70.14" y="7.55" width="3.04" height="1.48" transform="translate(15.12 53.1) rotate(-45)"/><path class="cls-1" d="M42.49,15.49H44a2.69,2.69,0,0,1,2.61-2.61V11.4a3.76,3.76,0,0,0-3.35,1.8,3.78,3.78,0,0,0-3.35-1.8v1.49A2.69,2.69,0,0,1,42.49,15.49Z"/><path class="cls-1" d="M33.62,8.51H35.1c0-.18.21-1.77,1.76-1.77V5.26a3,3,0,0,0-2.5,1.19,3,3,0,0,0-2.5-1.19V6.74A1.83,1.83,0,0,1,33.62,8.51Z"/><path class="cls-1" d="M35.09,54.88a2.47,2.47,0,0,1,2.3,1.59.73.73,0,0,0,.5.45.71.71,0,0,0,.66-.14A1.7,1.7,0,0,1,41.3,58l1.47-.12a3.17,3.17,0,0,0-4.39-2.66A3.93,3.93,0,0,0,31.22,58l1.46-.26A2.45,2.45,0,0,1,35.09,54.88Z"/></svg>