<?xml version="1.0" encoding="utf-8"?>
<!-- Generator: Adobe Illustrator 22.1.0, SVG Export Plug-In . SVG Version: 6.00 Build 0)  -->
<svg version="1.1" id="Capa_1" xmlns="http://www.w3.org/2000/svg" xmlns:xlink="http://www.w3.org/1999/xlink" x="0px" y="0px"
	 viewBox="0 0 80 80" style="enable-background:new 0 0 80 80;" xml:space="preserve">
<style type="text/css">
	.st0{fill:#76C0B4;}
</style>
<title>preferencias</title>
<rect x="28.2" y="28.6" class="st0" width="4" height="1.5"/>
<rect x="28.2" y="32.5" class="st0" width="4" height="1.5"/>
<rect x="35.2" y="28.6" class="st0" width="4" height="1.5"/>
<rect x="35.2" y="32.5" class="st0" width="4" height="1.5"/>
<rect x="42.1" y="28.6" class="st0" width="4" height="1.5"/>
<rect x="42.1" y="32.5" class="st0" width="4" height="1.5"/>
<rect x="49.1" y="28.6" class="st0" width="4" height="1.5"/>
<rect x="49.1" y="32.5" class="st0" width="4" height="1.5"/>
<rect x="37.9" y="18.6" class="st0" width="5.6" height="1.5"/>
<rect x="37.9" y="22.1" class="st0" width="5.6" height="1.5"/>
<path class="st0" d="M19.8,75.3c2.6,0,5-0.9,7-2.5c2,1.7,4.4,2.5,7,2.5c2.6,0,5-0.9,7-2.5c4,3.4,9.9,3.4,13.9,0
	c4,3.4,9.9,3.4,13.9,0c2,1.6,4.4,2.5,7,2.5v-1.5c-2.7,0-5.2-1.1-7-3.1c-1.8,2-4.3,3.1-7,3.1c-2.7,0-5.2-1.1-7-3.1
	c-3.5,3.8-9.5,4.1-13.3,0.6c-0.2-0.2-0.4-0.4-0.6-0.6c-3.5,3.8-9.5,4.1-13.3,0.6c-0.2-0.2-0.4-0.4-0.6-0.6c-1.8,2-4.3,3.1-7,3.1
	c-2.7,0-5.2-1.1-7-3.1c-1.8,1.9-4.3,3.1-7,3.1v1.5c2.6,0,5-0.9,7-2.5C14.7,74.4,17.2,75.3,19.8,75.3z"/>
<path class="st0" d="M19.8,70.1c2.6,0,5-0.9,7-2.5c4,3.4,9.9,3.4,13.9,0c4,3.4,9.9,3.4,13.9,0c4,3.4,9.9,3.4,13.9,0
	c2,1.6,4.4,2.5,7,2.5v-1.5c-2.7,0-5.2-1.1-7-3.1c-1.8,2-4.3,3.1-7,3.1c-2.7,0-5.2-1.1-7-3.1c-1.8,2-4.3,3.1-7,3.1
	c-2.7,0-5.2-1.1-7-3.1c-3.5,3.8-9.5,4.1-13.3,0.6c-0.2-0.2-0.4-0.4-0.6-0.6c-1.8,1.9-4.3,3.1-7,3.1c-2.7,0-5.2-1.1-7-3.1
	c-1.8,1.9-4.3,3.1-7,3.1v1.5c2.6,0,5-0.9,7-2.5C14.6,69.2,17.2,70.1,19.8,70.1z"/>
<path class="st0" d="M19.8,64.9c2.6,0,5-0.9,7-2.5c2,1.7,4.4,2.5,7,2.5c2.6,0,5-0.9,7-2.5c4,3.4,9.9,3.4,13.9,0
	c4,3.4,9.9,3.4,13.9,0c2,1.6,4.4,2.5,7,2.5v-1.5c-2.7,0-5.2-1.1-7-3.1c-3.5,3.8-9.5,4.1-13.3,0.6c-0.2-0.2-0.4-0.4-0.6-0.6l-0.4,0.4
	l4.9-15.5l-1.9-1.1V25.6h-9.3V15.1H33.3v10.5h-9.2v18.6l-1.9,1.1l5.1,15.6l-0.6-0.5c-1.8,2-4.3,3.1-7,3.1c-2.7,0-5.2-1.1-7-3.1
	c-1.8,2-4.3,3.1-7,3.1v1.5c2.6,0,5-0.9,7-2.5C14.7,64.1,17.2,65,19.8,64.9z M57.3,46l-5.2,16.3c-3.5,1.9-7.8,1.4-10.7-1.2V36.7
	L57.3,46z M34.8,16.6h11.8v9H34.8V16.6z M25.6,27.1h30.1v16.2l-15.1-8.7l-15.1,8.7V27.1z M24,46l15.9-9.2V61
	c-2.9,2.6-7.1,3.1-10.5,1.3L24,46z"/>
<path class="st0" d="M16.5,19.1c2.7,0,4.8-2.2,4.8-4.8c0-2.7-2.2-4.8-4.8-4.8s-4.8,2.2-4.8,4.8v0C11.7,16.9,13.9,19.1,16.5,19.1z
	 M16.5,11c1.8,0,3.3,1.5,3.3,3.3s-1.5,3.3-3.3,3.3s-3.3-1.5-3.3-3.3C13.2,12.5,14.7,11,16.5,11L16.5,11z"/>
<rect x="15.8" y="3.7" class="st0" width="1.5" height="3.4"/>
<rect x="9.5" y="6.3" transform="matrix(0.7071 -0.7071 0.7071 0.7071 -2.6605 9.589)" class="st0" width="1.5" height="3.4"/>
<rect x="5.9" y="13.5" class="st0" width="3.4" height="1.5"/>
<rect x="8.5" y="19.8" transform="matrix(0.7071 -0.7071 0.7071 0.7071 -11.5394 13.2561)" class="st0" width="3.4" height="1.5"/>
<rect x="15.8" y="21.4" class="st0" width="1.5" height="3.4"/>
<rect x="22" y="18.8" transform="matrix(0.7071 -0.7071 0.7071 0.7071 -7.8594 22.132)" class="st0" width="1.5" height="3.4"/>
<rect x="23.7" y="13.5" class="st0" width="3.4" height="1.5"/>
<rect x="21.1" y="7.3" transform="matrix(0.7071 -0.7071 0.7071 0.7071 1.0095 18.4549)" class="st0" width="3.4" height="1.5"/>
<path class="st0" d="M35.9,47.8c0-1.9-1.5-3.4-3.4-3.4S29,45.9,29,47.8c0,1.9,1.5,3.4,3.4,3.4c0,0,0,0,0,0
	C34.3,51.2,35.9,49.7,35.9,47.8z M32.4,49.7c-1.1,0-1.9-0.9-1.9-1.9s0.9-1.9,1.9-1.9c1.1,0,1.9,0.9,1.9,1.9S33.5,49.7,32.4,49.7
	L32.4,49.7z"/>
<path class="st0" d="M47.9,44.3c-1.9,0-3.4,1.5-3.4,3.4s1.5,3.4,3.4,3.4s3.4-1.5,3.4-3.4c0,0,0,0,0,0C51.3,45.9,49.8,44.3,47.9,44.3
	z M47.9,49.7c-1.1,0-1.9-0.9-1.9-1.9s0.9-1.9,1.9-1.9s1.9,0.9,1.9,1.9C49.8,48.8,48.9,49.7,47.9,49.7C47.9,49.7,47.9,49.7,47.9,49.7
	z"/>
<path class="st0" d="M73.4,25.6v-1.5c-1.9-0.1-3.6,1-4.5,2.6c-0.9-1.7-2.6-2.7-4.5-2.6v1.5c3.4,0,3.7,3.6,3.8,3.7h1.5
	C69.7,29.2,70,25.6,73.4,25.6z"/>
<path class="st0" d="M13.5,49.7C12.7,48,10.9,46.9,9,47v1.5c3.4,0,3.7,3.6,3.8,3.7h1.5c0-0.2,0.4-3.7,3.8-3.7V47
	C16.1,47,14.4,48,13.5,49.7z"/>
<path class="st0" d="M60.1,39c4.1,0,4.6,4.4,4.6,4.5h1.5c0-0.2,0.4-4.5,4.6-4.5v-1.5c-2.3-0.1-4.4,1.2-5.3,3.3
	c-0.9-2.1-3.1-3.4-5.3-3.3C60.1,37.5,60.1,39,60.1,39z"/>
<rect x="16" y="39.5" class="st0" width="1.5" height="1.5"/>
<rect x="19.8" y="39.5" class="st0" width="2.5" height="1.5"/>
<path class="st0" d="M17.6,29.4c-2.4,0-4.6,1.6-5.3,4c-2.1-0.5-4.2,0.7-4.7,2.7c-0.5,2.1,0.7,4.2,2.7,4.7c0.3,0.1,0.7,0.1,1,0.1h2.5
	v-1.5h-2.5C10,39.5,9,38.5,9,37.1c0-1.3,1.1-2.4,2.4-2.4c0,0,0,0,0,0c0.4,0,0.8,0.1,1.2,0.3c0.4,0.2,0.8,0.1,1-0.2
	c0.1-0.1,0.1-0.2,0.1-0.3c0.2-2.2,2-3.8,4.2-3.6c1.9,0.1,3.4,1.6,3.6,3.4l1.5-0.2C22.6,31.4,20.3,29.4,17.6,29.4z"/>
<path class="st0" d="M55.6,17.7h5.7v-1.5h-5.7c-1.4,0.1-2.5-0.9-2.6-2.3c-0.1-1.4,0.9-2.5,2.3-2.6c0.1,0,0.2,0,0.3,0h3.1l0.1-0.7
	c0.1-0.4,0.3-2,1.8-3.2c0.2-0.1,2-1.6,4.3-1.1c2,0.4,3.6,2.1,4,4.3l0.1,0.7h3.1c1.4-0.1,2.5,0.9,2.6,2.3c0.1,1.4-0.9,2.5-2.3,2.6
	c-0.1,0-0.2,0-0.3,0h-5.8v1.5h5.8c2.2,0.3,4.2-1.1,4.6-3.3c0.3-2.2-1.1-4.2-3.3-4.6c-0.4-0.1-0.8-0.1-1.3,0h-1.8
	c-0.8-3.5-4.2-5.7-7.8-5c-2.5,0.5-4.4,2.5-5,5h-1.8c-2.2-0.3-4.2,1.1-4.6,3.3c-0.3,2.2,1.1,4.2,3.3,4.6
	C54.8,17.8,55.2,17.8,55.6,17.7z"/>
<rect x="63" y="16.2" class="st0" width="1.4" height="1.5"/>
</svg>
