<?xml version="1.0" encoding="utf-8"?>
<!-- Generator: Adobe Illustrator 22.1.0, SVG Export Plug-In . SVG Version: 6.00 Build 0)  -->
<svg version="1.1" id="Capa_1" xmlns="http://www.w3.org/2000/svg" xmlns:xlink="http://www.w3.org/1999/xlink" x="0px" y="0px"
	 viewBox="0 0 80 80" style="enable-background:new 0 0 80 80;" xml:space="preserve">
<style type="text/css">
	.st0{fill:#FFFFFF;}
</style>
<rect x="6.1" y="73.6" class="st0" width="68.2" height="1.5"/>
<rect x="6.1" y="67.6" class="st0" width="2.3" height="1.5"/>
<rect x="11.2" y="67.6" class="st0" width="2.3" height="1.5"/>
<rect x="16.2" y="67.6" class="st0" width="2.3" height="1.5"/>
<rect x="21.3" y="67.6" class="st0" width="2.3" height="1.5"/>
<rect x="26.4" y="67.6" class="st0" width="2.3" height="1.5"/>
<rect x="31.4" y="67.6" class="st0" width="2.3" height="1.5"/>
<rect x="36.5" y="67.6" class="st0" width="2.3" height="1.5"/>
<rect x="41.6" y="67.6" class="st0" width="2.3" height="1.5"/>
<rect x="46.6" y="67.6" class="st0" width="2.3" height="1.5"/>
<rect x="51.7" y="67.6" class="st0" width="2.3" height="1.5"/>
<rect x="56.8" y="67.6" class="st0" width="2.3" height="1.5"/>
<rect x="61.8" y="67.6" class="st0" width="2.3" height="1.5"/>
<rect x="66.9" y="67.6" class="st0" width="2.3" height="1.5"/>
<rect x="72" y="67.6" class="st0" width="2.3" height="1.5"/>
<path class="st0" d="M74.3,61.6h-4.4v-3.9h2.4v-4.1h-3.9v-2.4h3.2v-1.5h-3.2v-0.9h3.2v-1.5h-3.2v-0.9h3.2V45H47.8v1.5h3.5v0.9h-3.5
	v1.5h3.5v0.9h-3.5v1.5h3.5v2.5h-4.2v4.1h2.7v3.8H25.9c-0.5-1.9-2.4-3-4.3-2.5c-0.2,0.1-0.4,0.1-0.6,0.2c-1.3-2-4-2.6-6-1.2
	c-1.2,0.8-1.9,2.1-2,3.5H6.1v1.5h68.2V61.6z M17.4,58.8c1.2,0,2.2,0.8,2.6,1.9c0.1,0.4,0.6,0.6,1,0.4c0.1,0,0.1-0.1,0.2-0.1
	c0.9-0.7,2.1-0.6,2.8,0.3c0.1,0.1,0.1,0.2,0.2,0.3h-9.7C14.5,60,15.8,58.8,17.4,58.8z M52.7,46.5h14.2v0.9H52.7V46.5z M52.7,48.9
	h14.2v0.9H52.7V48.9z M52.7,51.3h14.2v2.4H52.7V51.3z M48.5,56.3v-1.1h22.3v1.1L48.5,56.3z M51.2,61.6v-3.8h1.6v3.8L51.2,61.6z
	 M54.3,61.6v-3.8h11.1v3.8L54.3,61.6z M66.9,61.6v-3.8h1.6v3.8L66.9,61.6z"/>
<path class="st0" d="M5.7,58.8c1.5-0.7,3-1.4,4.6-2.1l0,0c6.8-2.7,13.9-4.6,21.1-5.7c5-0.8,10-1.1,15-0.8l0.1-1.5
	c-0.9,0-1.7-0.1-2.6-0.1v-29H32v-2.7h-2.8v-4.4h-3C25.9,10,23.9,8,21.4,7.7V5h-1.5v2.6c-2.5,0.3-4.5,2.3-4.8,4.8h-3v4.4H9.3v38.6
	c-1.5,0.6-2.9,1.3-4.2,1.9L5.7,58.8z M20.7,9.1c2,0,3.7,1.4,4.1,3.4h-8.1C17,10.5,18.7,9.1,20.7,9.1L20.7,9.1z M13.6,14h14.1v2.9
	H13.6V14z M42.5,21.1v27.5c-3.5,0-7,0.3-10.5,0.8V21.1H42.5z M10.8,18.4h19.8v31.3c-6.8,1.1-13.4,2.8-19.8,5.3L10.8,18.4z"/>
<path class="st0" d="M12,24.8h4.8v-5.1H12V24.8z M13.5,21.1h1.9v2.2h-1.8L13.5,21.1z"/>
<path class="st0" d="M18.3,24.8h4.8v-5.1h-4.8V24.8z M19.7,21.1h1.9v2.2h-1.9V21.1z"/>
<path class="st0" d="M24.5,24.8h4.8v-5.1h-4.8V24.8z M26,21.1h1.9v2.2H26V21.1z"/>
<path class="st0" d="M12,31.7h4.8v-5.1H12V31.7z M13.5,28h1.9v2.2h-1.9V28z"/>
<path class="st0" d="M18.3,31.7h4.8v-5.1h-4.8V31.7z M19.7,28h1.9v2.2h-1.9V28z"/>
<path class="st0" d="M24.5,31.7h4.8v-5.1h-4.8V31.7z M26,28h1.9v2.2H26V28z"/>
<path class="st0" d="M12,38.6h4.8v-5.2H12V38.6z M13.5,35h1.9v2.2h-1.9V35z"/>
<path class="st0" d="M18.3,38.6h4.8v-5.2h-4.8V38.6z M19.7,35h1.9v2.2h-1.9V35z"/>
<path class="st0" d="M24.5,38.6h4.8v-5.2h-4.8V38.6z M26,35h1.9v2.2H26V35z"/>
<path class="st0" d="M12,45.6h4.8v-5.2H12V45.6z M13.5,41.9h1.9v2.2h-1.8L13.5,41.9z"/>
<path class="st0" d="M18.3,45.6h4.8v-5.2h-4.8V45.6z M19.7,41.9h1.9v2.2h-1.9V41.9z"/>
<path class="st0" d="M24.5,45.6h4.8v-5.2h-4.8V45.6z M26,41.9h1.9v2.2H26V41.9z"/>
<polygon class="st0" points="12,51.8 13.5,51.8 13.5,48.9 15.4,48.9 15.4,50.2 16.9,50.2 16.9,47.4 12,47.4 "/>
<polygon class="st0" points="18.3,50.8 19.7,50.8 19.7,48.9 22.3,48.9 22.3,47.4 18.3,47.4 "/>
<polygon class="st0" points="24.5,49.8 26,49.8 26,48.9 28.5,48.9 28.5,47.4 24.5,47.4 "/>
<rect x="14.6" y="14.7" class="st0" width="1.5" height="1.5"/>
<rect x="17.3" y="14.7" class="st0" width="1.5" height="1.5"/>
<rect x="19.9" y="14.7" class="st0" width="1.5" height="1.5"/>
<rect x="22.6" y="14.7" class="st0" width="1.5" height="1.5"/>
<rect x="25.2" y="14.7" class="st0" width="1.5" height="1.5"/>
<rect x="33.8" y="23.3" class="st0" width="7" height="1.5"/>
<rect x="33.8" y="26.8" class="st0" width="7" height="1.5"/>
<rect x="33.8" y="30.3" class="st0" width="7" height="1.5"/>
<rect x="33.8" y="33.9" class="st0" width="7" height="1.5"/>
<rect x="33.8" y="37.4" class="st0" width="7" height="1.5"/>
<rect x="33.8" y="40.9" class="st0" width="7" height="1.5"/>
<rect x="33.8" y="44.5" class="st0" width="7" height="1.5"/>
<path class="st0" d="M44.8,21.5V23h1.9l0.1-0.7c0.3-2.9,2.9-5,5.8-4.7c2.5,0.3,4.4,2.2,4.7,4.7l0.1,0.7h3.2c1.4,0,2.6,1.2,2.6,2.6
	c0,1.4-1.2,2.6-2.6,2.6h-6v1.5h6c2.3,0.1,4.2-1.6,4.3-3.9c0.1-2.3-1.6-4.2-3.9-4.3c-0.1,0-0.3,0-0.4,0h-1.9c-0.8-3.7-4.4-6-8.1-5.2
	c-2.6,0.6-4.7,2.6-5.2,5.2L44.8,21.5z"/>
<rect x="44.8" y="28.2" class="st0" width="4.6" height="1.5"/>
<rect x="51.2" y="28.2" class="st0" width="1.5" height="1.5"/>
<path class="st0" d="M67.2,16.5c2.1,0,3.7-1.7,3.7-3.7s-1.7-3.7-3.7-3.7c-2.1,0-3.7,1.7-3.7,3.7S65.1,16.5,67.2,16.5L67.2,16.5z
	 M67.2,10.6c1.2,0,2.2,1,2.2,2.2s-1,2.2-2.2,2.2s-2.2-1-2.2-2.2c0,0,0,0,0,0C64.9,11.6,65.9,10.6,67.2,10.6
	C67.2,10.6,67.2,10.6,67.2,10.6z"/>
<rect x="66.4" y="4.9" class="st0" width="1.5" height="3"/>
<rect x="61.9" y="6.8" transform="matrix(0.707 -0.7072 0.7072 0.707 12.4912 46.7347)" class="st0" width="1.5" height="3"/>
<rect x="59.3" y="12.1" class="st0" width="3" height="1.5"/>
<rect x="61.1" y="16.6" transform="matrix(0.7071 -0.7071 0.7071 0.7071 6.11 49.3703)" class="st0" width="3" height="1.5"/>
<rect x="66.4" y="17.7" class="st0" width="1.5" height="3"/>
<rect x="70.9" y="15.8" transform="matrix(0.7072 -0.707 0.707 0.7072 8.7445 55.7358)" class="st0" width="1.5" height="3"/>
<rect x="72" y="12.1" class="st0" width="3" height="1.5"/>
<rect x="70.1" y="7.6" transform="matrix(0.7071 -0.7071 0.7071 0.7071 15.1244 53.0947)" class="st0" width="3" height="1.5"/>
<path class="st0" d="M42.5,15.5H44c0-1.4,1.2-2.6,2.6-2.6v-1.5c-1.4-0.1-2.6,0.6-3.3,1.8c-0.7-1.2-2-1.8-3.3-1.8v1.5
	C41.3,12.9,42.4,14.1,42.5,15.5z"/>
<path class="st0" d="M33.6,8.5h1.5c0-0.2,0.2-1.8,1.8-1.8V5.3c-1,0-1.9,0.4-2.5,1.2c-0.6-0.8-1.5-1.2-2.5-1.2v1.5
	C32.8,6.8,33.6,7.5,33.6,8.5z"/>
<path class="st0" d="M35.1,54.9c1,0,1.9,0.6,2.3,1.6c0.1,0.2,0.3,0.4,0.5,0.5c0.2,0.1,0.5,0,0.7-0.1c0.7-0.6,1.8-0.5,2.4,0.3
	c0.2,0.3,0.3,0.6,0.4,0.9l1.5-0.1c-0.1-1.7-1.7-3-3.4-2.9c-0.3,0-0.7,0.1-1,0.2c-1.2-1.8-3.6-2.3-5.4-1.1c-1.3,0.8-2,2.4-1.7,3.9
	l1.5-0.3c-0.2-1.3,0.7-2.6,2-2.8C34.8,54.9,35,54.9,35.1,54.9z"/>
</svg>
