<svg id="Capa_1" data-name="Capa 1" xmlns="http://www.w3.org/2000/svg" viewBox="0 0 80 80"><defs><style>.cls-1{fill:#76c0b4;}</style></defs><title>preferencias</title><path class="cls-1" d="M6.86,75.45A10.63,10.63,0,0,0,13.71,73a10.68,10.68,0,0,0,13.71,0,10.65,10.65,0,0,0,13.7,0,10.63,10.63,0,0,0,13.7,0,10.63,10.63,0,0,0,13.7,0,10.64,10.64,0,0,0,6.85,2.5V74A9.14,9.14,0,0,1,69,71.43l-.51-.49-.51.49a9.18,9.18,0,0,1-12.68,0l-.51-.49-.51.49a9.18,9.18,0,0,1-12.68,0l-.51-.49-.51.49a9.18,9.18,0,0,1-12.68,0L27.42,71l-.51.48a9.2,9.2,0,0,1-12.69,0L13.71,71l-.51.48A9.14,9.14,0,0,1,6.86,74Z"/><path class="cls-1" d="M20.56,71.69a10.68,10.68,0,0,0,6.86-2.49,10.67,10.67,0,0,0,13.7,0,10.67,10.67,0,0,0,13.7,0,10.67,10.67,0,0,0,13.7,0,10.63,10.63,0,0,0,6.85,2.49V70.21A9.14,9.14,0,0,1,69,67.67l-.51-.48-.51.48a9.18,9.18,0,0,1-12.68,0l-.51-.48-.51.48a9.18,9.18,0,0,1-12.68,0l-.51-.48-.51.48a9.2,9.2,0,0,1-12.68,0l-.51-.49-.51.49a9.22,9.22,0,0,1-12.69,0l-.51-.49-.51.49a9.18,9.18,0,0,1-6.34,2.53v1.48a10.63,10.63,0,0,0,6.85-2.49A10.63,10.63,0,0,0,20.56,71.69Z"/><path class="cls-1" d="M14.48,11.71v4.13l2.22,1.4,3.78-1.74v3.41a13,13,0,0,0-10.19,3.78C5.53,27.24,4.46,34.57,8.74,39l.51.53L14,35c0-.08-1-4.18-.94-3.93l4,1,2-2c0-.07-1-4.18-.94-3.93l4,1,1.78-1.71c-2.28,6.19-3.1,16.22,2.93,31.42-7.53,1.49-12.81,4.15-14,7.32a9.16,9.16,0,0,1-6,2.24v1.48a10.63,10.63,0,0,0,6.68-2.36h.35a10.65,10.65,0,0,0,13.53-.13,10.67,10.67,0,0,0,13.7,0,10.67,10.67,0,0,0,13.7,0,10.64,10.64,0,0,0,13.52.13h.36a10.63,10.63,0,0,0,6.67,2.36V66.46a9.16,9.16,0,0,1-6-2.24c-1.13-3-6-5.59-13-7.11L60,43a3.88,3.88,0,0,1,2.2,2.65v0a.79.79,0,0,0,.55.58.76.76,0,0,0,.77-.26c1.67-2.18,6.13-1.52,6.63,1.7a.74.74,0,0,0,.73.62h0a.73.73,0,0,0,.72-.64c.9-7.13-3.3-14-9.56-15.58h0a11.42,11.42,0,0,0-2.85-.36c-5.48,0-10.84,3.88-13,9.42a.74.74,0,0,0,.33.91.73.73,0,0,0,1-.19c2-2.57,6.2-1.08,6.64,1.71a.76.76,0,0,0,.47.57.75.75,0,0,0,.83-.23h0a3.83,3.83,0,0,1,3.2-1.27L54.94,56.81A75.23,75.23,0,0,0,41.12,55.6q-2.35,0-4.59.12c-7.76-13.1-10.24-23.54-7.4-31.07l2.34,2.26,4-1-.94,3.94,2,2,4-1c0,.08-1,4-.94,3.94l4.72,4.52.51-.53C49,34.48,48.3,27.14,43.36,22.4a13.12,13.12,0,0,0-10.21-3.78v-3.4l3.6,1.84,2.39-1.51V11.42l3.59,1.86,5.51-3.5-.39-.63a10,10,0,0,0-7.19-4.47,13.39,13.39,0,0,0-9,2.06A13.9,13.9,0,0,0,26.73,12,13.89,13.89,0,0,0,22,7C16.22,3.36,8.93,4.44,5.77,9.44l-.4.63,5.52,3.49Zm55.73,33a5.47,5.47,0,0,0-6.21-1c.52-3.23.7-7,0-9.38C67.75,36.43,69.89,40.62,70.21,44.75Zm-21.45-5.5a12.81,12.81,0,0,1,10.41-6.06h.07c-1.79,1.75-3.45,5.13-4.55,8.21A5.42,5.42,0,0,0,48.76,39.25Zm7.44,2.29c1.95-5.31,4.43-8.29,5.48-8s1.79,4.07.93,9.67A5.54,5.54,0,0,0,56.2,41.54Zm-34.49-16-5.57-1.37h0c0,.08,1.4,5.83,1.31,5.47l-.84.81L11,29.09h0c0,.08,1.4,5.84,1.32,5.47l-3,2.89c-3.15-4-1.93-10,2-13.7a11.39,11.39,0,0,1,10.49-3.11,5.72,5.72,0,0,0,2.14,2.79Zm5.43-11a4.2,4.2,0,1,1-4.2,4.19A4.2,4.2,0,0,1,27.14,14.56ZM55.23,58.35l.07,0,.18,0h0c6.53,1.33,10.9,3.51,12.23,5.75a9.16,9.16,0,0,1-12.4-.24l-.51-.49-.51.49a9.18,9.18,0,0,1-12.68,0l-.51-.49-.51.49a9.2,9.2,0,0,1-12.68,0l-.51-.49-.51.49a9.2,9.2,0,0,1-12.41.24c2.14-3.64,12.29-7.09,26.62-7.09A73.45,73.45,0,0,1,55.23,58.35ZM34.89,55.83c-2.31.17-4.5.44-6.55.79C21.75,40.19,23.34,30,26,24.32a5.93,5.93,0,0,0,1.13.11,4.19,4.19,0,0,0,.5,0C24.78,32.29,27.17,42.6,34.89,55.83Zm7.44-32.37c4.15,4,5,10,2,13.71l-3-2.89,1.3-5.48L37,30.18l-.84-.81,1.3-5.47h0l-5.58,1.38-1.78-1.7a5.68,5.68,0,0,0,2.49-3.39A11.5,11.5,0,0,1,42.33,23.46ZM32.4,8a11.93,11.93,0,0,1,8.05-1.85,8.64,8.64,0,0,1,5.73,3.2l-3.52,2.23L37.78,9.06,37.66,9h0v5.74l-1,.62-5-2.57h0v2.55a5.7,5.7,0,0,0-3.85-2.23A12.31,12.31,0,0,1,32.4,8Zm-11.19.28a12.21,12.21,0,0,1,4.51,5A5.7,5.7,0,0,0,22,16.45V13.09h0l-5,2.58L16,15V9.28h0l-5,2.58L7.44,9.63C10.37,5.85,16.37,5.2,21.21,8.27Z"/><path class="cls-1" d="M42.75,47.7H38.12v1.48h4.63a3.32,3.32,0,0,0,0-6.64H41.43a5.38,5.38,0,0,0-10.59.66l1.47.16a3.9,3.9,0,0,1,7.76,0l.08.66h2.6a1.84,1.84,0,1,1,0,3.68Z"/><rect class="cls-1" x="34.6" y="47.7" width="2.12" height="1.48"/><path class="cls-1" d="M67.25,16.53a4.7,4.7,0,1,0-4.7,4.69A4.71,4.71,0,0,0,67.25,16.53Zm-4.7,3.21a3.22,3.22,0,1,1,3.22-3.21A3.21,3.21,0,0,1,62.55,19.74Z"/><rect class="cls-1" x="61.82" y="5.47" width="1.48" height="4.34"/><rect class="cls-1" x="57.37" y="6.66" width="1.48" height="4.34" transform="translate(3.37 30.24) rotate(-30.01)"/><rect class="cls-1" x="54.12" y="9.91" width="1.48" height="4.34" transform="translate(16.97 53.55) rotate(-60)"/><rect class="cls-1" x="51.5" y="15.79" width="4.34" height="1.48"/><rect class="cls-1" x="52.69" y="20.23" width="4.34" height="1.48" transform="translate(-3.14 30.23) rotate(-29.99)"/><rect class="cls-1" x="55.94" y="23.49" width="4.34" height="1.48" transform="translate(8.08 62.44) rotate(-60.01)"/><rect class="cls-1" x="61.82" y="23.25" width="1.48" height="4.34"/><rect class="cls-1" x="66.26" y="22.06" width="1.48" height="4.34" transform="translate(-3.14 36.75) rotate(-30)"/><rect class="cls-1" x="69.51" y="18.8" width="1.48" height="4.34" transform="translate(16.96 71.32) rotate(-60)"/><rect class="cls-1" x="69.28" y="15.79" width="4.34" height="1.48"/><rect class="cls-1" x="68.08" y="11.34" width="4.34" height="1.48" transform="translate(3.37 36.74) rotate(-29.99)"/><rect class="cls-1" x="64.83" y="8.09" width="4.34" height="1.48" transform="translate(25.86 62.44) rotate(-60.01)"/></svg>