<svg id="Capa_1" data-name="Capa 1" xmlns="http://www.w3.org/2000/svg" viewBox="0 0 80 80"><defs><style>.cls-1{fill:#76c0b4;}</style></defs><title>preferencias</title><rect class="cls-1" x="28.18" y="28.58" width="4.04" height="1.51"/><rect class="cls-1" x="28.18" y="32.52" width="4.04" height="1.51"/><rect class="cls-1" x="35.16" y="28.58" width="4.04" height="1.51"/><rect class="cls-1" x="35.16" y="32.52" width="4.04" height="1.51"/><rect class="cls-1" x="42.14" y="28.58" width="4.04" height="1.51"/><rect class="cls-1" x="42.14" y="32.52" width="4.04" height="1.51"/><rect class="cls-1" x="49.13" y="28.58" width="4.04" height="1.51"/><rect class="cls-1" x="49.13" y="32.52" width="4.04" height="1.51"/><rect class="cls-1" x="37.86" y="18.59" width="5.63" height="1.51"/><rect class="cls-1" x="37.86" y="22.12" width="5.63" height="1.51"/><path class="cls-1" d="M19.76,75.3a10.83,10.83,0,0,0,7-2.53,10.74,10.74,0,0,0,7,2.53,10.86,10.86,0,0,0,7-2.53,10.85,10.85,0,0,0,13.93,0,10.85,10.85,0,0,0,13.94,0,10.84,10.84,0,0,0,7,2.54V73.79a9.63,9.63,0,0,1-7-3.08,9.52,9.52,0,0,1-7,3.08,9.62,9.62,0,0,1-7-3.08,9.42,9.42,0,0,1-13.93,0,9.44,9.44,0,0,1-13.94,0,9.56,9.56,0,0,1-7,3.07,9.7,9.7,0,0,1-7-3.07,9.61,9.61,0,0,1-7,3.07V75.3a10.78,10.78,0,0,0,7-2.53A10.82,10.82,0,0,0,19.76,75.3Z"/><path class="cls-1" d="M19.76,70.07a10.88,10.88,0,0,0,7-2.53,10.85,10.85,0,0,0,13.94,0,10.82,10.82,0,0,0,13.93,0,10.83,10.83,0,0,0,13.94,0,10.84,10.84,0,0,0,7,2.54V68.56a9.67,9.67,0,0,1-7-3.08,9.52,9.52,0,0,1-7,3.08,9.66,9.66,0,0,1-7-3.08,9.52,9.52,0,0,1-7,3.08,9.63,9.63,0,0,1-7-3.08,9.44,9.44,0,0,1-13.94,0,9.6,9.6,0,0,1-7,3.07,9.7,9.7,0,0,1-7-3.07,9.61,9.61,0,0,1-7,3.07v1.51a10.83,10.83,0,0,0,7-2.53A10.88,10.88,0,0,0,19.76,70.07Z"/><path class="cls-1" d="M19.76,64.94a10.83,10.83,0,0,0,7-2.53,10.74,10.74,0,0,0,7,2.53,10.86,10.86,0,0,0,7-2.53,10.85,10.85,0,0,0,13.93,0,10.85,10.85,0,0,0,13.94,0,10.84,10.84,0,0,0,7,2.54V63.43a9.66,9.66,0,0,1-7-3.08,9.43,9.43,0,0,1-13.94,0l-.39.38,4.93-15.47-1.9-1.1V25.59H48.06V15.12H33.29V25.59H24.1V44.16l-1.9,1.11,5.12,15.64-.58-.55a9.56,9.56,0,0,1-7,3.07,9.7,9.7,0,0,1-7-3.07,9.53,9.53,0,0,1-7,3.07v1.51a10.78,10.78,0,0,0,7-2.53A10.82,10.82,0,0,0,19.76,64.94ZM57.35,46l-5.2,16.31a9.31,9.31,0,0,1-10.72-1.22V36.74ZM34.8,16.63H46.55v9H34.8ZM25.61,27.1H55.74V43.29L40.67,34.56,25.61,43.29ZM24,46l15.91-9.22V61.05a9.34,9.34,0,0,1-10.53,1.33Z"/><path class="cls-1" d="M16.51,19.09a4.81,4.81,0,1,0-4.81-4.81A4.82,4.82,0,0,0,16.51,19.09Zm0-8.11a3.3,3.3,0,1,1-3.3,3.3A3.3,3.3,0,0,1,16.51,11Z"/><rect class="cls-1" x="15.76" y="3.7" width="1.51" height="3.41"/><rect class="cls-1" x="9.49" y="6.3" width="1.51" height="3.41" transform="translate(-2.66 9.59) rotate(-45)"/><rect class="cls-1" x="5.93" y="13.53" width="3.41" height="1.51"/><rect class="cls-1" x="8.53" y="19.8" width="3.41" height="1.51" transform="translate(-11.54 13.26) rotate(-45)"/><rect class="cls-1" x="15.76" y="21.45" width="1.51" height="3.41"/><rect class="cls-1" x="22.03" y="18.85" width="1.51" height="3.41" transform="translate(-7.86 22.13) rotate(-45)"/><rect class="cls-1" x="23.68" y="13.53" width="3.41" height="1.51"/><rect class="cls-1" x="21.08" y="7.25" width="3.41" height="1.51" transform="translate(1.01 18.46) rotate(-45)"/><path class="cls-1" d="M35.86,47.77a3.44,3.44,0,1,0-3.44,3.44A3.44,3.44,0,0,0,35.86,47.77ZM32.42,49.7a1.93,1.93,0,1,1,1.93-1.93A1.93,1.93,0,0,1,32.42,49.7Z"/><path class="cls-1" d="M47.86,44.34a3.44,3.44,0,1,0,3.44,3.43A3.44,3.44,0,0,0,47.86,44.34Zm0,5.36a1.93,1.93,0,1,1,1.93-1.93A1.92,1.92,0,0,1,47.86,49.7Z"/><path class="cls-1" d="M73.4,25.61v-1.5a4.87,4.87,0,0,0-4.5,2.65,4.9,4.9,0,0,0-4.51-2.65v1.5c3.39,0,3.74,3.59,3.75,3.74h1.51C69.66,29.2,70,25.61,73.4,25.61Z"/><path class="cls-1" d="M13.54,49.68A4.89,4.89,0,0,0,9,47v1.51c3.39,0,3.74,3.58,3.76,3.73h1.5c0-.15.37-3.73,3.75-3.73V47A4.87,4.87,0,0,0,13.54,49.68Z"/><path class="cls-1" d="M60.09,39.05c4.14,0,4.57,4.37,4.59,4.55h1.5c0-.18.42-4.55,4.59-4.55V37.54a5.69,5.69,0,0,0-5.34,3.32,5.68,5.68,0,0,0-5.34-3.32v1.51Z"/><rect class="cls-1" x="16.01" y="39.52" width="1.49" height="1.51"/><rect class="cls-1" x="19.82" y="39.52" width="2.55" height="1.51"/><path class="cls-1" d="M17.62,29.4a5.47,5.47,0,0,0-5.25,4,3.87,3.87,0,1,0-1,7.61h2.48v-1.5H11.35a2.37,2.37,0,1,1,0-4.74,2.31,2.31,0,0,1,1.21.34.75.75,0,0,0,1.14-.58,3.93,3.93,0,0,1,7.82-.2l1.49-.2A5.45,5.45,0,0,0,17.62,29.4Z"/><path class="cls-1" d="M55.6,17.7h5.67V16.19H55.6a2.45,2.45,0,1,1,0-4.89h3.08l.07-.67a5,5,0,0,1,10,0l.07.67h3.09a2.45,2.45,0,1,1,0,4.89H66.12V17.7h5.75a4,4,0,1,0,0-7.9H70.1a6.52,6.52,0,0,0-12.74,0H55.6a4,4,0,1,0,0,7.9Z"/><rect class="cls-1" x="62.98" y="16.19" width="1.42" height="1.51"/></svg>