<svg id="Capa_1" data-name="Capa 1" xmlns="http://www.w3.org/2000/svg" viewBox="0 0 1520 660.41"><defs><style>.cls-1{opacity:0.28;}.cls-2{fill:#a2a6de;}.cls-3,.cls-4,.cls-5,.cls-6{fill:none;stroke:#a2a6de;stroke-linecap:round;stroke-miterlimit:10;stroke-width:1.5px;}.cls-4{stroke-dasharray:5.68 9.46;}.cls-5{stroke-dasharray:5.65 9.42;}.cls-6{stroke-dasharray:5.63 9.39;}</style></defs><title>preferencias</title><g class="cls-1"><path class="cls-2" d="M58.33,534c0-.12,1.13-3,.2-5.1l-1.88-4.22,9.23-13.16h0l0,0V511l-.85-1.92h0V509h0v0l0,0,0,0v0l0,0,0,0h0l0,0h-.53l0,0h0l-11.45,7.3-3-6.84,1.79-2.17h0l0,0v0l0,0V507h0v-.25h0l-.49-2.83h0a.09.09,0,0,0,0-.05h0s0,0,0,0v0l0,0v0l0,0h0l-.07-.08,0,0h0l0,0h0l0,0h-.45l0,0h0l0,0-4,3.15-.29-.67a.54.54,0,0,0-1,0,.61.61,0,0,0,0,.4l.3.67-5,.88h0l-.06,0h0l-.05,0h0l-.06,0v0l0,0h0l0,0,0,0,0,0,0,0,0,0,0,0,0,0v0h0v0l0,.05v.16a.06.06,0,0,0,0,0h0v0h0a.14.14,0,0,0,0,.06h0l0,.05h0l0,.05h0l1.78,2.27,0,0v0l0,0h0l0,0,0,0h0l0,0h.21l2.81.12L53.72,531h0c.93,2.1,3.8,3.22,3.93,3.27A.54.54,0,0,0,58.33,534Zm6-23.93.49,1.09-8.7,12.4-2.86-6.43Zm-9.68,20.54h0L45.83,510.7h0v-.05l0,0v0l0,0,0,0h0l0,0h0l0,0h0l0,0h-.25l-2.9-.13-1.09-1.39,4.43-.78,1.26,2.83a.53.53,0,1,0,1-.43l-1.26-2.83,3.55-2.77.31,1.75-1.85,2.23h0l0,.06h0l0,.06h0a.14.14,0,0,0,0,.06v0a.13.13,0,0,0,0,.06v0s0,0,0,.06h0a.15.15,0,0,0,0,.07v0l0,.05v0h0l8.85,19.88a6.07,6.07,0,0,1-.06,3.77A6,6,0,0,1,54.68,530.58Z"/><path class="cls-2" d="M35.8,524.82h.09l13.81,1.69a.53.53,0,0,0,.13-1l-13.52-1.65-.49-1.1,11-3.05a.52.52,0,0,0,.36-.65.52.52,0,0,0-.65-.36L35,521.88h0l0,0h-.08l0,0h0l0,0h0l0,0h0l0,0,0,0,0,0v0l0,.05h0s0,0,0,.07v0a.15.15,0,0,0,0,.07h0v.07h0a.19.19,0,0,0,0,.07h0v.05h0l.86,1.93h0v.07l0,0v0l0,0h0l0,0,0,0,0,0h0l0,0h.1Z"/><path class="cls-3" d="M541.72,69.41l-2.32-1.6"/><path class="cls-4" d="M531.44,62.69c-17.86-10.83-43-21.66-71.72-19.28-56.77,4.7-69.17,53.06-117.88,58.1-46.91,4.84-52.19-50.14-132-68-14-3.13-76.53-17.13-116.66,16.78C87.77,54.86,68.51,71.1,68.54,94.37c0,14.89,7.84,33.74,20.75,37.6,1,.31,7.66,2.19,11.67-1.3,5.25-4.56,3.81-16.41-1.3-19.44-6.22-3.7-17.72,5.76-23.24,10.31-3.67,3-35.61,29.94-37.7,70.07-2.24,43,32.6,46.72,45.12,96.73,14,55.93-23.88,74.08-9.07,141,6.72,30.32,24.32,71,44.07,71.16,8.57.07,18.67-7.5,20-16,1.87-12-14.77-22.26-16-23-25.78-15.55-71.66-2.26-79.12,22.4a26.5,26.5,0,0,0-1,9.32"/><path class="cls-3" d="M43.3,497.92c.2.95.42,1.87.67,2.74"/><path class="cls-5" d="M35.72,599.41c-.16-2-1-15.37,9-25,10.33-9.93,27.91-11.73,34-5,9.52,10.51-16,34-8.79,48.47,16.82,33.54,189-24.09,198.07.18,1.07,2.9.64,9.38-2.66,14.07-4,5.62-12.75,9.68-19.85,6.48a15.21,15.21,0,0,1-8.27-10.8c-2.35-12,11.26-23.84,15.34-27.38,31-26.89,112,37,209.74,27.9,79.11-7.38,122.31-58.2,165.39-31,16.25,10.26,28.88,29.35,51.35,27.88,16.67-1.08,34.71-13.22,33.73-22-.78-6.91-13.65-13.57-19.79-10.11-9,5-8.38,34.31,6.64,45.44,6.57,4.86,13.76,4.68,25.12,4.39,9.28-.24,29.89-.76,49.67-14.21,17.74-12.07,17.57-22.81,32.33-27.8,12.09-4.09,24.1-.91,32.06,2.22"/><path class="cls-5" d="M1467,157.35a24.43,24.43,0,0,1,1.75,14.06c-2.93,14.72-20.33,16.06-24,27-6.25,18.6,35.78,39.3,31,56-4.4,15.37-41.83,4.39-60,26-22.67,27-3.45,90.56,22,98,.59.18,12.67,3.53,20-3,5-4.46,7.39-13.17,4.67-17.74-7.7-12.92-66.1-9.67-79.67,15.74-21.59,40.42,77.06,124.13,65.12,185.1-1.42,7.24-4.94,25.22-15.65,28-6.37,1.68-15.37-2-17.47-8.15-1.66-4.88.82-11.81,5.32-14.38,13.76-7.85,56.56,19.31,55.68,48.38,0,1.76-.78,17.59-13,26-27.81,19.15-69.06-31.8-136-30-28.94.78-23.89,10.38-69,20-22.85,4.88-92.61,19.75-165.48-4.64-13.15-4.4-57.81-20.6-98.52-22.36-14.85-.64-27.25.72-31,8-2.05,4-1.55,9.82,1.58,12.86,4.71,4.58,15.55,3.06,18.42-1.86,4.68-8-8.56-30.62-28-37-23.59-7.74-45.07,12.12-46,13"/><path class="cls-2" d="M866.45,614.59c-.05-.12-1.34-2.92-3.49-3.73l-4.32-1.63-2.87-15.82h0v-.19l0,0v0l0,0h0l0,0h0l0,0h0l0,0h-.08l-2-.75H853l0,0h0v0l0,0h0l0,0,0,0v0l0,0v.07l0,0h0v0h0l-2.86,13.28-7-2.64-.28-2.8h0v-.18l0,0v0h0l0,0h0l0,0v0l0,0h0L840,598.47h0l0,0h-.51l0,0h0l0,0h0l-.06,0,0,0h0l0,0h0l0,0v0s0,0,0,0v0a.14.14,0,0,0,0,.06v0a0,0,0,0,0,0,0l-.59,5.08-.68-.26a.53.53,0,0,0-.68.31.55.55,0,0,0,0,.4.59.59,0,0,0,.3.28l.68.25-2.91,4.2h0l0,0v0l0,0v0l0,0v.06h0a.09.09,0,0,0,0,0v0s0,0,0,0v.07a0,0,0,0,0,0,0s0,0,0,0v0h0v0l0,0,0,0,0,0,0,0,0,0,0,0,0,0h0l0,0h0l.06,0h.14l2.87.33h.34l0,0h0l0,0h0l2.07-1.91,20.05,7.56h0c2.15.81,5-.44,5.09-.49A.53.53,0,0,0,866.45,614.59Zm-12.78-21.12,1.12.42,2.7,14.91-6.58-2.49Zm7.81,21.33h0l-20.36-7.68h-.4l0,0h-.06l0,0,0,0h0l-2.13,2-1.76-.2,2.56-3.7,2.9,1.09a.53.53,0,1,0,.37-1l-2.9-1.09.52-4.47,1.46,1,.3,2.88h0a.19.19,0,0,0,0,.07v0l0,.06h0l0,.06h0l0,.06h0l.05,0h0l0,0h0l.05,0h0l20.36,7.68a6.07,6.07,0,0,1,2.64,2.69A6.09,6.09,0,0,1,861.48,614.8Z"/><path class="cls-2" d="M844.1,624.18h0l0,0h0l10.91-8.64a.53.53,0,0,0,.09-.74.53.53,0,0,0-.74-.08l-10.68,8.45-1.12-.42,5.59-10a.53.53,0,1,0-.92-.52l-5.89,10.54h0l0,0v0h0v.05s0,0,0,0v.18h0s0,0,0,0v0s0,0,0,.05h0a.43.43,0,0,0,0,.07h0l0,.06h0l0,0h0l.06,0h.08l2,.74h.43Z"/><path class="cls-2" d="M1466.7,121.22c-.09.09-2.27,2.28-2.27,4.58v4.61l-13.8,8.25h0l0,0h0l0,0v0l0,0h0l0,0v0l0,0h0V139h0v2.23h0v.06h0v.2l0,0v0l0,0v0h0l0,0,0,0h0l0,0h.36l13.44-2v7.48l-2.52,1.26h0l0,0h0l0,0,0,0h0l0,0v0l0,0v0l0,0v0l0,0h0v.09h0l-.71,2.79h0a.43.43,0,0,0,0,.05h0v.14a.43.43,0,0,1,0,0h0a.42.42,0,0,0,0,.1l0,0h0a.08.08,0,0,1,0,0h0l0,0v0h0l0,0h0l0,0h0l0,0h0l.07,0h.33l5-1.23v.73a.53.53,0,0,0,.53.53.56.56,0,0,0,.37-.15.57.57,0,0,0,.16-.37v-.73l5,1.24h.37l0,0,0,0,0,0,0,0h0v0l0,0,0,0,0,0s0,0,0,0l0,0v0s0,0,0,0h0a0,0,0,0,0,0,0v0a.13.13,0,0,0,0-.06h0v-.07a.13.13,0,0,1,0-.06h0l-.69-2.8v-.09l0,0v0l0,0v0l0,0v0l0,0h0l0,0,0,0h-.07l-2.51-1.27,0-21.43h0c0-2.3-2.16-4.5-2.25-4.59A.51.51,0,0,0,1466.7,121.22Zm-15.29,19.38v-1.19l13-7.77,0,7Zm17.23-14.8h0l0,21.76h0v.21h0v.05l0,0,0,0h0l0,0h0l0,0,0,0h0l0,0h.06l2.59,1.3.42,1.72-4.36-1.1v-3.1a.52.52,0,0,0-.52-.53.53.53,0,0,0-.53.53V150l-4.37,1.08.43-1.72,2.6-1.29h0l.06,0h0l0,0h0l0-.05v0l0-.06h0l0-.06h0a.64.64,0,0,0,0-.07h0s0,0,0-.06v0h0l0-21.76a2.07,2.07,0,1,1,3.16,0Z"/><path class="cls-2" d="M1483.52,138.78l0,0h0l0,0h0l-11.92-7.18a.52.52,0,1,0-.54.9l11.66,7v1.2l-11.33-1.73a.54.54,0,0,0-.6.44.53.53,0,0,0,.45.6l11.92,1.82h.32l0,0h0l0,0h0l0,0h0l0-.05v0l0-.06h0a.14.14,0,0,0,0-.06h0s0-.05,0-.08h0v-.06h0v-2.11h0v-.11h0v-.13l0,0v0l0,0v0l0,0,0,0Z"/><path class="cls-5" d="M641.1,47.66a156.24,156.24,0,0,1,24.95-13.25c84.7-35.49,135.68,33,242.67,34,96.59.92,143.54-54.06,208.12-21.9,5.19,2.58,47.5,23.67,44.25,38.5-1.28,5.83-9.51,11.44-14.5,9.75-4.4-1.5-6.72-8.81-6.25-13,1.93-17.47,57.94-33.32,110.36-31.09,79.26,3.38,122.85,46.91,145.66,26,8.17-7.5,13.79-23.39,8.21-31.65-4.26-6.3-15.42-8.11-23.45-4.69-10,4.26-13.17,15.81-14.17,19.44-8.71,31.79,34.42,51,43.48,97.78,7.58,39.16-11.25,87.34-36.34,93.78-28.52,7.33-49-43.37-86.62-40.84-28.25,1.89-50.09,32.78-65.63,64.06"/><path class="cls-2" d="M608.42,65.58c.13,0,3.09.91,5.11-.18h0L632.4,55.24l2.3,1.62h0l0,0h.37l2.8-.71h0l.06,0h0l0,0h0l.06,0h0l0,0h0l0,0,0,0,0,0,0,0,0,0v0s0,0,0,0v0h0v0s0,0,0,0v-.16a.09.09,0,0,0,0,0h0v0h0l0-.06h0a.05.05,0,0,0,0,0v0l0,0h0l-3.44-3.78.64-.34a.5.5,0,0,0,.25-.32.51.51,0,0,0,0-.4.52.52,0,0,0-.71-.21l-.64.34L633,45.7s0,0,0,0v0a.14.14,0,0,0,0-.06h0s0,0,0,0v0l0,0h0l0,0h0l-.06,0h-.3l-.1,0h-.12l0,0,0,0h0l0,0h0L630,47.38h0l0,0v0l0,0v0l0,0v0l0,0v0l0,0v.18h0l.09,2.81-6.59,3.55-4.6-12.78h0v0l0,0h0v0l0,0v0l0,0,0,0v0h0l0,0h0l0,0H618l-1.86,1h0l0,0h0l0,0h0l0,0h0l0,0h0v0h0l0,0v.2h0l-.75,16.06L611,60.77c-2,1.08-2.92,4-3,4.16A.52.52,0,0,0,608.42,65.58Zm14-10.92L616.18,58l.7-15.12,1.06-.57Zm-13.11,10a6.07,6.07,0,0,1,2.26-3l19.16-10.31h0l0,0v0l.05,0h0l0-.05h0l0-.06v0l0-.06h0a.15.15,0,0,0,0-.07h0V50.9h0l-.09-2.9,1.31-1.19,1.11,4.36-2.73,1.47a.52.52,0,1,0,.5.92l2.73-1.46,3,3.32-1.72.44-2.37-1.67h0l0,0h-.49l0,0h0L613,64.47h0A6.12,6.12,0,0,1,609.27,64.71Z"/><path class="cls-2" d="M631.49,71.47h0l0,0h0l-12-7.11a.55.55,0,0,1-.19-.73.53.53,0,0,1,.73-.18l11.7,7,1-.57-6.86-9.17a.51.51,0,0,1,.1-.73.53.53,0,0,1,.74.1L634,69.66h0l0,0v0h0l0,0v0a.17.17,0,0,0,0,0h0s0,0,0,0v0s0,0,0,0V70a.06.06,0,0,0,0,0v0a.43.43,0,0,0,0,0h0a.19.19,0,0,1,0,.07h0l0,.06h0l-.05.06h0l-.06,0h0l0,0h0l-1.85,1h-.44Z"/><path class="cls-5" d="M135.3,156.19c11.53-7.29,27.46-14.66,41.25-9.29,24.81,9.68,15.43,50,35.75,65.29,38.19,28.72,117.87-78.71,211-67,83.68,10.51,152.26,114,139,136-4,6.71-18.69,10.92-26,6-5.85-3.94-7.25-13.89-5-21,5.86-18.56,40.73-31.09,59-20,20.59,12.49,5.71,46.25,26.74,61,20.05,14.08,44.55-8.86,70.26,3,19.5,9,29.28,33.18,34,61"/><path class="cls-2" d="M728.53,408.13c.07-.11,1.76-2.69,1.3-4.94l-.93-4.53,11.85-10.86h0l0,0,0,0v0l0,0v0l0,0v-.1h0v0h0v0h0v0h0v-.06h0l-.42-2.07h0v-.05h0v-.08l0,0v0l0,0v0l0,0h0l0,0,0,0h0l0,0h-.46L727,389.52l-1.5-7.34,2.22-1.73h0l0,0,0,0,0,0,0,0v0l0,0h0v-.13h0v-.09h0l.12-2.87h0a0,0,0,0,0,0-.05h0v-.18h0a.41.41,0,0,0,0-.09l0,0h0l0,0h0l0,0h0l0,0h0l0,0h-.34l-.06,0h0l0,0-4.61,2.21-.15-.72a.53.53,0,0,0-.62-.41.49.49,0,0,0-.33.23.49.49,0,0,0-.08.39l.15.72-5.11-.23h-.15l0,0h0l0,0h0l0,0,0,0,0,0,0,0,0,0,0,0,0,0v0h0l0,0,0,0v.06a0,0,0,0,0,0,0,.08.08,0,0,0,0,0v0a.06.06,0,0,0,0,0h0v.05a.13.13,0,0,0,0,.06v0s0,0,0,0v0a.14.14,0,0,0,0,.06h0l1.25,2.61h0v0l0,0v0l0,0v0l0,0,0,0,0,0h0l0,0h0l0,0h.09l2.72.73,4.29,21h0c.46,2.25,3,4,3.13,4A.53.53,0,0,0,728.53,408.13Zm11.05-22.08.24,1.18-11.16,10.23-1.41-6.9ZM725.7,404h0l-4.36-21.32h0v-.12l0,0h0l0,0h0l0,0,0,0,0,0h0v0l0,0h-.08l0,0H721l-2.79-.75-.77-1.6,4.49.2.63,3a.53.53,0,0,0,.62.41.54.54,0,0,0,.41-.63l-.62-3L727,378l-.08,1.77-2.28,1.79h0l0,.05h0l0,.05h0l0,.05v0a.14.14,0,0,0,0,.06v0a.13.13,0,0,1,0,.06h0v.15h0l4.35,21.32a6.09,6.09,0,0,1-.86,3.67A6.08,6.08,0,0,1,725.7,404Z"/><path class="cls-2" d="M708.5,394.34h.08L721.71,399a.53.53,0,0,0,.67-.32.52.52,0,0,0-.32-.67l-12.84-4.53-.24-1.17,11.44-.61a.51.51,0,0,0,.49-.55.53.53,0,0,0-.55-.5l-12.05.64h-.13l0,0h0a.05.05,0,0,0,0,0h0l0,0h0l0,0v0l0,0h0l0,0h0l0,.06h0l0,.07h0a.17.17,0,0,0,0,.07h0v.07h0v.06h0l.42,2.06h0v.11h0v0l0,0v0l0,0v0l0,0,0,0,0,0h0l0,0h0Z"/><path class="cls-5" d="M593.49,393c1.69,10.89,3.76,35.07-9.1,59.75-15.88,30.48-50.3,53.59-85,50.8a74,74,0,0,1-25.12-6.7l-3.38-2.57c-11.7-4.48-22.55-10.08-28.11-21.44,1-7.2,6.78-17.06,15.51-12.18,5.36,2.3,7.55,11.09,4.25,16.58-12.73,17.86-35.12,23.91-55.4,30.68a242.35,242.35,0,0,1-75.31,10.15c-28.42-1.22-53.41-6.93-80.51-13.37-12.43-2.36-26-5.58-36.94,3s-15.75,25.33-6.22,36.15c5.89,6.27,15.8,4.93,23.33.89,6.4-4.9,10.42-12.5,11.2-21.69,1.1-14.27-6.45-25.36-16-36.19-12.91-13.39-25.54-24.81-34.75-40.72-12.26-23.57-13.75-49.61-8-74.6,3.94-15.66,11.72-32.86,28.16-38.1,10.77-2.46,20.36,1.29,29.22,7.16,32.09,21.25,53.2,22.43,60.5,22.12,13.73-.6,33.28-13.1,55.62-71.51"/><path class="cls-5" d="M1181.07,497.25c-19,24-44,43-75,47-17,2-33-2-48-8-14-6-27-14-40-24-19-16-37-32-48-54-3-7-4-14,0-21,4-6,13-7,19-3,10,8,8,22,6,34-3,18-8,34-18,49-9,12-18,22-32,27a51.13,51.13,0,0,1-30,0c-39-14-70-40-107-56a189,189,0,0,0-52-13c-30-2-59,4-88.36,13.29"/><path class="cls-2" d="M364.25,264c-.11.06-2.79,1.6-3.39,3.82h0l-5.69,20.67-2.76.54h-.16l0,0h0l0,0h0l0,0,0,0,0,0v0l0,0v0l-1.42,2.52h0s0,0,0,.06h0s0,0,0,0v0s0,0,0,.06h0v0h0v.17l0,0,0,0v0h0v0s0,0,0,0l0,0,0,0,0,0,0,0,0,0,0,0h.05l.06,0h.15l5.1.12-.19.7a.51.51,0,0,0,.05.4.53.53,0,0,0,1-.12l.19-.71,4.45,2.52h0l.06,0h0l.05,0H362l.07,0h.05l0,0h0l0,0h0l0,0h0l0,0h0l0,0,.06-.08h0l0,0v-.15a.07.07,0,0,0,0-.05h0l.07-2.87h0v-.3l0,0h0v0l0,0h0l-2.09-1.88,2-7.22,12.42,5.51h.49l0,0h0l0,0h0l0,0v0l0,0,0,0v0l0,0v-.05h0v-.05h0l.56-2v-.18h0v0h0v-.17l0,0v0h0l0,0h0l-11.1-11.63,1.22-4.45c.61-2.21-.9-4.9-1-5A.52.52,0,0,0,364.25,264Zm-1.73,17.64,1.86-6.79,10.46,10.95-.32,1.16Zm1.78-16.42a6.08,6.08,0,0,1,.62,3.71l-5.77,21h0v0a.09.09,0,0,1,0,0v.09h0a.2.2,0,0,0,0,.07h0s0,0,0,.06v0a.14.14,0,0,0,0,.06h0l0,.06h0l.05.05h0l2.16,1.93,0,1.78-3.92-2.21.82-3a.53.53,0,0,0-.37-.65.54.54,0,0,0-.65.37l-.82,3-4.5-.11.87-1.54,2.85-.56h.17l0,0h0l0,0,0,0h0l0,0h0l0,0h0l0,0h0v-.1h0l5.77-21h0A6.07,6.07,0,0,1,364.3,265.19Z"/><path class="cls-2" d="M344.06,276.59h.09l13.4-3.74a.53.53,0,0,1,.29,1l-13.12,3.66-.32,1.16L355.78,280a.54.54,0,0,1,.46.59.54.54,0,0,1-.59.46l-12-1.44h-.13l-.05,0h0l0,0v0l0,0h0l0,0h0l0,0v0a.05.05,0,0,1,0,0h0l0-.06h0a.25.25,0,0,1,0-.07v0a.15.15,0,0,1,0-.07h0V279h0v0h0l.55-2v-.13l0,0h0l0,0v0l0,0h0l0,0,0,0h0l0,0Z"/><path class="cls-2" d="M868.34,289.15c.1.08,2.58,1.92,4.85,1.6l4.57-.64,10.11,12.5h0l0,0,0,0,0,0h0l0,0h0l0,0h.34l2.08-.29h.19l0,0h0l0,0h0l0,0,0,0,0,0v0l0,0v0l0,0v-.32h0v-.07h0l-3.87-13,7.42-1,1.59,2.32v0l0,0,0,0,0,0,0,0h0l0,0h0l0,0h.22l2.86.3h.26l.1,0,0,0h0l0,0h0l0,0h0l0,0v0h0l0,0h0l0,0h0a.14.14,0,0,0,0-.07v0h0v0h0V290a.13.13,0,0,0,0-.06v0a0,0,0,0,0,0,0l-1.91-4.74.72-.1a.53.53,0,0,0,.45-.6.54.54,0,0,0-.6-.44l-.72.1.54-5.08h0v-.13h0a.13.13,0,0,0,0-.06v0l0,0h0l0,0v0l0,0,0,0,0,0,0,0,0,0h0l0,0,0,0,0,0h-.36l-.06,0h0l-2.67,1.08h0l0,0h0l0,0h0l0,0h0l0,0,0,0v0l0,0v0l0,0v.07h0l-.89,2.67-21.23,3h0c-2.28.32-4.15,2.77-4.23,2.87A.54.54,0,0,0,868.34,289.15Zm21.34,12.4-1.18.17L879,289.94l7-1Zm-17.08-15h0l21.55-3h.21l0,0,0,0h0l0,0v0l0,0,0,0v0l0,0v-.08h0l.93-2.75,1.64-.67-.47,4.48-3.07.43a.53.53,0,0,0-.45.59.52.52,0,0,0,.59.45l3.07-.43,1.69,4.17-1.77-.18-1.64-2.39h0l-.05-.06h0l0,0h0l-.05,0h0l-.06,0h0l-.06,0h-.18l-21.55,3a6,6,0,0,1-3.6-1.09A6.1,6.1,0,0,1,872.6,286.58Z"/><path class="cls-2" d="M883.35,270v0l0,0h0l-5.44,12.81a.53.53,0,0,0,1,.41l5.32-12.54,1.18-.16-.11,11.45a.53.53,0,0,0,.53.53.52.52,0,0,0,.53-.52L886.4,270h0V270h0v-.05l0-.06h0s0,0,0,0v0l0,0v0l0,0h0l0,0h0l0,0h0l-.06,0h0l-.07,0h0l-.07,0h-.17l-2.08.29h-.18l0,0h0l0,0h0l0,0,0,0v0l0,0v0Z"/><path class="cls-3" d="M1351.84,568.63l-2.74-.7"/><path class="cls-6" d="M1340.1,565.23c-20.87-7.11-28.07-16.17-30.41-23.82-7.22-23.7,26.24-55.44,14-85.43-1.79-4.37-11.9-29.08-35.58-35.83-14.32-4.08-34.59-1.76-41.86,9.58-.58.9-4.22,6.76-2,11.57,2.94,6.31,14.72,8.19,19,4.12,5.27-5-.66-18.62-3.51-25.19-1.89-4.35-19-42.48-57-55.55-40.71-14-53.9,18.46-105.42,16.71-57.62-2-64.62-43.38-133-47.59-31-1.9-75,3.81-80.55,22.74-2.43,8.23,2.06,20,9.86,23.64,11,5.1,25.47-8.07,26.52-9,22.06-20.5,21.92-68.26.27-82.23a26.32,26.32,0,0,0-8.71-3.58"/><path class="cls-3" d="M907.13,284.65c-1-.08-1.91-.11-2.82-.12"/><path class="cls-5" d="M1068.16,162.88a24.39,24.39,0,0,0-13.74-3.49c-15,1.08-18.46,18.17-29.77,20.45-19.24,3.89-34.54-40.39-51.71-37.72-15.79,2.45-9.56,41-33.26,56.29-29.59,19.14-90.28-7.85-94.51-34-.09-.61-1.92-13,5.47-19.47,5.05-4.41,14-5.7,18.19-2.42,11.86,9.24,1.37,66.78-25.54,77.08C800.5,236,729.72,127.67,667.74,131.94c-7.36.5-25.65,1.76-29.79,12-2.45,6.1,0,15.49,5.92,18.34,4.64,2.25,11.82.65,14.93-3.49,9.5-12.68-12.12-58.52-41.08-61.27-11.74-1.11-21.68,5.17-27.41,9.67"/><path class="cls-2" d="M1104.07,166.9c-.08-.1-2-2.52-4.28-2.8h0l-21.27-2.62-.94-2.66h0v-.08l0,0v0l0,0v0l0,0,0,0h0l0,0h0l0,0h-.09l-2.69-1h0l-.06,0h-.3l0,0h0l0,0,0,0h0l0,0,0,0,0,0,0,0v0l0,0,0,0s0,0,0,0h0v0s0,0,0,.06h0V158h0l.62,5.07-.72-.09a.5.5,0,0,0-.39.11.54.54,0,0,0-.2.35.52.52,0,0,0,.46.58l.73.09-1.84,4.78a0,0,0,0,0,0,0v0a.43.43,0,0,1,0,.05v0a.09.09,0,0,0,0,.05v0a.13.13,0,0,0,0,.06h0v.05h0v0l0,.07h0s0,0,0,0h0l0,0v0l0,0h0l0,0h0l0,0h0l0,0,.09,0h.26l2.85-.35h.18l0,0h0l0,0,0,0h0l0,0v0l0,0,0,0v0l1.56-2.34,7.43.92-3.65,13.08h0v.06h0v.28l0,0v0l0,0v0l0,0h0l0,0,0,0,0,0h0l0,0h.18l2.09.25h.32l0,0h0l0,0,0,0h0l0,0,0,0h0l9.9-12.67,4.58.56c2.28.29,4.72-1.6,4.83-1.68A.53.53,0,0,0,1104.07,166.9Zm-17.71.85,7,.86L1084,180.54l-1.19-.14Zm16.51-.62a6.09,6.09,0,0,1-3.59,1.15l-21.6-2.66h-.17l-.06,0h0l-.06,0h0l0,0h0l0,0h0l0,.06h0l-1.6,2.41-1.77.22,1.62-4.2,3.08.38a.53.53,0,0,0,.13-1l-3.08-.38-.55-4.46,1.66.63,1,2.73h0v.07l0,0h0l0,0h0l0,0h0l0,0,0,0h0l0,0h0l0,0h0l0,0h.13l21.6,2.67h0A6,6,0,0,1,1102.87,167.13Z"/><path class="cls-2" d="M1088.65,148.76v.05l0,0h0l5.65,12.72a.53.53,0,0,1-.27.7.51.51,0,0,1-.69-.27l-5.53-12.45-1.19-.14.3,11.45a.53.53,0,1,1-1,0l-.31-12.06h0v-.06h0v0s0,0,0-.05v0s0,0,0,0v0a.05.05,0,0,0,0,0h0l0,0v0l0,0h0l0,0h0l.06,0h0a.11.11,0,0,1,.07,0h0l.07,0h.17l2.09.25h.18l0,0h0l0,0v0h0l0,0,0,0v0Z"/><path class="cls-2" d="M1204.1,466.16c-.13,0-3.19.38-4.63,2.17h0l-13.35,16.76-2.76-.59H1183l0,0h0l-2.3,1.75h0l0,0h0l0,0h0l0,0v.05h0s0,0,0,.05v.22h0v.06l0,0V487l0,0v0l0,0h0l0,0v0l0,0h0l0,0h0l.06,0h0l4.65,2.12-.45.57a.54.54,0,0,0-.12.38.57.57,0,0,0,.2.36.53.53,0,0,0,.74-.09l.45-.57,3.11,4.06,0,0h0l0,.05h0l0,0h0l0,0h0l0,0h0l.08,0h.26l0,0,.09-.06h0l0,0h0l0,0,0,0,0,0,0,0h0l0,0h0l1.19-2.62h0l0,0h0V491l0,0v0l-1.19-2.55,4.67-5.86,9.25,10h0l0,0,0,0h0l0,0h0l0,0h.53l0,0,0,0h0l0,0,0,0h0l1.31-1.65h0v0l0,0v-.05h0v0h0v0h0v0h0v-.24h0l-5.62-15.06,2.87-3.61c1.43-1.79,1.11-4.86,1.09-5A.51.51,0,0,0,1204.1,466.16Zm-8.54,15.53,4.39-5.51,5.3,14.19-.74.94Zm8.11-14.39a6.09,6.09,0,0,1-.9,3.66l-13.56,17h0l0,.05v0a.09.09,0,0,0,0,.06h0s0,0,0,.06v0a.13.13,0,0,1,0,.06v0a.2.2,0,0,0,0,.07h0a.13.13,0,0,0,0,.06v0l0,.07h0l1.22,2.62-.74,1.62-2.73-3.58,1.93-2.42a.52.52,0,0,0-.08-.74.53.53,0,0,0-.74.08l-1.93,2.43-4.1-1.87,1.41-1.08,2.84.6h.31l0,0h0l0,0h0l0,0h0l0,0,0,0h0l0,0h0l13.56-17h0A6,6,0,0,1,1203.67,467.3Z"/><path class="cls-2" d="M1180.57,469.82h.09l13.8,1.84a.52.52,0,1,1-.14,1l-13.5-1.8-.74.94,9.91,5.73a.52.52,0,1,1-.52.91l-10.45-6h0l0,0h0l0,0h0l0,0v0l0,0v0l0,0v0l0,0v0a.06.06,0,0,0,0,0v0a.43.43,0,0,1,0-.05h0V472a.17.17,0,0,1,0-.07h0a.14.14,0,0,1,0-.07h0l0-.07h0l0,0v0h0l1.31-1.64h0l0,0h0l0,0,0,0h0l0,0h.26Z"/></g></svg>