<svg id="Capa_1" data-name="Capa 1" xmlns="http://www.w3.org/2000/svg" viewBox="0 0 80 80"><defs><style>.cls-1{fill:#88b773;}</style></defs><title>preferencias</title><path class="cls-1" d="M68.61,69.89l-8-11.75v-11h9.26L64.68,40h2.79l-5-8.65h3.09L58.15,14.94,50.73,31.35h3.1l-5,8.65h2.79l-1.24,1.69,1,.77,2.78-3.75H51.06l5-8.66H52.73l5.42-12,5.41,12H60.23L62.5,34H58.74v1.29h4.41v-.17l2.08,3.6H62.12l2.72,3.7H57.68V43.7H65.8l1.56,2.11H54.16V47.1h1.47v3h1.29v-3h2.44v9.13L39,26.2V22.93h7.32L44,19.65l2.54-2.75H37.73v9.3L17.17,56.55V47.11h2.44V49.6h1.3V47.11h2.35v-1.3H9.18l1.56-2.11h8.17V42.41H11.7l2.73-3.7H11.31l2-3.43h4V34H14l2.28-3.94H13l5.42-12,5.41,12H20.48l5,8.66H22.37l2.82,3.82,1-.76L24.93,40h2.79l-5-8.65h3.09L18.4,14.94,11,31.35h3.1L9.07,40h2.79L6.61,47.11h9.27V58.46L8.14,69.89l.21.14H5.19v1.29h70V70H68.4ZM43.85,21.64H39V18.19h4.6l-1.25,1.36ZM39,28.5,63.06,64,59.68,69.6H53.44a12.35,12.35,0,0,1-11.13-6.89A42.2,42.2,0,0,1,39,52.56Zm-22,41.1-2.95-4.89c-.17-.29-.3-.51-.43-.71l24-35.49V52.59a41.88,41.88,0,0,1-3.51,10.54c-2.32,4.46-6.49,6.64-12.4,6.47Zm18.3-5.87a39.05,39.05,0,0,0,3-8.1,39.88,39.88,0,0,0,2.78,7.65A13.65,13.65,0,0,0,48.63,70H28.1A12.63,12.63,0,0,0,35.36,63.73Zm28.49,1.44L67.15,70H60.93Zm-51,0L15.81,70H9.6Z"/><rect class="cls-1" x="18.51" y="33.99" width="2.14" height="1.29"/><rect class="cls-1" x="55.43" y="33.99" width="2.14" height="1.29"/><path class="cls-1" d="M57.26,64.89a26,26,0,0,1-5.07-3.44l-.85,1A28.26,28.26,0,0,0,56.66,66Z"/><path class="cls-1" d="M49.93,59.21a24.39,24.39,0,0,1-6-14.56H42.65A25.16,25.16,0,0,0,49,60.06Z"/><path class="cls-1" d="M24.54,61.45a26,26,0,0,1-5.07,3.44l.6,1.15a28.26,28.26,0,0,0,5.32-3.61Z"/><path class="cls-1" d="M34.08,44.65h-1.3a24.21,24.21,0,0,1-6,14.56l1,.85A25.24,25.24,0,0,0,34.08,44.65Z"/><path class="cls-1" d="M35.67,14.26a.77.77,0,0,0-.11-.69.8.8,0,0,0-1.05-.19,3.29,3.29,0,0,1-3.06.24,3,3,0,0,1-1.85-2.75c0-.54.13-.81-.18-1.15a.8.8,0,0,0-1.11-.05,4.48,4.48,0,1,0,7.36,4.59Zm-7.25-2.5A4.33,4.33,0,0,0,31,14.82a4.73,4.73,0,0,0,2.8.25,3.19,3.19,0,0,1-5.34-3.31Z"/><polygon class="cls-1" points="30.29 25.38 30.29 24.36 31.3 24.36 31.3 23.06 30.29 23.06 30.29 22.04 28.99 22.04 28.99 23.06 27.97 23.06 27.97 24.36 28.99 24.36 28.99 25.38 30.29 25.38"/><polygon class="cls-1" points="50.85 15.1 50.85 14.08 51.87 14.08 51.87 12.79 50.85 12.79 50.85 11.77 49.55 11.77 49.55 12.79 48.53 12.79 48.53 14.08 49.55 14.08 49.55 15.1 50.85 15.1"/><polygon class="cls-1" points="67.06 24 67.06 22.98 68.08 22.98 68.08 21.68 67.06 21.68 67.06 20.66 65.76 20.66 65.76 21.68 64.74 21.68 64.74 22.98 65.76 22.98 65.76 24 67.06 24"/><polygon class="cls-1" points="47.51 30.72 47.51 29.7 48.53 29.7 48.53 28.41 47.51 28.41 47.51 27.39 46.22 27.39 46.22 28.41 45.2 28.41 45.2 29.7 46.22 29.7 46.22 30.72 47.51 30.72"/><polygon class="cls-1" points="12.41 15.54 12.41 14.52 13.44 14.52 13.44 13.23 12.41 13.23 12.41 12.21 11.12 12.21 11.12 13.23 10.1 13.23 10.1 14.52 11.12 14.52 11.12 15.54 12.41 15.54"/></svg>