<svg id="Capa_1" data-name="Capa 1" xmlns="http://www.w3.org/2000/svg" viewBox="0 0 80 80"><defs><style>.cls-1{fill:#88b773;}</style></defs><title>preferencias</title><rect class="cls-1" x="4.32" y="68.87" width="4.73" height="1.47" transform="translate(-57.35 41.52) rotate(-60.83)"/><path class="cls-1" d="M10.07,65.06,24.35,39.48l2,5.8L30.17,41l3.27,4.4,3.75-6.16L50.61,65l1.31-.67L45,51.12l3.4-5.7.9,2.56,3.23-3.69L55.35,48l1.8-3L70.58,64.88C57.73,61.81,51,67.15,49.48,68.61,25.66,60.19,5.36,72.86,5.14,73l.79,1.24c.21-.13,19.79-12.33,42.81-4.33C32.94,68,25.23,72.77,24.88,73l.79,1.24c.09-.06,9.66-5.95,29.07-1.85,0-.07.54-1.57.48-1.37-1.4-.69-2.78-1.29-4.16-1.83,2.37-1.88,9.88-6.41,23.34-1.64l.49-1.39c-.73-.26-1.44-.48-2.14-.69L52.54,35.66,44.25,49.59,31.12,24.32l-22.33,40ZM52.62,38.4l3.62,5.34-1,1.66L52.67,42l-2.78,3.16-.47-1.35ZM36.4,37.66l-3.08,5.06-3.06-4.11-3.33,3.8L25.3,37.76l5.77-10.34Z"/><path class="cls-1" d="M70.45,35.92a4.22,4.22,0,0,0-8.13,0h-.85a2.67,2.67,0,0,0,0,5.33h3.42V39.78H61.47a1.2,1.2,0,0,1,0-2.39h2.11l.07-.66a2.75,2.75,0,0,1,5.46,0l.07.66H71.3a1.2,1.2,0,0,1,0,2.39H67.82v1.47H71.3a2.67,2.67,0,0,0,0-5.33Z"/><path class="cls-1" d="M12.92,40.66a3.92,3.92,0,0,0-3.49-1.9v1.47c2.43,0,2.73,2.47,2.75,2.75h1.47c0-.28.32-2.75,2.75-2.75V38.76A3.89,3.89,0,0,0,12.92,40.66Z"/><path class="cls-1" d="M15.51,25.84A1.55,1.55,0,0,1,17,27.36h1.47A1.55,1.55,0,0,1,20,25.84V24.37a2.77,2.77,0,0,0-2.24,1,2.73,2.73,0,0,0-2.23-1Z"/><path class="cls-1" d="M8.78,16.8h5V15.33h-5a2.1,2.1,0,1,1,0-4.19h2.78l.07-.66a4.37,4.37,0,0,1,8.69,0l.07.66h2.8a2.1,2.1,0,1,1,0,4.19h-5.1V16.8h5.1a3.57,3.57,0,1,0,0-7.13H21.67a5.84,5.84,0,0,0-11.39,0H8.78a3.57,3.57,0,1,0,0,7.13Z"/><rect class="cls-1" x="15.31" y="15.33" width="1.25" height="1.47"/><path class="cls-1" d="M62.3,20.87a4.81,4.81,0,1,0-4.8-4.8A4.8,4.8,0,0,0,62.3,20.87Zm0-8.1a3.3,3.3,0,1,1-3.3,3.3A3.3,3.3,0,0,1,62.3,12.77Z"/><rect class="cls-1" x="61.55" y="5.49" width="1.51" height="3.41"/><rect class="cls-1" x="55.28" y="8.09" width="1.51" height="3.41" transform="translate(9.48 42.49) rotate(-45)"/><rect class="cls-1" x="51.73" y="15.31" width="3.41" height="1.51"/><rect class="cls-1" x="54.32" y="21.59" width="3.41" height="1.51" transform="translate(0.62 46.16) rotate(-45)"/><rect class="cls-1" x="61.55" y="23.23" width="1.51" height="3.41"/><rect class="cls-1" x="67.82" y="20.63" width="1.51" height="3.41" transform="translate(4.29 55.03) rotate(-45)"/><rect class="cls-1" x="69.47" y="15.31" width="3.41" height="1.51"/><rect class="cls-1" x="66.87" y="9.04" width="3.41" height="1.51" transform="translate(13.16 51.36) rotate(-45)"/></svg>