<svg id="Capa_1" data-name="Capa 1" xmlns="http://www.w3.org/2000/svg" viewBox="0 0 350 455"><defs><style>.cls-1,.cls-2,.cls-3{fill:none;}.cls-1,.cls-2{stroke:#b9cead;}.cls-1,.cls-2,.cls-3,.cls-4{stroke-miterlimit:10;}.cls-1,.cls-4{stroke-width:4px;}.cls-2{stroke-width:7px;}.cls-3,.cls-4{stroke:#f3b244;}.cls-3{stroke-width:5px;}.cls-4{fill:#fff;}.cls-5{font-size:31px;fill:#f3b244;font-family:Raleway-Bold, Raleway;font-weight:700;}.cls-6{letter-spacing:-0.05em;}.cls-7{letter-spacing:-0.01em;}.cls-8{letter-spacing:-0.01em;}.cls-9{font-size:57px;}</style></defs><title>quienes</title><path class="cls-1" d="M246.24,189a1.93,1.93,0,1,1,1.77,3.44,37.59,37.59,0,0,0-4.86,3,11.78,11.78,0,0,1,2.74,2.29c.4.42.67.73.92,1,1.14,1.28,2,2.24,4,2,4.9-.69,6.36,2.86,8.07,7h0a5.94,5.94,0,0,0,.43.84,1.65,1.65,0,0,0,.66.68,1.05,1.05,0,0,0,.74-.1,3.16,3.16,0,0,0,.57-.3,2.39,2.39,0,0,0,1.06-1.11,1.73,1.73,0,0,0-.05-1.07,45.29,45.29,0,0,0-2.76-5.63l-.07-.12a8.11,8.11,0,0,1-1-2.86,5.54,5.54,0,0,1,.93-3.88,7.79,7.79,0,0,1,2.78-2.38,19,19,0,0,1,6.55-1.9c2.68-.34,3.06-2.68,2.49-5.51-.75-3.75-3-8.22-4.57-11.33a9.58,9.58,0,0,1-1.09-5.68,6.79,6.79,0,0,1,.86-2.46,5,5,0,0,1,1.95-1.83,5,5,0,0,1,3.14-.5c.63.09,1.29.23,1.89.35,1.52.3,2.38.48,3.3-1.35,3.35-6.63,2.47-9.83.93-15.48-.22-.8-.45-1.63-.48-1.76-.52-2-2.1-2.15-4.36-2.43h0l-.66-.09c-2.5-.32-3.86-2-4.59-4.25a21.43,21.43,0,0,1-.76-5.87v-.27c-.08-3.24-.13-4.84,4.66-6.09,1.28-.34,1.61-.69,1.52-1a11.08,11.08,0,0,0-1.95-3.07h0l-.1-.12c-3-3.88-1.57-5.9,0-8,.15-.22.31-.44.49-.73a4.9,4.9,0,0,0,.75-2.2,4.8,4.8,0,0,0-.35-2.25c-.87-2-3.08-4-5.72-5.63A37.61,37.61,0,0,0,255,97.62c-2.62-.56-4.47-.5-5.9.2s-2.65,2.16-3.91,4.38c-3.39,6-12,3.64-17,2.29h0c-5.86-1.57-7-4.59-7.79-6.87-.36-1-.59-1.64-4.2-.42a18.9,18.9,0,0,0-6.88,4.45,59.61,59.61,0,0,0-5.87,6.82c-.73,1-.61,2.75-.51,4.53.27,4.36.54,8.66-6.45,9.53a15.7,15.7,0,0,1-5.64-.62c-.69-.16-1.38-.32-2-.42-2-.34-6,3.27-8.89,5.91l-.35.32-.13.11a4.74,4.74,0,0,1-4.7.91,6.2,6.2,0,0,1-2.24-1.34,6.72,6.72,0,0,1-1.54-2.11,5.37,5.37,0,0,1,.48-5.5,29.06,29.06,0,0,1,3.5-3.59l.31-.28a1.27,1.27,0,0,0,.29-.86,1.56,1.56,0,0,0-.37-1.1l-.07-.08a1.34,1.34,0,0,0-.54-.32,1.59,1.59,0,0,0-.82,0,8.07,8.07,0,0,0-2,1,15.7,15.7,0,0,0-2,1.58c-2.65,2.46-4.9,1.5-7.31.48-1.76-.75-3.69-1.56-6,1.26a22.27,22.27,0,0,0-2.51,4.43c-.08.15,0,0,0,0h0s-.08.17-.25.53c-1.62,3.4-5.08,3.94-8.54,4.49-.68.11-1.37.21-2.08.36a1.88,1.88,0,0,0-1.1.85,3.8,3.8,0,0,0-.61,1.63,2.77,2.77,0,0,0,.15,1.41.86.86,0,0,0,.44.44,6.41,6.41,0,0,0,1.63,0c1-.08,2.2-.24,3.27-.4a4.26,4.26,0,0,1,4.09,1.24,5.35,5.35,0,0,1,1.22,3.19s0,0,0,0,0,0,.06,0a2.22,2.22,0,0,0,.81.06,3.4,3.4,0,0,0,1.36-.4c.41-.24.3-1.13.17-2.19a10.68,10.68,0,0,1,.3-5.17,10.44,10.44,0,0,1,2-3.31,8.76,8.76,0,0,1,2.94-2.26,5.25,5.25,0,0,1,4-.24,5.45,5.45,0,0,1,1.77,1,1.93,1.93,0,0,1-2.55,2.91,1.55,1.55,0,0,0-.51-.31,1.52,1.52,0,0,0-1.13.12,5,5,0,0,0-1.62,1.28,6.7,6.7,0,0,0-1.23,2,7.59,7.59,0,0,0-.09,3.42c.29,2.42.53,4.46-2.07,6a7.33,7.33,0,0,1-3,.93,6,6,0,0,1-2.36-.26,3.85,3.85,0,0,1-2.17-1.7,3.9,3.9,0,0,1-.51-1.65,1.89,1.89,0,0,0-.23-.92c0-.05-.23-.05-.65,0-1.13.17-2.41.34-3.56.43a8.36,8.36,0,0,1-3.32-.26,4.61,4.61,0,0,1-2.54-2.44,6.53,6.53,0,0,1-.47-3.5,7.69,7.69,0,0,1,1.23-3.31,5.64,5.64,0,0,1,3.53-2.47c.7-.15,1.49-.27,2.28-.39,2.45-.39,4.89-.78,5.64-2.34.33-.69-.08.16.24-.51a25.19,25.19,0,0,1,3-5.22c4.15-5.08,7.47-3.67,10.5-2.39,1.23.53,2.37,1,3.18.26a19.48,19.48,0,0,1,2.5-2,11.47,11.47,0,0,1,3-1.44,5.28,5.28,0,0,1,2.86-.07,5,5,0,0,1,2.34,1.37l.11.1,0,0a5.43,5.43,0,0,1,1.38,3.81,5.18,5.18,0,0,1-1.5,3.59l0,0-.29.27a27.32,27.32,0,0,0-3,3,1.61,1.61,0,0,0-.1,1.65,2.63,2.63,0,0,0,.62.86,2.3,2.3,0,0,0,.82.5,1,1,0,0,0,1-.14l.06-.06.35-.31c3.5-3.18,8.28-7.52,12.14-6.87.78.13,1.5.3,2.23.47a13,13,0,0,0,4.29.54c3.36-.42,3.21-2.92,3.06-5.45s-.31-5,1.29-7.11a63.83,63.83,0,0,1,6.28-7.28,22.79,22.79,0,0,1,8.32-5.32c7.18-2.42,7.92-.39,9.08,2.78.53,1.46,1.23,3.39,5.14,4.45h0c4,1.07,10.7,2.89,12.6-.45,1.64-2.89,3.33-4.85,5.58-6s4.91-1.26,8.4-.51a42,42,0,0,1,12.32,5.09c3.24,2,6,4.55,7.23,7.42a8.48,8.48,0,0,1,.65,4.09,8.8,8.8,0,0,1-1.33,3.95c-.17.26-.39.58-.62.89-.65.91-1.28,1.79,0,3.38l.09.13h0a13.63,13.63,0,0,1,2.64,4.48c.64,2.48-.14,4.67-4.3,5.76-1.8.47-1.79,1.06-1.76,2.25v.27a18.1,18.1,0,0,0,.58,4.76c.29.88.71,1.53,1.39,1.61l.64.08c3.79.47,6.44.79,7.64,5.29.29,1.09.38,1.42.46,1.74,1.79,6.56,2.81,10.29-1.2,18.23-2.25,4.46-4.15,4.08-7.52,3.4-.47-.1-1-.2-1.68-.3a1.31,1.31,0,0,0-.8.09,1.08,1.08,0,0,0-.43.42,2.68,2.68,0,0,0-.33,1,5.66,5.66,0,0,0,.68,3.34c1.74,3.34,4.11,8.16,4.95,12.36,1,5.13,0,9.4-5.83,10.12a15.4,15.4,0,0,0-5.17,1.45,3.85,3.85,0,0,0-1.42,1.17,1.7,1.7,0,0,0-.28,1.22,4.14,4.14,0,0,0,.52,1.47l.07.13a45.94,45.94,0,0,1,3,6.27,5.4,5.4,0,0,1,0,3.57,6.21,6.21,0,0,1-2.64,3.08,7.94,7.94,0,0,1-1.18.62,4.65,4.65,0,0,1-3.65.11,5.33,5.33,0,0,1-2.48-2.19,9.32,9.32,0,0,1-.75-1.44h0c-1.09-2.64-2-4.9-4-4.63-4.07.57-5.5-1.06-7.43-3.24l-.83-.93a6.2,6.2,0,0,0-2.55-1.89,1.66,1.66,0,0,0-1.38.38c-.41.42-.8.84-1.18,1.27a.86.86,0,0,1-.13.14q-.5.59-1,1.17a30.17,30.17,0,0,0-5.09,9.83,1.94,1.94,0,0,1-2.42,1.28,2.52,2.52,0,0,1-.33-.14c-8-3.73-6.42-9.57-5.21-14.05a13.9,13.9,0,0,0,.57-2.65,5.18,5.18,0,0,0-.11-1.19,1.35,1.35,0,0,0-.43-.8,1.81,1.81,0,0,0-1-.23,5.64,5.64,0,0,0-1.43.19,4.32,4.32,0,0,1-3.88-.68,7.44,7.44,0,0,1-2.26-3.63l-.17-.48c-1-2.77-1.54-4.4-3.85-4.35h-.57c-4.93.1-11.16.24-13.37-4-.45-.86-.92-1.75-1.36-2.54a19.81,19.81,0,0,0-1.3-2,1.85,1.85,0,0,0-.79-.7,1.32,1.32,0,0,0-.91.2c-1.17.6-1.12,1.08-.79,1.73l.49.9c.17.3.35.62.57,1.05.6,1.14.79,1.51,1,1.85,2.17,4.26,3.24,6.36,8.16,6.19a3.68,3.68,0,0,1,.76,0,4.43,4.43,0,0,1,3.22,2.41,8.1,8.1,0,0,1,.91,3.52,8.64,8.64,0,0,1-.08,1.47,5.72,5.72,0,0,1-1.29,2.88,8.68,8.68,0,0,1-5.41,2.69,21,21,0,0,1-6.43,0c-3.31-.51-6.49-1.68-8.22-3.13-4.27-3.58-6.35-10-8.23-15.82-1.22-3.78-2.35-7.27-3.82-9.1a8.48,8.48,0,0,0-.61-.66c-2.76-2.71-9.5-6.9-16.7-9.53-6.91-2.53-14.13-3.61-18.14-.38a8.37,8.37,0,0,0-.62.57,8.5,8.5,0,0,0-.93,1.38l1.61.05c2.66.07,4.47.32,5.79,1.2,1.55,1.05,2.16,2.62,2.15,5.2a9,9,0,0,0,1,4.48,6.73,6.73,0,0,0,3,2.7,7,7,0,0,0,2.55.95c.2,0,.49-.38,1-1.13a5.19,5.19,0,0,1,3.74-2.32,9.13,9.13,0,0,1,4.64.73c6.58,2.66,10.52,10.75,13.76,17.41,1,2,1.85,3.8,2.71,5.26,1.29,2.21,2.46,4,3.94,5s3.19,1.2,6,.53a5.59,5.59,0,0,1,5.29,1.17,6.39,6.39,0,0,1,1.79,2.94,9.12,9.12,0,0,1,.36,3.34,7.87,7.87,0,0,1-3.61,6.34c-.86.48-1.77.87-2.84,1.34-1.33.57-2.9,1.25-4.59,2.15a9.63,9.63,0,0,0-3.66,3.93,11.46,11.46,0,0,0-1.56,5.64c.22,5.21-3.42,14.76-8.48,22.32-4.27,6.38-9.64,11.49-14.81,11.8a11.53,11.53,0,0,1-5.21-1,21.55,21.55,0,0,1-5.1-3.15c-6.61-5.32-10-13.39-10.91-21.83-1-9.48,1.23-19.48,5.71-26.5a2.4,2.4,0,0,0,.33-1.3,7.25,7.25,0,0,0-.34-2.05c-.42-1.43-2.55-2.09-5.2-2.35a47,47,0,0,0-10.1.46,20.22,20.22,0,0,1-2.3.16,14.11,14.11,0,0,1-11.37-5.48,24.18,24.18,0,0,1-4.77-12,33.06,33.06,0,0,1-.29-4.24c0-5.69,2.67-8.43,6.4-9.57,3.31-1,7.37-.57,10.88.08a1.83,1.83,0,0,0,.17-.47,17.09,17.09,0,0,0,.42-4.32,12.56,12.56,0,0,1,.56-4,6.84,6.84,0,0,1-3.78-3.63,8.67,8.67,0,0,1-.77-3.81,8,8,0,0,1,.94-3.67,5.3,5.3,0,0,1,3.74-2.78l1.11-.18c1.14-.17,2.1-.31,2.08-.51a7.37,7.37,0,0,1,.19-2.65,6.15,6.15,0,0,1,1.47-2.7,4.81,4.81,0,0,1,3-1.48h0a5.54,5.54,0,0,1,2,.17l.84.23c.47.14.69.21,1.26-.33,5.12-4.88,7.92-3.69,11.7-2.08a15.77,15.77,0,0,0,6.18,1.6,8.59,8.59,0,0,0,4.94-1.16,6,6,0,0,0,2.41-3.51,9.86,9.86,0,0,1,3.42-5.51,7.17,7.17,0,0,1,6-1.3,1.94,1.94,0,1,1-.82,3.79,3.4,3.4,0,0,0-2.84.6,6.09,6.09,0,0,0-2,3.4,9.74,9.74,0,0,1-4,5.76,12.23,12.23,0,0,1-7.14,1.8,19.13,19.13,0,0,1-7.62-1.9c-2.43-1-4.23-1.81-7.51,1.32-2.2,2.09-3.1,1.82-5,1.24l-.7-.2a1.7,1.7,0,0,0-.65-.07h0a1,1,0,0,0-.62.32,2.12,2.12,0,0,0-.51,1,3.82,3.82,0,0,0-.09,1.27c.41,3.89-2.23,4.28-5.35,4.75l-1,.16a1.53,1.53,0,0,0-1,.84,4,4,0,0,0-.46,1.87,4.77,4.77,0,0,0,.42,2.11,3,3,0,0,0,2,1.72,5.39,5.39,0,0,0,1.42.16c.33,0,.69,0,1.05,0a12.9,12.9,0,0,1,1.46-.19,5.49,5.49,0,0,0,1.08-.27,1,1,0,0,0,.44-.26c.28-.38.55-.84.81-1.28a11.72,11.72,0,0,1,1.57-2.26,9.91,9.91,0,0,1,1-.87c5.28-4.26,13.86-3.18,21.88-.24,7.72,2.82,15,7.4,18.09,10.41a11.53,11.53,0,0,1,.92,1c1.91,2.37,3.15,6.2,4.49,10.34,1.71,5.3,3.61,11.15,7,14a14.12,14.12,0,0,0,6.31,2.27,17.38,17.38,0,0,0,5.23.07,5,5,0,0,0,3.05-1.36,1.92,1.92,0,0,0,.43-1,4.23,4.23,0,0,0-.39-2.54c-.14-.25-.28-.43-.4-.44h-.06c-7.38.25-8.82-2.56-11.74-8.3l-.93-1.82c-.14-.27-.33-.62-.52-.95s-.36-.65-.55-1c-1.43-2.79-1.73-4.78,2.47-6.93a4.93,4.93,0,0,1,3.79-.47,5.48,5.48,0,0,1,2.75,2.06,22.36,22.36,0,0,1,1.58,2.46c.51.89,1,1.79,1.43,2.64,1.1,2.1,6,2,9.86,1.91h.57c5.12-.11,6,2.51,7.58,6.94l.17.49a4.37,4.37,0,0,0,1,1.82c.1.07.31.06.65,0a9.76,9.76,0,0,1,2.37-.28,5.42,5.42,0,0,1,3.15,1,5,5,0,0,1,2,3.07,9,9,0,0,1,.2,2.13,15.37,15.37,0,0,1-.69,3.59c-.72,2.68-1.64,6.06,1.31,8.45a33.85,33.85,0,0,1,4.94-8.76c.35-.44.71-.88,1.09-1.31a9.87,9.87,0,0,1,1.77-1.89,38.8,38.8,0,0,1,9.56-6.85Z"/><path class="cls-2" d="M244.72,108.82a1.21,1.21,0,0,1,2.11,1.2c-3.11,5.46-11.34,3.24-16.15,1.94h0a1.22,1.22,0,1,1,.63-2.35h0C235.45,110.74,242.54,112.65,244.72,108.82Z"/><path class="cls-2" d="M169.77,34.87A142,142,0,1,1,69.36,76.46,141.55,141.55,0,0,1,169.77,34.87Z"/><path class="cls-2" d="M169.77,315a138.1,138.1,0,1,0-97.66-40.45A137.68,137.68,0,0,0,169.77,315Z"/><path class="cls-3" d="M122.16,61.89a1.21,1.21,0,0,1-1.6-.62,1.23,1.23,0,0,1,.63-1.6,131,131,0,0,1,20.34-7,133.2,133.2,0,0,1,21.3-3.56,1.21,1.21,0,0,1,.21,2.42,130.87,130.87,0,0,0-20.92,3.49,128.23,128.23,0,0,0-20,6.82Z"/><path class="cls-3" d="M244.2,278.16a1.21,1.21,0,0,1,1.39,2,131.38,131.38,0,0,1-141.08,6.48,1.21,1.21,0,0,1,1.2-2.1,129,129,0,0,0,138.49-6.36Z"/><path class="cls-3" d="M289.48,134.64a1.21,1.21,0,0,1,2.29-.79,131.35,131.35,0,0,1,7.2,43,1.22,1.22,0,0,1-2.43,0,130.66,130.66,0,0,0-1.77-21.46,128.72,128.72,0,0,0-5.29-20.77Z"/><path class="cls-1" d="M119.77,83.93a1.94,1.94,0,0,1,2.18,3.2,43.43,43.43,0,0,0-4.23,3.31,29.09,29.09,0,0,0-3.27,3.32c-1.11,1.39-.73,2.56-.36,3.72.52,1.66,1,3.31,0,5.52-1.26,2.78-4.3,6-6.61,8.38a32,32,0,0,0-2.31,2.55c-.16.24-.33.47-.53.75-1.78,2.48-6.7,9.31-6.23,9.7a5,5,0,0,0,2.15,1.33c.33,0,.77-.3,1.43-1.12,6.88-8.67,9.65-9.18,18.08-10.72,1-.19,2.19-.4,3.9-.74a8.31,8.31,0,0,0,4.45-2.16,13.8,13.8,0,0,0,2.59-4.19c3.52-7.81,7.17-10.28,12.75-14.06.6-.41,1.22-.83,2.51-1.73a1.41,1.41,0,0,0,.36-1.09,6.1,6.1,0,0,0-.51-2.55,6.43,6.43,0,0,0-1.5-2.25,2.31,2.31,0,0,0-1.87-.72,12,12,0,0,0-2.44.91,14.53,14.53,0,0,1-3.47,1.24A7.07,7.07,0,0,1,131,84.71a23.26,23.26,0,0,1-3.57-4.08A5.31,5.31,0,0,0,125.68,79a5,5,0,0,0-3.77-.22,15.83,15.83,0,0,0-5,2.62,40.82,40.82,0,0,0-10.29,11.43A1.94,1.94,0,0,1,103.24,91a45.47,45.47,0,0,1,11.42-12.74,19.69,19.69,0,0,1,6.22-3.22,8.71,8.71,0,0,1,6.62.54,9.17,9.17,0,0,1,3.06,2.73,19.7,19.7,0,0,0,2.92,3.39,3.37,3.37,0,0,0,2.74,1,12.21,12.21,0,0,0,2.55-.94,13.53,13.53,0,0,1,3.42-1.2,6,6,0,0,1,5.09,1.69,10.66,10.66,0,0,1,3.27,7.8,5.05,5.05,0,0,1-2,4.12c-.49.35-1.55,1.07-2.56,1.75-5,3.4-8.31,5.62-11.39,12.45a17,17,0,0,1-3.39,5.35,11.94,11.94,0,0,1-6.44,3.21c-1.18.24-2.63.51-3.94.75-7.35,1.34-9.76,1.78-15.74,9.32-1.57,2-3.08,2.71-4.76,2.58A7.89,7.89,0,0,1,96,127.35c-3.22-2.7,3.24-11.68,5.58-14.93l.5-.7a29.87,29.87,0,0,1,2.68-3c2.11-2.22,4.89-5.13,5.87-7.3a3.81,3.81,0,0,0-.2-2.76c-.68-2.15-1.37-4.31,1-7.3a33.25,33.25,0,0,1,3.74-3.81,46.15,46.15,0,0,1,4.62-3.61Z"/><path class="cls-1" d="M49.58,177.56a1.94,1.94,0,0,1,2,3.33,10.29,10.29,0,0,0-3.26,3.33,11.5,11.5,0,0,0-1.8,4.58,1.94,1.94,0,0,1-3.84-.52A15.72,15.72,0,0,1,45,182.12,14.43,14.43,0,0,1,49.58,177.56Z"/><path class="cls-2" d="M30.46,174.87v0c0-.17,0-.33,0-.5a130,130,0,0,1,11.85-49.72A149.9,149.9,0,0,1,73.76,80.54,1.94,1.94,0,0,1,76.71,83C74.45,86.5,73.16,88.68,73,90.6s.68,3.86,2.68,7.09A10.66,10.66,0,0,1,77.52,103a7.86,7.86,0,0,1-1.57,4.8c-2,2.88-4.37,3.44-7.08,4.08A18.61,18.61,0,0,0,65,113.16c-2.28,1.1-3.35,2.17-3.68,3.37s0,3.07.63,5.28c1.19,4.23-.2,5.77-2.46,8.29l-.18.19a.8.8,0,0,0-.08.74,2.8,2.8,0,0,0,.55,1,2.91,2.91,0,0,0,.92.77,1.11,1.11,0,0,0,1.07.07,10.62,10.62,0,0,0,3.8-4.26,34.65,34.65,0,0,0,2.64-6.55,6.22,6.22,0,0,1,2.15-3.21,5,5,0,0,1,3.14-1,5.77,5.77,0,0,1,3.06,1,7.37,7.37,0,0,1,2.83,3.63q.15.39.24.66A19.69,19.69,0,0,1,79.15,135c-1.42,4.08-4.15,7.69-8.21,9.22l-.6.22c-12.43,3.92-12.91,5.42-15.26,12.76-.48,1.52-1,3.24-1.71,5.13-.87,2.46-2.11,3.89-3.74,4.55a7.5,7.5,0,0,1-5.39-.21,11,11,0,0,0-3.35-.66,5.53,5.53,0,0,0-3.62,1.07,7,7,0,0,0-2.21,3.34,14.48,14.48,0,0,0-.71,4c0,.18,0,.37,0,.55h0a1.94,1.94,0,0,1-3.87-.1v0Z"/><path class="cls-2" d="M96.77,271.3a1.94,1.94,0,1,1-2.14,3.23c-8.94-5.94-14.85-11.49-18.79-17.89S70,243.06,69,233.92c-1.06-9.95-2.69-11.85-7.16-17.07-.69-.8-1.43-1.67-2.1-2.47a19.4,19.4,0,0,1-3.89-9.44,45.3,45.3,0,0,1,.07-13.06,5.57,5.57,0,0,1,1.48-3.17,6,6,0,0,1,3.37-1.7,11.41,11.41,0,0,1,3.55,0,12.88,12.88,0,0,1,6.11,2.39,7.49,7.49,0,0,1,1.66,2.57,21.42,21.42,0,0,1,.86,2.68c.42,1.62,1.1,1.58,2.62,1.48l.49,0a5.93,5.93,0,0,1,5.1,2.3,11.54,11.54,0,0,1,2.29,5.86c.26,2.18,4.25,3,8.08,3.86l2.24.49.65.18a6.43,6.43,0,0,1,4.29,3.74,8,8,0,0,1,.26,4.87c0,.22-.12.45-.2.71a12.67,12.67,0,0,1-2.48,4.38h0A26.39,26.39,0,0,1,93,225.69c-.87.72-.14,1.84.82,3.32l0,.06.09.15a5.23,5.23,0,0,1,.51,4.45,6.28,6.28,0,0,1-2.54,3.22l-.17.1c-1.24.76-2.23,1.27-3.09,1.71-2.94,1.52-4,2-4,9.07a36.68,36.68,0,0,0,2,12.21,16.44,16.44,0,0,0,4.52,7.28c1.73,1.33,3.62,2.67,5.67,4Z"/><path class="cls-2" d="M279,205.34a1.93,1.93,0,1,1-3.85-.38,5.61,5.61,0,0,0-.17-2,7,7,0,0,0-.92-2,1.94,1.94,0,1,1,3.24-2.13,11.16,11.16,0,0,1,1.43,3.15,9.36,9.36,0,0,1,.27,3.34Z"/><path class="cls-2" d="M179.89,162.17a1.94,1.94,0,1,1,1.55-3.55,19.18,19.18,0,0,0,3.13,1,22.06,22.06,0,0,0,3.46.54,1.94,1.94,0,0,1-.31,3.87,27,27,0,0,1-4.06-.65A22.55,22.55,0,0,1,179.89,162.17Z"/><path class="cls-2" d="M272.79,141.84Z"/><path class="cls-2" d="M154,122.31s0,0,0,0Z"/><path class="cls-2" d="M194.06,204.72a5.61,5.61,0,0,0-5.3-1.17c-2.8.67-4.62.38-6-.53s-2.65-2.82-3.94-5c-.85-1.46-1.74-3.29-2.7-5.26-3.25-6.66-7.19-14.75-13.77-17.41a9.09,9.09,0,0,0-4.63-.73,5.15,5.15,0,0,0-3.74,2.32c-.5.75-.8,1.1-1,1.13a7,7,0,0,1-2.55-.95,6.68,6.68,0,0,1-3-2.7c-.93-1.62-.29-2.17-1-4.48a9.29,9.29,0,0,0-3.45-5,8.06,8.06,0,0,0-4-1.33,33,33,0,0,0-4,.62c-3.9.85-9.6,2.09-10.64,5.46-.75,2.4,1.23,4.78.08,5.76a2.37,2.37,0,0,1-2.1.12,16.54,16.54,0,0,0-8.85.25c-3.73,1.14-6.41,3.88-6.4,9.57a33.06,33.06,0,0,0,.28,4.24,24.27,24.27,0,0,0,4.77,12A14.09,14.09,0,0,0,123.53,207a18.15,18.15,0,0,0,2.31-.15,47,47,0,0,1,10.1-.46c2.65.26,4.78.92,5.2,2.35a7.62,7.62,0,0,1,.34,2,2.4,2.4,0,0,1-.34,1.3c-4.47,7-6.7,17-5.7,26.5.88,8.44,4.29,16.51,10.91,21.83a21.31,21.31,0,0,0,5.09,3.15,11.56,11.56,0,0,0,5.21.95c5.17-.32,10.55-5.42,14.82-11.8,5.05-7.57,8.7-17.11,8.48-22.32a11.53,11.53,0,0,1,1.56-5.65,9.6,9.6,0,0,1,3.66-3.92c1.68-.9,3.26-1.58,4.58-2.15,1.07-.47,2-.86,2.85-1.34a7.84,7.84,0,0,0,3.6-6.34,9.11,9.11,0,0,0-.35-3.34A6.47,6.47,0,0,0,194.06,204.72Z"/><path class="cls-4" d="M154,122.29s0,0,0,0Z"/><text class="cls-5" transform="translate(17.06 374.3)"><tspan class="cls-6">P</tspan><tspan x="17.92" y="0">AÍS</tspan><tspan class="cls-7" x="66.62" y="0">E</tspan><tspan x="84.78" y="0">S R</tspan><tspan class="cls-7" x="131.84" y="0">E</tspan><tspan class="cls-8" x="150.01" y="0">C</tspan><tspan x="171.06" y="0">ORRIDOS:</tspan><tspan class="cls-9"><tspan x="124.87" y="50">20</tspan></tspan></text></svg>