<svg id="Capa_1" data-name="Capa 1" xmlns="http://www.w3.org/2000/svg" viewBox="0 0 350 455"><defs><style>.cls-1{font-size:30px;font-family:Raleway-Bold, Raleway;font-weight:700;}.cls-1,.cls-9{fill:#7d60f5;}.cls-2{letter-spacing:-0.01em;}.cls-3{letter-spacing:-0.08em;}.cls-4{letter-spacing:-0.05em;}.cls-5{letter-spacing:-0.06em;}.cls-6{letter-spacing:-0.01em;}.cls-7{letter-spacing:-0.03em;}.cls-8{letter-spacing:-0.01em;}</style></defs><title>quienes</title><text class="cls-1" transform="translate(67.79 373.57)"><tspan class="cls-2">C</tspan><tspan class="cls-3" x="20.28" y="0">A</tspan><tspan class="cls-4" x="37.95" y="0">Y</tspan><tspan x="56.31" y="0">O BOLI</tspan><tspan class="cls-5" x="155.37" y="0">V</tspan><tspan x="173.82" y="0">AR</tspan><tspan class="cls-6" x="13.07" y="40">S</tspan><tspan x="31.1" y="40">AN</tspan><tspan class="cls-7" x="74.14" y="40"> </tspan><tspan x="80.41" y="40">ANDR</tspan><tspan class="cls-8" x="164.89" y="40">E</tspan><tspan x="182.47" y="40">S</tspan></text><path class="cls-9" d="M74.59,299.18c6.81,0,13-1.87,16.93-5,3.92,3.12,10.12,5,16.93,5s13-1.87,16.92-5c3.92,3.12,10.13,5,16.93,5s13-1.87,16.92-5c3.92,3.12,10.13,5,16.93,5s13-1.87,16.93-5c3.92,3.12,10.12,5,16.92,5s13-1.87,16.93-5c3.92,3.12,10.12,5,16.93,5s13-1.87,16.92-5c3.92,3.12,10.13,5,16.93,5,8.06,0,15.29-2.63,18.86-6.85l-3.86-3.26c-2.56,3-8.59,5.06-15,5.06-13.26,0-16.1-6.76-16.93-7.34l-1.93,2.28c-2.55,3-8.58,5.06-15,5.06-13.26,0-16.1-6.76-16.93-7.34-.87.61-3.64,7.34-16.93,7.34s-16.09-6.76-16.92-7.34c-.87.61-3.64,7.34-16.93,7.34s-16.09-6.76-16.93-7.34c-.78.55-3.7,7.34-16.92,7.34s-16.1-6.76-16.93-7.34c-.87.6-3.64,7.34-16.92,7.34s-16.09-6.76-16.93-7.34c-.87.6-3.64,7.34-16.93,7.34-6.41,0-12.44-2-15-5.06l-3.86,3.26C59.31,296.55,66.53,299.18,74.59,299.18Z"/><path class="cls-9" d="M74.59,262.28c6.81,0,13-1.87,16.93-5,3.92,3.12,10.12,5,16.93,5s13-1.87,16.92-5c3.92,3.12,10.13,5,16.93,5s13-1.87,16.92-5c3.92,3.12,10.13,5,16.93,5s13-1.87,16.93-5c3.92,3.12,10.12,5,16.92,5s13-1.87,16.93-5c3.92,3.12,10.13,5,16.93,5s13-1.87,16.92-5c3.92,3.12,10.13,5,16.93,5,8.06,0,15.29-2.63,18.86-6.85l-3.86-3.26c-2.47,2.92-8.18,4.89-14.34,5-1.35-17.51-34.3-31.63-79.32-35.25-4.52-24.89,11.1-66.32,19.77-86.66,8.57,13,4.24,44.58,1.61,56.54l-1.43,6.5,5.38-3.91c26.92-19.57,18.91-50.62,15.87-59.57,11.56-2.65,34.56,15.31,42.93,22.94l4.86,4.42c-1-1.44,3.23-39.64-43.83-45.05,15.62-9.92,40.23-8.43,40.51-8.41l5.57.37-3.4-4.43C271.59,84.8,240.43,95,230,99.16c-.95-11.35-5-20.35-12.07-26.8-12.69-11.6-30.38-10.59-31.13-10.55l-7.68.5,6.49,4.15c14.9,9.54,21.42,24.86,24.11,34.12-26.49-21.46-54.87,2.39-55.18,2.65l-5.39,4.63c1.54.35,45.63-4.6,62.77,18.4-43,41.92-40.79,82.84-39,94.81-1.26,0-2.52,0-3.77.06,1.13-9.17,1.36-35.06-25.47-61.54,2.81-3.48,12-11.87,35.42-11.25l7.09.18-5.37-4.62c-.2-.18-17.91-15.07-35.21-3.39,6.15-17.42,18.4-21,21.17-23.54-7-.42-18.94-2.33-28.78,6.65-4.56,4.16-7.28,9.88-8.1,17-7.86-3-27.38-8.58-37.31,4.33l-3.41,4.43L94.8,149c.16,0,14-.85,23.94,4.17-9.36,1.58-24.79,7-26.63,25.73l-.64,6.54,4.86-4.42c7.63-6.95,20-15.34,26.49-15-2.2,7.1-6.18,26.59,11.06,39.13l5.39,3.92-1.43-6.51c-1.62-7.34-4.26-26.05.09-35,5.76,13.73,15,39.11,12.29,54.64-43.47,4-75,17.88-76.28,35-6.17-.14-11.88-2.11-14.34-5l-3.86,3.26C59.31,259.65,66.53,262.28,74.59,262.28Zm89.7-159.64c10-5.76,29.84-12.83,47.85,7.2l5.3,5.89-.91-7.87c-.13-1.1-3-24.39-21.28-40.46,5.64.89,13.22,3.13,19.3,8.69C226.49,87,225,105.25,225.28,106.84c16-7.42,39.63-14,53.48-3.23-37.1.66-44.82,16.94-47.72,18.36l6.47-.18c1.55-.05,36.09-.63,43.65,27.59-36.53-30-46.32-16.87-47.4-17.12,7.79,18.29,7.24,39.47-7.07,53.61,8.42-51.05-8.24-57.55-8.5-58.6l.12-.11C209,109.36,184.55,103.28,164.29,102.64Zm51.51,26.92h0c-10.17,23.17-26.08,65.08-21.92,92q-7.71-.47-15.8-.52C176.38,211.08,173,171.08,215.8,129.56ZM137.59,160c-.19.64-10.54,5-6,36.17-6-7.33-8.32-18.47-2.23-32.9-1.49-.65-3-2.21-6.83-2.21-7.61,0-17.41,6.51-23.65,11.34,6.21-15.06,25.94-14.78,26.9-14.76l6.44.16c-2.87-1.64-7.44-12.38-30.75-13.74,9.64-5,23.56-.24,33.2,4.22.32-2.14-1.16-13.59,6.78-20.88a22.13,22.13,0,0,1,9.31-4.89c-10.24,10.59-11.94,24.32-12,25l-.91,7.86c2.71-1.56,12.49-21,32.81-11.89C158,144.38,143.47,148.77,137.59,160Zm5,5.73c23.74,25,22.52,48.49,21.45,55.59-2.92.12-5.82.28-8.66.48C157.61,205.38,149.19,181.31,142.63,165.7Zm33.52,60.39c56.4,0,94.85,15.66,97.13,30.8-9.94-1.48-11.16-5.93-12.5-7-.78.55-3.7,7.34-16.92,7.34s-16.09-6.75-16.93-7.34c-.89.62-3.64,7.34-16.93,7.34s-16-6.69-16.92-7.34c-.89.62-3.64,7.34-16.93,7.34s-16.09-6.75-16.93-7.34c-.78.55-3.7,7.34-16.92,7.34s-16.09-6.75-16.93-7.34c-.89.62-3.64,7.34-16.92,7.34s-16-6.69-16.93-7.34c-1.26,1-2.7,5.55-12.49,7C81.31,241.75,119.75,226.09,176.15,226.09Z"/><path class="cls-9" d="M74.59,280.73c6.81,0,13-1.87,16.93-5,3.92,3.12,10.12,5,16.93,5s13-1.87,16.92-5c3.92,3.12,10.13,5,16.93,5s13-1.87,16.92-5c3.92,3.12,10.13,5,16.93,5s13-1.87,16.93-5c3.92,3.12,10.12,5,16.92,5s13-1.87,16.93-5c3.92,3.12,10.13,5,16.93,5s13-1.87,16.92-5c3.92,3.12,10.13,5,16.93,5,8.06,0,15.29-2.63,18.86-6.85l-3.86-3.26c-2.56,3-8.59,5.06-15,5.06-13.26,0-16.09-6.76-16.93-7.35-.78.55-3.7,7.35-16.92,7.35s-16.09-6.76-16.93-7.35c-.89.63-3.64,7.35-16.93,7.35s-16-6.7-16.92-7.35c-.89.63-3.64,7.34-16.93,7.34s-16.09-6.75-16.93-7.34c-.78.55-3.7,7.34-16.92,7.34s-16.09-6.75-16.93-7.34c-.89.62-3.64,7.34-16.92,7.34s-16-6.69-16.93-7.34c-.89.62-3.64,7.34-16.93,7.34-6.41,0-12.44-2-15-5.05l-3.86,3.26C59.31,278.1,66.53,280.73,74.59,280.73Z"/><rect class="cls-9" x="87.75" y="59.18" width="5.05" height="10.95"/><rect class="cls-9" x="69.16" y="66.88" width="5.05" height="10.95" transform="translate(-30.16 71.87) rotate(-45)"/><rect class="cls-9" x="58.51" y="88.41" width="10.95" height="5.05"/><rect class="cls-9" x="66.21" y="107" width="10.95" height="5.05" transform="translate(-56.45 82.77) rotate(-45)"/><rect class="cls-9" x="103.39" y="69.82" width="10.95" height="5.05" transform="translate(-19.27 98.18) rotate(-45)"/><path class="cls-9" d="M133.65,112H118.31v5h15.34a11.06,11.06,0,1,0,0-22.11h-4.3a17.9,17.9,0,0,0-26.18-11.41A14.8,14.8,0,0,0,90.27,76C76.83,76,70.28,92.5,80,101.74A11,11,0,0,0,90.26,117h8.81v-5H90.26a6,6,0,1,1,0-12h8.67l.24-2.25a12.85,12.85,0,0,1,25.55,0L125,100h8.69a6,6,0,1,1,0,12ZM94.54,94.92H90.26a11,11,0,0,0-7.19,2.72,9.86,9.86,0,0,1,7.2-16.56,10,10,0,0,1,8.88,5.56A17.72,17.72,0,0,0,94.54,94.92Z"/><rect class="cls-9" x="104.83" y="111.98" width="5.98" height="5.05"/></svg>