<svg id="Capa_1" data-name="Capa 1" xmlns="http://www.w3.org/2000/svg" viewBox="0 0 350 455"><defs><style>.cls-1{font-size:30px;font-family:Raleway-Bold, Raleway;font-weight:700;}.cls-1,.cls-6{fill:#7d60f5;}.cls-2{letter-spacing:0em;}.cls-3{letter-spacing:-0.03em;}.cls-4{letter-spacing:-0.01em;}.cls-5{letter-spacing:-0.03em;}</style></defs><title>quienes</title><text class="cls-1" transform="translate(120.95 373.57)">CRI<tspan class="cls-2" x="49.11" y="0">S</tspan><tspan class="cls-3" x="67.35" y="0">T</tspan><tspan x="84.93" y="0">O</tspan><tspan x="2.04" y="40">B</tspan><tspan class="cls-4" x="22.44" y="40">RA</tspan><tspan x="61.89" y="40">SI</tspan><tspan class="cls-5" x="88.86" y="40">L</tspan></text><path class="cls-6" d="M187.4,100V72A14.21,14.21,0,0,0,159,72V100H91v2.5a12.13,12.13,0,0,0,12.11,12.11h9.24v9.19h30V171.3h6.68v79.11h-5.42v10.74h-4.55v31.68H113.44v5H234.17v-5H208.53V261.15H204V250.41h-4.27V184.16h6.68V123.82h33.47v-9.19h4.61a12.12,12.12,0,0,0,12.1-12.11V100ZM164,79.29l9.2-7.29,9.21,7.29v8.42c-8.11,5.65-15.81,1.7-18.41,0ZM182.19,105a9.15,9.15,0,0,1-8.93,7.22h-.14A9.14,9.14,0,0,1,164.2,105Zm-6.5-5v-4.5a19.86,19.86,0,0,0,6.71-2V100Zm-2.43-37.19A9.15,9.15,0,0,1,182.4,72v.94l-9.21-7.29L164,72.91V72A9.18,9.18,0,0,1,173.26,62.83ZM164,93.46a23.29,23.29,0,0,0,6.7,2V100H164ZM159.13,105a14.15,14.15,0,0,0,14,12.22h.14a14.14,14.14,0,0,0,14-12.22h21.39v.26c0,13.74-21,20.29-34.87,20.29s-34.85-6.57-34.85-20.29a2.17,2.17,0,0,1,0-.26Zm-56,4.61A7.11,7.11,0,0,1,96.45,105h37.49a2.28,2.28,0,0,0,0,.26c0,4.9,2.17,9.54,6.16,13.54H117.34v-9.19Zm44.27,56.67V124.24a45.45,45.45,0,0,0,8.37,3.62v38.27Zm36.5,51.29V250.4h-7V209h-5V250.4h-7V193.17h-5V250.4h-5.84V182l40.66,24.07v44.3h-5.84V217.59Zm11.26,75.24V273.49h-5v19.34h-7.55V273.49h-5v19.34H170V273.49h-5v19.34h-7.55V273.49h-5v19.34h-8.4V266.15h59.45v26.68Zm-46.5-31.68v-5.74H199v5.74Zm46.08-60.86L154,176.23V171.3l6.7-.17v-13l12,10.46,3.29-3.76-15.28-13.33V129.17a61.72,61.72,0,0,0,27.29-.26v17.61l-7.8-7.79-3.53,3.54L188,153.58v4.2l-8-8-3.53,3.54L188,164.85v19.31h6.68v16.13Zm6.68-21.13L193,179V127.45a44.2,44.2,0,0,0,7.93-3.63h.43Zm43.08-69.53h-9.61v9.19H207.49c4-4,6.15-8.64,6.15-13.54,0-.09,0-.17,0-.26h37.49A7.11,7.11,0,0,1,244.47,109.63Z"/><rect class="cls-6" x="206.03" y="230.64" width="7.99" height="5"/><path class="cls-6" d="M219.92,235.64h44.44v-2.5a14.34,14.34,0,0,0-18.85-13.59,23.08,23.08,0,0,0-43.24-4.14l4.53,2.13a18.07,18.07,0,0,1,34.33,5.92l.4,4.09,3.45-2.24a9.36,9.36,0,0,1,14,5.33H219.92Z"/><rect class="cls-6" x="92.26" y="170.26" width="6.68" height="5"/><path class="cls-6" d="M63.08,172.76v2.5H86.56v-5h-18A7.4,7.4,0,0,1,78.36,166l3,1.23.46-3.19a14.67,14.67,0,0,1,29.12.7l.4,4.09,3.45-2.24a7.4,7.4,0,0,1,10.94,3.69H103.87v5h27.26v-2.5a12.38,12.38,0,0,0-15.86-11.87,19.68,19.68,0,0,0-37.83-.33A12.37,12.37,0,0,0,63.08,172.76Z"/><rect class="cls-6" x="249.23" y="158.37" width="6.68" height="5"/><path class="cls-6" d="M288.1,160.87A12.39,12.39,0,0,0,272.24,149a19.69,19.69,0,0,0-37.83-.33,12.37,12.37,0,0,0-14.36,12.2v2.5h23.48v-5H225.48a7.39,7.39,0,0,1,9.85-4.28l3,1.23.46-3.18a14.67,14.67,0,0,1,29.12.69l.4,4.09,3.45-2.24a7.4,7.4,0,0,1,10.94,3.69H260.84v5H288.1Z"/></svg>