<svg id="Capa_1" data-name="Capa 1" xmlns="http://www.w3.org/2000/svg" viewBox="0 0 350 455"><defs><style>.cls-1{font-size:30px;font-family:Raleway-Bold, Raleway;font-weight:700;}.cls-1,.cls-5{fill:#7d60f5;}.cls-2{letter-spacing:-0.03em;}.cls-3{letter-spacing:-0.02em;}.cls-4{letter-spacing:-0.05em;}</style></defs><title>quienes</title><text class="cls-1" transform="translate(78.15 373.57)">N<tspan class="cls-2" x="22.89" y="0">O</tspan><tspan x="44.58" y="0">TRE </tspan><tspan class="cls-3" x="108.33" y="0">D</tspan><tspan x="129.06" y="0">AME</tspan><tspan class="cls-4" x="54.39" y="40">P</tspan><tspan x="71.73" y="40">ARIS</tspan></text><path class="cls-5" d="M176,198.56c14.16,0,24.12-13.19,22.66-23.43A22.68,22.68,0,1,0,176,198.56ZM162,186.77l7.32-4.22a9.28,9.28,0,0,0,4.09,2.33v8.49A17.7,17.7,0,0,1,162,186.77Zm-3.78-10.9a17.67,17.67,0,0,1,1.28-6.6l7.34,4.23a8.33,8.33,0,0,0,0,4.71l-7.34,4.23A17.52,17.52,0,0,1,158.26,175.87ZM176,171.45a4.41,4.41,0,1,1-4.41,4.41A4.42,4.42,0,0,1,176,171.45Zm2.5,21.92v-8.49a9.28,9.28,0,0,0,4.09-2.33l7.31,4.22A17.27,17.27,0,0,1,178.45,193.37Zm15.2-17.61a14.23,14.23,0,0,1-1.32,6.67L185,178.21a8.33,8.33,0,0,0,0-4.71l7.34-4.23A18.57,18.57,0,0,1,193.65,175.76Zm-3.8-10.82-7.31,4.22a9.38,9.38,0,0,0-4.09-2.33v-8.49A17.45,17.45,0,0,1,189.85,164.94Zm-16.4-6.6v8.49a9.38,9.38,0,0,0-4.09,2.33l-7.31-4.22A17.7,17.7,0,0,1,173.45,158.34Z"/><polygon class="cls-5" points="162.57 119.79 162.57 59.63 146.14 59.63 146.14 70.97 138.89 70.97 138.89 59.63 123.11 59.63 123.11 70.97 115.83 70.97 115.83 59.63 99.43 59.63 99.43 119.59 104.43 119.59 104.43 64.63 110.83 64.63 110.83 75.97 128.12 75.97 128.12 64.63 133.89 64.63 133.89 75.97 151.14 75.97 151.14 64.63 157.57 64.63 157.57 119.79 162.57 119.79"/><polygon class="cls-5" points="252.5 119.79 252.5 59.63 236.06 59.63 236.06 70.97 228.81 70.97 228.81 59.63 213.04 59.63 213.04 70.97 205.76 70.97 205.76 59.63 189.36 59.63 189.36 119.59 194.36 119.59 194.36 64.63 200.76 64.63 200.76 75.97 218.04 75.97 218.04 64.63 223.81 64.63 223.81 75.97 241.06 75.97 241.06 64.63 247.5 64.63 247.5 119.79 252.5 119.79"/><path class="cls-5" d="M128.83,119.79V101.36a10.18,10.18,0,0,0-20.36,0v18.43h5V101.36a5.18,5.18,0,0,1,10.36,0v18.43Z"/><path class="cls-5" d="M153.07,119.79V101.36a10.18,10.18,0,0,0-20.36,0v18.43h5V101.36a5.18,5.18,0,0,1,10.36,0v18.43Z"/><path class="cls-5" d="M219,119.79V101.36a10.18,10.18,0,0,0-20.36,0v18.43h5V101.36a5.18,5.18,0,0,1,10.36,0v18.43Z"/><path class="cls-5" d="M243.23,119.79V101.36a10.18,10.18,0,1,0-20.36,0v18.43h5V101.36a5.18,5.18,0,1,1,10.36,0v18.43Z"/><path class="cls-5" d="M296,294.63H257.81V225.69H272l-8.86-23.59H252.49V149.93h0V124.79H99.42v25.14h0V202.1H88.76L79.9,225.69H94.12v68.94H56v5H296Zm-67-149.7V129.79h6.21v15.14Zm-5,0h-6.22V129.79h6.22Zm-11.22,0H206.5V129.79h6.21Zm-11.21,0h-6.21V129.79h6.21Zm-11.21,0h-6.22V129.79h6.22Zm-11.22,0h-6.21V129.79h6.21Zm-11.21,0h-6.22V129.79h6.22Zm-11.22,0h-6.21V129.79h6.21Zm-11.21,0h-6.22V129.79h6.22Zm-11.22,0H128V129.79h6.21Zm-11.21,0h-6.21V129.79H123Zm124.5,0h-7.36V129.79h7.36ZM104.42,129.79h7.37v15.14h-7.37ZM252.81,294.63h-4.45V281.15c0-12-5.57-23.58-15.42-31.78l-1.57-1.18-1.52,1.25a41.39,41.39,0,0,0-15.51,31.86v13.33h-6V225.69h44.47Zm-33.47,0V281.3a36.16,36.16,0,0,1,12.1-26.61,36.17,36.17,0,0,1,11.92,26.46v13.48Zm-58,0v-15.1c0-11.29,5.34-22.14,14.7-30.07,9.25,7.91,14.51,18.71,14.51,29.9v15.27Zm16.24-50.37-1.53-1.19-1.53,1.19c-11.55,9-18.18,21.82-18.18,35.27v15.1h-7.78V225.69h54.76v68.94h-7.77V279.36C195.57,266,189,253.25,177.6,244.26Zm-73.17-94.33H247.49V202.1h-7.35V188.62c0-21-17.23-32.35-17.75-33-.57.67-18,11.51-18,33.12V202.1H147.54V188.62c0-12.07-5.91-23.63-16.22-31.74l-1.53-1.23-1.56,1.21c-10.45,8.11-16.44,19.75-16.44,31.91V202.1h-7.36V149.93Zm38.11,52.17H116.79V188.77c0-10,4.7-19.63,13-26.7,8.15,7.05,12.79,16.63,12.79,26.55V202.1Zm92.6,0H209.39V188.77c0-10,4.7-19.63,13-26.7,8.15,7.05,12.78,16.63,12.78,26.55V202.1Zm-148,18.59,5.11-13.59c16.76,0,158.08,0,167.47,0l5.11,13.59h-6.68v-7.52h-5v7.52h-7.94v-7.52h-5v7.52h-7.94v-7.52h-5v7.52h-7.93v-7.52h-5v7.52h-7.94v-7.52h-5v7.52h-7.94v-7.52h-5v7.52H180.5v-7.52h-5v7.52h-7.93v-7.52h-5v7.52h-7.94v-7.52h-5v7.52h-7.94v-7.52h-5v7.52h-7.94v-7.52h-5v7.52h-7.93v-7.52h-5v7.52h-7.94v-7.52h-5v7.52Zm12,5h44.46v68.94h-5.23V281.15A41.39,41.39,0,0,0,123,249.45l-1.59-1.33-1.6,1.32a41.37,41.37,0,0,0-15.52,31.86v13.33H99.12Zm10.21,68.94V281.3a36.16,36.16,0,0,1,12.1-26.61,36.17,36.17,0,0,1,11.92,26.46v13.48Z"/><rect class="cls-5" x="133.7" y="237.41" width="4.94" height="5"/><rect class="cls-5" x="104.06" y="237.41" width="4.94" height="5"/><rect class="cls-5" x="123.82" y="237.41" width="4.94" height="5"/><rect class="cls-5" x="113.94" y="237.41" width="4.94" height="5"/><rect class="cls-5" x="242.93" y="237.41" width="4.94" height="5"/><rect class="cls-5" x="233.05" y="237.41" width="4.94" height="5"/><rect class="cls-5" x="213.29" y="237.41" width="4.94" height="5"/><rect class="cls-5" x="223.17" y="237.41" width="4.94" height="5"/><rect class="cls-5" x="153.56" y="230.73" width="4.98" height="5"/><rect class="cls-5" x="163.52" y="230.73" width="4.98" height="5"/><rect class="cls-5" x="193.39" y="230.73" width="4.98" height="5"/><rect class="cls-5" x="173.47" y="230.73" width="4.98" height="5"/><rect class="cls-5" x="183.43" y="230.73" width="4.98" height="5"/><path class="cls-5" d="M92.4,163.63H59.45c2.81-10.66,15.1-5.58,16.31-5.3l.46-3.18A19,19,0,0,1,94.92,139v-5a24,24,0,0,0-23.07,17.63,14.8,14.8,0,0,0-17.72,14.51v2.5H92.4Z"/><path class="cls-5" d="M297.42,101.59a14.81,14.81,0,0,0-19.59-14,24.06,24.06,0,0,0-20.38-18l-.58,5A19,19,0,0,1,273.45,91.5l.4,4.1,3.45-2.24a9.83,9.83,0,0,1,14.81,5.73H256.64v5h40.78Z"/></svg>