<svg id="Capa_1" data-name="Capa 1" xmlns="http://www.w3.org/2000/svg" viewBox="0 0 350 455"><defs><style>.cls-1{font-size:30px;font-family:Raleway-Bold, Raleway;font-weight:700;}.cls-1,.cls-7{fill:#7d60f5;}.cls-2{letter-spacing:-0.03em;}.cls-3{letter-spacing:-0.02em;}.cls-4{letter-spacing:-0.03em;}.cls-5{letter-spacing:-0.01em;}.cls-6{letter-spacing:-0.03em;}</style></defs><title>quienes</title><text class="cls-1" transform="translate(41.48 373.57)"><tspan class="cls-2">T</tspan><tspan x="17.58" y="0">ORRE INCLINA</tspan><tspan class="cls-3" x="226.59" y="0">D</tspan><tspan class="cls-4" x="247.32" y="0">A</tspan><tspan x="101.01" y="40">PI</tspan><tspan class="cls-5" x="128.28" y="40">S</tspan><tspan class="cls-6" x="146.31" y="40">A</tspan></text><rect class="cls-7" x="106.77" y="140.34" width="5.49" height="5"/><rect class="cls-7" x="115.56" y="140.34" width="10.98" height="5"/><path class="cls-7" d="M256.55,207.43H286v-2.5a14.42,14.42,0,0,0-14.4-14.4h-6.82a23.92,23.92,0,0,0-37.27-14.69l2.9,4.08a18.91,18.91,0,0,1,29.75,13.38l.24,2.23h11.2a9.43,9.43,0,0,1,9.07,6.9H256.55Z"/><rect class="cls-7" x="246.78" y="202.43" width="5.13" height="5"/><rect class="cls-7" x="233.26" y="202.43" width="9.16" height="5"/><path class="cls-7" d="M289.36,299.83v-5H225.15l1.75-20.44a11,11,0,0,0-10-11.87l-1.8-.16,1.81-21h0l7.69.66.43-5-7.69-.66,1.81-21h0l7.69.66.43-5-7.69-.66,1.82-21h0l7.68.66.43-5-7.68-.66,1.81-21h0l7.69.66.43-5-7.69-.66,1.81-21h0l7.69.67.43-5-7.69-.67,1.81-21,7.69.67.43-5L224,106.29l3-34.21,8.27.72.43-5-92.42-8-.43,5,8.27.71-3,34.21-16.33-1.41-.43,5,7.68.66-1.81,21h0l-7.69-.66-.43,5,7.69.66-1.81,21h0l-7.69-.66-.43,5,7.69.66-1.81,21h0l-7.69-.67-.43,5,7.69.66-1.82,21h0l-7.68-.67-.43,5,7.68.66-1.81,21h0l-7.69-.67-.43,5,7.69.67-1.81,21-1.78-.15a10.92,10.92,0,0,0-11.88,10l-2.63,30.32H59.33v5Zm-139.2-5,1.06-12.42a5.08,5.08,0,0,1,5.58-4.68,5.14,5.14,0,0,1,4.66,5.1,3.64,3.64,0,0,1,0,.45l-1,11.55Zm24.3,0,.9-10.34a5.13,5.13,0,0,1,10.25.42,3.78,3.78,0,0,1,0,.45l-.82,9.47Zm24.32,0,.7-8.25a5.13,5.13,0,0,1,10.25.41,4,4,0,0,1,0,.47l-.64,7.37ZM169.26,101.55l-1.48-.12-5-.44,1.31-15.14a3.18,3.18,0,0,1,3.15-2.9l.46,0a3.16,3.16,0,0,1,2.88,3.43ZM156.09,66,222,71.65l-2.95,34.21-4.65-.41,1.31-15.14a8.26,8.26,0,0,0-16.46-1.42L198,104l-3.63-.31,1.31-15.14a8.26,8.26,0,0,0-16.46-1.43l-1.31,15.15-3.62-.32,1.31-15.14a8.26,8.26,0,0,0-16.46-1.42l-1.31,15.14-4.65-.4Zm46.84,38.51,1.31-15.14a3.18,3.18,0,0,1,3.15-2.9l.46,0a3.16,3.16,0,0,1,2.88,3.43L209.43,105Zm-20.09-1.73,1.31-15.14a3.2,3.2,0,0,1,3.16-2.91l.45,0a3.17,3.17,0,0,1,2.89,3.43l-1.31,15.15Zm-38.79,1.66,79.13,6.84-1.81,21-9-.78,1.28-14.77-5-.43L207.4,131l-9.06-.78,1.28-14.77-5-.43-1.28,14.77L184.3,129l1.27-14.78-5-.42-1.27,14.77-9.06-.79L171.53,113l-5-.43-1.27,14.77-9.07-.78,1.28-14.77-5-.43-1.28,14.77-9-.78Zm-2.24,26,79.13,6.84-1.81,21-9-.78,1.28-14.77-5-.43-1.28,14.77-9.06-.78,1.27-14.77-5-.43-1.27,14.77-9.07-.78,1.28-14.78-5-.43-1.28,14.77-9.06-.78L169.29,139l-5-.43L163,153.3l-9.06-.78,1.28-14.77-5-.43L149,152.09l-9-.78Zm-2.24,25.95,79.13,6.84-1.81,21-9-.78,1.27-14.77-5-.43-1.27,14.77-9.07-.78,1.28-14.77-5-.43-1.28,14.77-9.06-.79,1.28-14.77-5-.43-1.28,14.77-9.06-.78,1.28-14.77-5-.43-1.28,14.77-9.06-.78L153,163.7l-5-.43L146.75,178l-9-.78Zm-2.24,26,79.13,6.84-1.82,21-9-.78,1.28-14.77-5-.43-1.28,14.77-9.06-.78,1.28-14.77-5-.43-1.28,14.77-9.06-.79,1.28-14.77-5-.43-1.28,14.77-9.06-.78,1.27-14.77-5-.43-1.27,14.77-9.06-.78,1.27-14.78-5-.43L144.51,204l-9-.77Zm-2.25,25.95L214.21,215l-1.81,21-9-.78,1.28-14.77-5-.43-1.28,14.77-9.06-.78,1.28-14.78-5-.43-1.27,14.77-9.06-.78L176.6,218l-5-.43-1.27,14.77-9.07-.78,1.28-14.77-5-.43-1.28,14.77-9.06-.79,1.28-14.77-5-.43-1.28,14.77-9-.77Zm-2.24,25.95L212,241l-1.81,21-9-.77,1.28-14.76-5-.43-1.27,14.76-9.06-.78,1.27-14.77-5-.43-1.27,14.77-9.06-.79L174.36,244l-5-.43L168.1,258.3l-9.06-.78,1.28-14.76-5-.43-1.28,14.76-9.06-.78,1.28-14.77-5-.43L140,255.88l-9-.78Zm-18.06,60.7L117.37,265a5.94,5.94,0,0,1,5.93-5.47c.34,0,3.16.23,93.2,8a6,6,0,0,1,5.42,6.46l-1.78,20.87h-6l.6-6.88c0-.32,0-.64,0-1a10.13,10.13,0,0,0-20.23-.84l-.74,8.68h-4l.78-9c0-.32,0-.61,0-.93a10.13,10.13,0,0,0-20.23-.85l-.94,10.77h-4l.95-11.05a7.55,7.55,0,0,0,0-.95,10.13,10.13,0,0,0-20.22-.85l-1.1,12.85h-4l1.15-13.13a7.55,7.55,0,0,0,0-.95,10.13,10.13,0,0,0-20.22-.88l-1.3,15Zm11.06,0,1.26-14.53a5.12,5.12,0,0,1,5.07-4.67,4,4,0,0,1,.48,0,5.15,5.15,0,0,1,4.69,5.1,3.46,3.46,0,0,1,0,.44l-1.2,13.64Z"/><path class="cls-7" d="M79,114a14,14,0,0,0,9,13.14c-.07.3-.16.6-.22.91H80.67a14.8,14.8,0,0,0-14.79,14.79v2.5h37.71v-5H71.2a9.81,9.81,0,0,1,9.47-7.29H92.14l.24-2.23a19.64,19.64,0,0,1,35.24-9.65l4-3A24.51,24.51,0,0,0,106.28,109,14.12,14.12,0,0,0,79,114Zm14.13-9.1a9.07,9.07,0,0,1,8.44,5.69,24.61,24.61,0,0,0-11.91,11.82A9.09,9.09,0,0,1,93.1,104.9Z"/><rect class="cls-7" x="90.6" y="86.16" width="5" height="8.36"/><rect class="cls-7" x="73.87" y="93.09" width="5" height="8.37" transform="translate(-46.42 82.52) rotate(-45.01)"/><rect class="cls-7" x="65.26" y="111.51" width="8.36" height="5"/><rect class="cls-7" x="105.66" y="94.78" width="8.37" height="5" transform="translate(-36.62 106.13) rotate(-44.99)"/></svg>