<svg id="Capa_1" data-name="Capa 1" xmlns="http://www.w3.org/2000/svg" viewBox="0 0 350 455"><defs><style>.cls-1{fill:#b9cead;}.cls-2{fill:none;stroke:#f3b244;stroke-miterlimit:10;stroke-width:9.84px;}.cls-3{font-size:31px;fill:#f3b244;font-family:Raleway-Bold, Raleway;font-weight:700;}.cls-4{letter-spacing:-0.01em;}.cls-5{letter-spacing:-0.03em;}.cls-6{letter-spacing:-0.07em;}.cls-7{font-size:57px;}</style></defs><title>quienes</title><path class="cls-1" d="M305.71,284.52V269.64c0-2.59-2.77-5-5.82-5H273.71v-2a45.7,45.7,0,0,1-11.32.25l-.32,0v1.74H250.44v-2.57c-2.91-.16-5.84-.26-8.84-.24l-2.8,0v2.79H221.35v-2.57l-11.64.18v2.39H198.07v-2.21c-3.4,0-6.8.09-10.21.11h-1.42v2.09H169v-2l-11.63.08v1.89H145.71v-1.81l-11.64.07v1.74H116.62V263l-11.64.05v1.6H93.35V263.1l-11.64,0v1.56H55.53c-3.05,0-5.82,2.37-5.82,5v14.88c-3.05,0-5.82,2.37-5.82,5v19.85c0,2.59,2.77,5,5.82,5h256c3.05,0,5.82-2.37,5.82-5V289.48C311.53,286.89,308.76,284.52,305.71,284.52ZM61.35,274.6H294.07v9.92H61.35Zm238.54,29.77H55.53v-9.93H299.89Z"/><path class="cls-1" d="M303.16,128.34,181,31.37a4.61,4.61,0,0,0-3.27-1.08,5.79,5.79,0,0,0-3.27,1.08l-122.18,97a7.94,7.94,0,0,0-2.46,7.91c.74,2.87,3.21,4.94,5.73,4.87H81.71v2.28l11.64-.1v-2.18H105v2.07l11.64-.08v-2h17.45V143l11.64-.06v-1.81h11.64v1.76l11.63,0v-1.72h17.46v1.67l11.63,0v-1.65h11.64v1.63l11.64,0v-1.61H238.8v1.6h11.64v-1.6h11.63v1.59h11.64v-1.59h26.18c2.52.08,5-2,5.73-4.87A7.92,7.92,0,0,0,303.16,128.34ZM74.8,127.26,177.71,45.55l102.91,81.71Z"/><line class="cls-2" x1="87.58" y1="141.12" x2="87.58" y2="265.8"/><line class="cls-2" x1="110.72" y1="141.12" x2="110.72" y2="265.8"/><line class="cls-2" x1="139.96" y1="141.12" x2="139.96" y2="265.8"/><line class="cls-2" x1="163.1" y1="141.12" x2="163.1" y2="265.8"/><line class="cls-2" x1="192.32" y1="141.12" x2="192.32" y2="265.8"/><line class="cls-2" x1="215.45" y1="141.12" x2="215.45" y2="265.8"/><line class="cls-2" x1="244.69" y1="141.12" x2="244.69" y2="265.8"/><line class="cls-2" x1="267.83" y1="141.12" x2="267.83" y2="265.8"/><text class="cls-3" transform="translate(23.3 374.3)">MUS<tspan class="cls-4" x="69.07" y="0">E</tspan><tspan x="87.23" y="0">OS</tspan><tspan class="cls-5" x="129.67" y="0"> </tspan><tspan x="136.06" y="0">VISI</tspan><tspan class="cls-6" x="193.75" y="0">T</tspan><tspan x="210.77" y="0">ADOS:</tspan><tspan class="cls-7"><tspan x="122.08" y="50">15</tspan></tspan></text></svg>