<svg id="Capa_1" data-name="Capa 1" xmlns="http://www.w3.org/2000/svg" viewBox="0 0 350 455"><defs><style>.cls-1{font-size:30px;font-family:Raleway-Bold, Raleway;font-weight:700;}.cls-1,.cls-4{fill:#7d60f5;}.cls-2{letter-spacing:-0.01em;}.cls-3{letter-spacing:-0.03em;}</style></defs><title>quienes</title><text class="cls-1" transform="translate(102.62 373.57)">CRUCERO<tspan x="20.37" y="40">B</tspan><tspan class="cls-2" x="40.77" y="40">RA</tspan><tspan x="80.22" y="40">SI</tspan><tspan class="cls-3" x="107.19" y="40">L</tspan></text><path class="cls-4" d="M287.92,203a54,54,0,0,1-42.38,5.53l-1.39,5a59.13,59.13,0,0,0,46.36-6Z"/><path class="cls-4" d="M203.22,210.54a55.82,55.82,0,0,1-30-8.38l-1.38.79c-18.92,10.93-40.28,9.67-56.64-.79l-1.39.79a54.2,54.2,0,0,1-55.3.08l-2.85,4.33a59.35,59.35,0,0,0,59.4.84c16.62,9.51,38.45,10.73,58,0a61.37,61.37,0,0,0,30.16,7.53Z"/><path class="cls-4" d="M287.92,214.89a54.51,54.51,0,0,1-48,3.66l-1.9,4.82a59.55,59.55,0,0,0,52.47-4Z"/><path class="cls-4" d="M194.87,222a54,54,0,0,1-21.61-7.87l-1.38.8c-18.95,11-40.31,9.65-56.64-.8l-1.39.8a54.2,54.2,0,0,1-55.3.08L55.7,219.3c1.15.75,28,18,59.4.83,16.56,9.48,38.42,10.76,58,0a60.9,60.9,0,0,0,21,7Z"/><path class="cls-4" d="M287.92,227.88a54.15,54.15,0,0,1-51,2.38l-2.17,4.7a59.83,59.83,0,0,0,55.74-2.59Z"/><path class="cls-4" d="M191.12,234.29a52.86,52.86,0,0,1-17.86-7.2l-1.38.79c-18.92,10.93-40.28,9.67-56.64-.79l-1.39.79a54.2,54.2,0,0,1-55.3.08l-2.85,4.33a59.35,59.35,0,0,0,59.4.84c16.61,9.5,38.45,10.74,58,0a60,60,0,0,0,16.93,6.24Z"/><path class="cls-4" d="M232.62,239.9l-2.85,4.33c15.68,10.35,40,12.09,60.74.08l-2.59-4.49A54.2,54.2,0,0,1,232.62,239.9Z"/><path class="cls-4" d="M171.88,239.82c-18.95,11-40.31,9.65-56.64-.8l-1.39.8a54.2,54.2,0,0,1-55.3.08l-2.85,4.33c1.15.75,28,18,59.4.83,16.62,9.51,38.46,10.74,58,0a59.49,59.49,0,0,0,13.23,5.35l1.38-5A50.27,50.27,0,0,1,173.26,239Z"/><path class="cls-4" d="M287.92,191a53.85,53.85,0,0,1-32.2,7.39l-.45,5.16a58.94,58.94,0,0,0,35.24-8.06Z"/><path class="cls-4" d="M178.91,172.82l-7-25.65H161.8l-9.07-19.4H84.25v19.4H75.08l-7,25.65H59.22l6.76,22a43.73,43.73,0,0,1-7.43-3.68l-2.85,4.33a59.35,59.35,0,0,0,59.4.84c16.55,9.47,38.38,10.78,58,0a60.74,60.74,0,0,0,37.4,7l-.72-5.13a52.56,52.56,0,0,1-13.22.17l7.84-25.44ZM89.43,133h60l6.65,14.22H89.43V133ZM79,152.35H168l5.58,20.47H73.45Zm94.23,37.87-1.38.79c-18.94,11-40.31,9.66-56.64-.79A54.31,54.31,0,0,1,72,196.76L66.24,178H197.42l-6,19.44A53.42,53.42,0,0,1,173.26,190.22Z"/><rect class="cls-4" x="74.55" y="182.34" width="8.74" height="5.18"/><rect class="cls-4" x="89.66" y="182.34" width="8.74" height="5.18"/><rect class="cls-4" x="104.78" y="182.34" width="8.74" height="5.18"/><rect class="cls-4" x="119.9" y="182.34" width="8.74" height="5.18"/><rect class="cls-4" x="135.01" y="182.34" width="8.74" height="5.18"/><rect class="cls-4" x="150.13" y="182.34" width="8.74" height="5.18"/><rect class="cls-4" x="165.24" y="182.34" width="8.74" height="5.18"/><rect class="cls-4" x="180.36" y="182.34" width="8.74" height="5.18"/><rect class="cls-4" x="83.17" y="156.01" width="6.52" height="5.18"/><rect class="cls-4" x="95.52" y="156.01" width="6.52" height="5.18"/><rect class="cls-4" x="107.88" y="156.01" width="6.52" height="5.18"/><rect class="cls-4" x="120.24" y="156.01" width="6.52" height="5.18"/><rect class="cls-4" x="132.59" y="156.01" width="6.52" height="5.18"/><rect class="cls-4" x="144.95" y="156.01" width="6.52" height="5.18"/><rect class="cls-4" x="157.3" y="156.01" width="6.52" height="5.18"/><rect class="cls-4" x="83.17" y="163.98" width="6.52" height="5.18"/><rect class="cls-4" x="95.52" y="163.98" width="6.52" height="5.18"/><rect class="cls-4" x="107.88" y="163.98" width="6.52" height="5.18"/><rect class="cls-4" x="120.24" y="163.98" width="6.52" height="5.18"/><rect class="cls-4" x="132.59" y="163.98" width="6.52" height="5.18"/><rect class="cls-4" x="144.95" y="163.98" width="6.52" height="5.18"/><rect class="cls-4" x="157.3" y="163.98" width="6.52" height="5.18"/><rect class="cls-4" x="92.6" y="137.37" width="5.18" height="5.38"/><rect class="cls-4" x="101.11" y="137.37" width="5.18" height="5.38"/><rect class="cls-4" x="109.63" y="137.37" width="5.18" height="5.38"/><rect class="cls-4" x="118.14" y="137.37" width="5.18" height="5.38"/><rect class="cls-4" x="126.64" y="137.37" width="5.18" height="5.38"/><rect class="cls-4" x="135.16" y="137.37" width="5.18" height="5.38"/><rect class="cls-4" x="143.67" y="137.37" width="5.18" height="5.38"/><path class="cls-4" d="M80.71,97.13h5.16C86,96.2,86.94,88,95.06,88V82.77a13.25,13.25,0,0,0-11.77,6.34,13.25,13.25,0,0,0-11.77-6.34V88C79.64,88,80.62,96.2,80.71,97.13Z"/><path class="cls-4" d="M213.7,60.51V65.7c10.37,0,11.47,11,11.51,11.45h5.16c0-.47,1.06-11.45,11.51-11.45V60.51a15.44,15.44,0,0,0-14.09,8.07A15.44,15.44,0,0,0,213.7,60.51Z"/><path class="cls-4" d="M136.2,85.36a13,13,0,1,0,13-13A13.06,13.06,0,0,0,136.2,85.36Zm13-7.86a7.87,7.87,0,1,1-7.86,7.86A7.88,7.88,0,0,1,149.24,77.5Z"/><rect class="cls-4" x="146.65" y="58.55" width="5.18" height="9.24"/><rect class="cls-4" x="130.96" y="65.05" width="5.18" height="9.24" transform="translate(-10.15 114.84) rotate(-45)"/><rect class="cls-4" x="122.42" y="82.77" width="9.24" height="5.18"/><rect class="cls-4" x="128.93" y="98.47" width="9.24" height="5.18" transform="translate(-32.35 124.03) rotate(-45)"/><rect class="cls-4" x="146.65" y="102.94" width="5.18" height="9.24"/><rect class="cls-4" x="162.35" y="96.44" width="5.18" height="9.24" transform="translate(-23.15 146.23) rotate(-45)"/><rect class="cls-4" x="166.82" y="82.77" width="9.24" height="5.18"/><rect class="cls-4" x="160.32" y="67.08" width="9.24" height="5.18" transform="translate(-0.95 137.03) rotate(-45)"/><path class="cls-4" d="M292.68,298.55v-5.19h-74.1c-7.12-25.14,5-69,25.28-90.11,12.71-13.23,25.41-35.87,14.22-68.74a13.55,13.55,0,0,0,1.61-6c29.06-7.29,37.7,27.57,41.2,31.49-1.1-12.58-1.88-40.6-19.7-49.3-6.73-3.28-14.69-2.63-23.71,1.78,11-23.12,24.31-31,26.92-33.69-11.31-2.4-23.46-3.45-33.91,5.12-7.24,5.94-11.22,15.32-11.88,27.92-9.55-8.26-19.07-11.9-28.38-10.8-15.33,1.81-24.08,15.8-24.45,16.4L183,122c3,0,18.62-3.76,41.73,3.59-10.54,2.17-17.6,6.75-20.94,13.75-7.79,16.34,7.82,39.06,8.49,40l7.6,10.92-3-13c-5.77-25.37,7.14-35.47,19.24-39.47a13.84,13.84,0,0,0,3.62,2.57,8.22,8.22,0,0,0,.57,1.26c3.66,6.72,8.88,25.78-21.57,57.53-29.88,31.15-30.52,75.14-25.94,94.21H141.11v-9.64h11.06V268.18H86.76l-9.45-13.13-12.63,9.09,14.14,19.58H92.48v9.64H53.66v5.19ZM196,269.27A112.79,112.79,0,0,1,205,229.59c2.21,5.23,6.84,8,13.9,6.57a128.52,128.52,0,0,0-7.24,33.12C206.09,274.67,200.5,275.55,196,269.27Zm44.42-70c-4.92,2.24-8.38.25-10.65-4.68,7.21-8.69,11.83-16.45,14.65-23.26,3.16,2.39,7,2.83,11.14.78A60.11,60.11,0,0,1,240.46,199.29Zm13.65-60.13a65.57,65.57,0,0,1,2.74,25.74c-2.53,2.4-4.88,3.54-6.86,3.33a5.74,5.74,0,0,1-3.63-2.17c3.35-11.08,1.84-19.19-.16-24.2A13.7,13.7,0,0,0,254.11,139.16Zm24.8-23.77c6.95,3.38,10.91,11.72,13.12,19-11.27-13.08-24.47-13.06-33.18-11a13.87,13.87,0,0,0-2.61-4.36C265.27,113.72,272.9,112.46,278.91,115.39ZM253.74,88c6.07-5,13.75-5.85,18.87-5.75-9.15,8.81-16.39,19.69-22,33a13.63,13.63,0,0,0-4.62-.86,13.83,13.83,0,0,0-2.24.23C243.93,102.28,247.27,93.3,253.74,88Zm-60.09,27.85c13.22-14.31,28.66-12.16,43.54,1.79a13.64,13.64,0,0,0-4,5.41C219.73,117.79,206.46,115.36,193.65,115.82Zm16.69,48.9c-8.57-20.51-2-32.82,22-35.08a13.65,13.65,0,0,0,.88,3.68C223.54,136.86,210.68,145.22,210.34,164.72ZM246,119.54a8.58,8.58,0,1,1-8.58,8.58A8.58,8.58,0,0,1,246,119.54Zm-23.42,83.2c1.27-1.34,2.47-2.64,3.63-3.94,2.15,3.5,5.07,6,9.13,6.48a107.41,107.41,0,0,0-14.12,24.81c-8.45,3.21-12.54.16-12.52-8.17A87.52,87.52,0,0,1,222.55,202.74ZM196,276.42c4.58,3.23,9.88,3.34,15.34-.25a69.47,69.47,0,0,0,1.88,17.19h-15A73.14,73.14,0,0,1,196,276.42Zm-88,16.94v-9.64h17.54v9.64Zm27.91,0h-5.18v-9.64h5.18ZM81.47,278.54l-9.55-13.22,4.22-3,8,11.07H147v5.18H81.47Zm16.19,5.18h5.18v9.64H97.66Z"/></svg>