<svg id="Capa_1" data-name="Capa 1" xmlns="http://www.w3.org/2000/svg" viewBox="0 0 350 455"><defs><style>.cls-1{font-size:30px;font-family:Raleway-Bold, Raleway;font-weight:700;}.cls-1,.cls-3{fill:#7d60f5;}.cls-2{letter-spacing:-0.05em;}</style></defs><title>quienes</title><text class="cls-1" transform="translate(114.95 373.57)"><tspan class="cls-2">L</tspan><tspan x="16.17" y="0">OUVRE</tspan><tspan class="cls-2" x="17.6" y="40">P</tspan><tspan x="34.94" y="40">ARIS</tspan></text><path class="cls-3" d="M72,91.7A16.58,16.58,0,1,0,88.55,75.12,16.6,16.6,0,0,0,72,91.7ZM88.55,80.76A10.95,10.95,0,1,1,77.61,91.7,11,11,0,0,1,88.55,80.76Z"/><rect class="cls-3" x="85.73" y="58.73" width="5.64" height="9.9"/><rect class="cls-3" x="65.92" y="66.94" width="5.64" height="9.91" transform="translate(-30.7 69.67) rotate(-45.01)"/><rect class="cls-3" x="55.58" y="88.89" width="9.91" height="5.64"/><rect class="cls-3" x="63.78" y="108.7" width="9.91" height="5.64" transform="translate(-58.72 81.25) rotate(-44.99)"/><rect class="cls-3" x="85.73" y="114.77" width="5.64" height="9.9"/><rect class="cls-3" x="105.54" y="106.57" width="5.64" height="9.9" transform="translate(-47.12 109.27) rotate(-44.99)"/><rect class="cls-3" x="111.62" y="88.89" width="9.9" height="5.64"/><rect class="cls-3" x="103.42" y="69.07" width="9.9" height="5.64" transform="translate(-19.09 97.68) rotate(-45)"/><path class="cls-3" d="M270.18,146.5a17.43,17.43,0,0,0-16.06-9.64v5.64c11.94,0,13.2,13.23,13.25,13.78H273c.05-.56,1.31-13.79,13.25-13.79v-5.64A17.45,17.45,0,0,0,270.18,146.5Z"/><path class="cls-3" d="M158.1,91.93c0-.42.91-10.27,9.8-10.27V76a14.15,14.15,0,0,0-12.61,7,14.12,14.12,0,0,0-12.61-7v5.64c8.66,0,9.71,9.22,9.8,10.27Z"/><path class="cls-3" d="M272.83,73.45a13.8,13.8,0,0,0-12.25-6.69V72.4c8.34,0,9.35,8.89,9.44,9.89h5.62c0-.4.87-9.89,9.43-9.89V66.76A13.78,13.78,0,0,0,272.83,73.45Z"/><rect class="cls-3" x="208.48" y="112.86" width="9.2" height="5.64"/><path class="cls-3" d="M239.73,99.34a26.46,26.46,0,0,0-51.22-.54A16.42,16.42,0,0,0,168.92,115v2.82h31.71v-5.64H174.92A10.78,10.78,0,0,1,189.56,105l3.36,1.39.51-3.6a20.83,20.83,0,0,1,41.36,1l.45,4.63,3.89-2.54a10.8,10.8,0,0,1,16.26,6.28H224.46v5.64h36.93V115A16.44,16.44,0,0,0,239.73,99.34Z"/><rect class="cls-3" x="99.79" y="170.07" width="6.3" height="5.64"/><path class="cls-3" d="M110.74,175.21h26.18v-2.82a12.14,12.14,0,0,0-15.11-11.79,19,19,0,0,0-36.32-.27,12.14,12.14,0,0,0-13.68,12.06v2.82H94.42v-5.64H78.07a6.5,6.5,0,0,1,8.43-3.18l3.35,1.39.52-3.6a13.38,13.38,0,0,1,26.56.64l.45,4.62,3.89-2.54a6.53,6.53,0,0,1,9.39,2.67H110.74v5.64Z"/><path class="cls-3" d="M42,293.09v5.64H306.91v-5.64H298L174.15,171,50.27,293.09Zm208.53-22.75-16.15-15.92V238.24l16.15,15.92Zm5.63-10.62,16.15,15.92v16.18L256.14,275.9Zm-7,33.37-14.79-14.57V262.34l16.15,15.92v14.83Zm-151.31,0V278.23L114,262.31v16.18l-14.8,14.6Zm21.78-36.34,16.15-15.92V257l-16.15,15.93Zm21.78-21.48L154,222.87v16.19L141.4,251.45ZM177,205.75l11.77,11.61v16.19L177,222Zm-5.64,16.19L159.61,233.5V217.31l11.72-11.56ZM154,247v16.21l-12.57,12.4V259.37Zm5.64-5.56,11.72-11.56v16.2l-11.72,11.57ZM171.33,254v16.22l-11.72,11.56V265.54Zm-11.72,35.7,11.72-11.56v15H159.61ZM177,278.1l11.77,11.62v3.37H177Zm0-7.91V254l11.77,11.62v16.2Zm0-24.14V229.86l11.77,11.61v16.2Zm17.41,1L207,259.44v16.22l-12.59-12.43Zm0-7.91V222.92L207,235.34v16.18Zm18.23,1.78,16.12,15.9V273l-16.12-15.88Zm16.12,8L212.61,233V216.79l16.12,15.89ZM207,227.42,194.38,215V198.81L207,211.23Zm-18.23-18L177,197.83V181.64l11.77,11.61Zm-17.41-11.61-11.72,11.56V193.2l11.72-11.56ZM154,215l-12.57,12.4v-16.2L154,198.76Zm-18.2,18-16.15,15.92v-16.2l16.15-15.92ZM114,254.39,97.84,270.31v-16.2L114,238.19ZM92.2,275.87l-16.12,15.9v-16.2l16.12-15.9Zm0,7.92v9.3H82.77ZM114,286.41v6.68h-6.77Zm5.64,6.68V280.85l16.15-15.92v16.23l-12.1,11.93Zm16.15-4v4H131.7Zm5.63,4v-9.58L154,271.11v16.21l-5.85,5.77Zm58.81,0-5.83-5.75V271.15L207,283.57v9.52Zm12.4,0v-4l4,4Zm0-11.87V265l16.12,15.89v12.2h-4.09Zm21.75,11.87v-6.64l6.74,6.64Zm21.78,0v-9.27l9.41,9.27Zm21.79,0V281.2L290,293.09Zm-207.49-12v12H58.31Z"/></svg>