<svg id="Capa_1" data-name="Capa 1" xmlns="http://www.w3.org/2000/svg" viewBox="0 0 350 455"><defs><style>.cls-1,.cls-4{fill:#f3b244;}.cls-2{fill:#b9cead;}.cls-3{fill:none;stroke:#b9cead;stroke-miterlimit:10;stroke-width:10px;}.cls-4{font-size:31px;font-family:Raleway-Bold, Raleway;font-weight:700;}.cls-5{letter-spacing:-0.02em;}.cls-6{letter-spacing:-0.03em;}.cls-7{letter-spacing:-0.03em;}.cls-8{letter-spacing:-0.03em;}.cls-9{letter-spacing:-0.02em;}.cls-10{letter-spacing:-0.01em;}.cls-11{font-size:68px;}.cls-12{font-size:57px;}</style></defs><title>quienes</title><path class="cls-1" d="M97.13,268.48H252.87a4.58,4.58,0,0,0,4.58-4.58V89.83a4.58,4.58,0,0,0-4.58-4.58H97.13a4.58,4.58,0,0,0-4.58,4.58V263.9A4.58,4.58,0,0,0,97.13,268.48ZM221.6,150.67l.36.83L199.16,145a4.55,4.55,0,0,0-3.3.3L180.5,153l-12.26-12.26,4.26-3.21a32.34,32.34,0,0,1,45.26,6.5A31.94,31.94,0,0,1,221.6,150.67Zm-25.88-28.48c-1.28-.12-2.54-.29-3.84-.29A41.75,41.75,0,0,0,167,130.2l-3.4,2.56a29.48,29.48,0,0,1,29.51-17.1l8.39.76ZM154.27,223.26a50.36,50.36,0,0,0-17.89-8.3A148,148,0,0,0,156.6,144.8h.86A183.55,183.55,0,0,1,154.27,223.26Zm-16.63-90.8-9.25-4.62a25.53,25.53,0,0,1,17.19,5.71A51.75,51.75,0,0,0,137.64,132.46Zm4.71,9.69-11.6,9.29-2-4.1a4.58,4.58,0,0,0-4.1-2.54h-6.45A42.37,42.37,0,0,1,142.35,142.15ZM121.78,154l3.31,6.64a4.62,4.62,0,0,0,3.12,2.42,4,4,0,0,0,1,.1,4.56,4.56,0,0,0,2.87-1L147.17,150a139.11,139.11,0,0,1-6,31.58,32.58,32.58,0,0,0-22,6.25l-3.67,2.75a23.11,23.11,0,0,1-13.74,4.5V154Zm-.83,44,3.66-2.75A23.27,23.27,0,0,1,138,190.65a139.58,139.58,0,0,1-11.41,23c-.65,0-1.3-.11-2-.11a50.13,50.13,0,0,0-22.9,5.53V204.35A32.25,32.25,0,0,0,121,197.94Zm-19.24,31.72a41.17,41.17,0,0,1,63.86,29.66H101.71Zm146.58,29.66H174.77a50.15,50.15,0,0,0-12.87-29.18,191.12,191.12,0,0,0,5.64-26.76,32.66,32.66,0,0,0,26.7-5.44l3.66-2.75a23.53,23.53,0,0,1,27.49,0l3.66,2.75a32.23,32.23,0,0,0,19.24,6.41Zm0-164.91v100.7a23.11,23.11,0,0,1-13.74-4.5l-3.67-2.75a32.93,32.93,0,0,0-38.47,0l-3.67,2.75a23.3,23.3,0,0,1-20.15,3.66,193,193,0,0,0-.64-40.85l8.38,8.38a4.58,4.58,0,0,0,5.29.86l16.74-8.38L228.71,163a4.45,4.45,0,0,0,1.26.16,4.58,4.58,0,0,0,4.58-4.58,4.64,4.64,0,0,0-.37-1.8L230,147.05a41.36,41.36,0,0,0-23.74-22.47l8.6-8.6a4.58,4.58,0,0,0-2.82-7.79l-18.13-1.65a38.66,38.66,0,0,0-39,23.27,35.35,35.35,0,0,0-41.51-7.41,4.58,4.58,0,0,0,0,8.19l7.41,3.71A51.4,51.4,0,0,0,106.12,141l-4.41,2.94V94.41Z"/><path class="cls-2" d="M317,172.29a4.57,4.57,0,0,0-1.34-3.24l-39.89-39.89V71.51a4.58,4.58,0,0,0-4.58-4.58H213.54l-35.3-35.3a4.58,4.58,0,0,0-6.48,0l-35.3,35.3H78.81a4.59,4.59,0,0,0-4.59,4.58v57.65L34.34,169.05a4.57,4.57,0,0,0,0,6.47l39.88,39.89v94.3a4.59,4.59,0,0,0,4.59,4.58H271.19a4.58,4.58,0,0,0,4.58-4.58v-94.3l39.89-39.89A4.55,4.55,0,0,0,317,172.29ZM175,41.34l25.59,25.59H149.41Zm-130.94,131,30.16-30.17v60.33ZM266.61,305.13H83.39v-229H266.61Zm9.16-102.68V142.12l30.17,30.17Z"/><rect class="cls-3" x="96.92" y="89.33" width="156.33" height="174"/><text class="cls-4" transform="translate(42.4 374.3)"><tspan class="cls-5">F</tspan><tspan class="cls-6" x="17.3" y="0">OT</tspan><tspan x="57.88" y="0">OS</tspan><tspan class="cls-7" x="100.32" y="0"> </tspan><tspan class="cls-8" x="106.89" y="0">T</tspan><tspan x="125.05" y="0">OMA</tspan><tspan class="cls-9" x="196.14" y="0">D</tspan><tspan class="cls-10" x="217.56" y="0">A</tspan><tspan x="238.05" y="0">S:</tspan><tspan class="cls-11"><tspan x="42.92" y="58">+</tspan><tspan class="cls-12" x="71.54" y="50" xml:space="preserve"> 5000</tspan></tspan></text></svg>