<svg id="Capa_1" data-name="Capa 1" xmlns="http://www.w3.org/2000/svg" viewBox="0 0 350 455"><defs><style>.cls-1{font-size:30px;font-family:Raleway-Bold, Raleway;font-weight:700;}.cls-1,.cls-5{fill:#7d60f5;}.cls-2{letter-spacing:-0.01em;}.cls-3{letter-spacing:-0.02em;}.cls-4{letter-spacing:-0.03em;}</style></defs><title>quienes</title><text class="cls-1" transform="translate(111.35 373.57)"><tspan class="cls-2">C</tspan><tspan x="20.37" y="0">OLIS</tspan><tspan class="cls-3" x="87.54" y="0">E</tspan><tspan x="105.12" y="0">O</tspan><tspan x="19.99" y="40">ROM</tspan><tspan class="cls-4" x="88.57" y="40">A</tspan></text><path class="cls-5" d="M67.51,293.21H59.19v5.14H298.93v-5.14h-8.32V210.32H225.13l-10-41.8H188.83l-7.6-41.44H67.51Zm29-124.69H83.67v-17.9a6.41,6.41,0,1,1,12.81,0Zm8.68,5.14V210h-3.54v-17.9a11.55,11.55,0,0,0-23.09,0V210H72.65v-36.3Zm62.51-5.14H154.86v-17.9a6.41,6.41,0,1,1,12.81,0Zm8.82,5.14V210h-3.68v-17.9a11.55,11.55,0,0,0-23.09,0V210H146v-36.3ZM203.26,210H190.45v-17.9a6.41,6.41,0,0,1,12.81,0ZM244,251.77V233.86a11.54,11.54,0,1,0-23.08,0v17.91H217.3V215.46h30.52v36.31Zm-5.14,0h-12.8V233.86a6.4,6.4,0,0,1,12.8,0Zm-35.59,0H190.45V233.86a6.41,6.41,0,0,1,12.81,0Zm-6.4-29.45a11.56,11.56,0,0,0-11.55,11.54v17.91h-3.68V215.46h30.53v36.31H208.4V233.86A11.56,11.56,0,0,0,196.86,222.32Zm-29.19,29.45H154.86V233.86a6.41,6.41,0,0,1,12.81,0Zm-6.41-29.45a11.56,11.56,0,0,0-11.54,11.54v17.91H146V215.46h30.53v36.31h-3.68V233.86A11.56,11.56,0,0,0,161.26,222.32Zm-29.19,29.45h-12.8V233.86a6.4,6.4,0,1,1,12.8,0Zm-6.4-29.45a11.55,11.55,0,0,0-11.54,11.54v17.91H110.3V215.46h30.52v36.31h-3.61V233.86A11.55,11.55,0,0,0,125.67,222.32ZM96.48,210H83.67v-17.9a6.41,6.41,0,0,1,12.81,0Zm35.59-41.44h-12.8v-17.9a6.4,6.4,0,1,1,12.8,0Zm8.75,5.14V210h-3.61v-17.9a11.54,11.54,0,0,0-23.08,0V210H110.3v-36.3ZM167.67,210H154.86v-17.9a6.41,6.41,0,0,1,12.81,0Zm-35.6,0h-12.8v-17.9a6.4,6.4,0,1,1,12.8,0Zm5.14-41.44v-17.9a11.54,11.54,0,1,0-23.08,0v17.9H110.3v-36.3h30.52v36.3ZM72.65,215.46h32.51v36.31h-3.54V233.86a11.55,11.55,0,0,0-23.09,0v17.91H72.65Zm23.83,36.31H83.67V233.86a6.41,6.41,0,0,1,12.81,0ZM83.67,293.21v-17.9a6.41,6.41,0,1,1,12.81,0v17.9Zm6.41-29.45a11.56,11.56,0,0,0-11.55,11.55v17.9H72.65v-36.3h32.51v36.3h-3.54v-17.9A11.56,11.56,0,0,0,90.08,263.76Zm29.19,29.45v-17.9a6.4,6.4,0,1,1,12.8,0v17.9Zm6.4-29.45a11.55,11.55,0,0,0-11.54,11.55v17.9H110.3v-36.3h30.52v36.3h-3.61v-17.9A11.55,11.55,0,0,0,125.67,263.76Zm29.19,29.45v-17.9a6.41,6.41,0,1,1,12.81,0v17.9Zm6.4-29.45a11.56,11.56,0,0,0-11.54,11.55v17.9H146v-36.3h30.53v36.3h-3.68v-17.9A11.56,11.56,0,0,0,161.26,263.76Zm29.19,29.45v-17.9a6.41,6.41,0,1,1,12.81,0v17.9Zm6.41-29.45a11.56,11.56,0,0,0-11.55,11.55v17.9h-3.68v-36.3h30.53v36.3H208.4v-17.9A11.56,11.56,0,0,0,196.86,263.76Zm29.19,29.45v-17.9a6.4,6.4,0,1,1,12.8,0v17.9Zm6.4-29.45a11.55,11.55,0,0,0-11.54,11.55v17.9H217.3v-36.3h30.52v36.3H244v-17.9A11.55,11.55,0,0,0,232.45,263.76Zm29.19,29.45v-17.9a6.41,6.41,0,1,1,12.81,0v17.9Zm23.83,0h-5.88v-17.9a11.55,11.55,0,1,0-23.09,0v17.9H253v-36.3h32.51Zm-11-41.44H261.64V233.86a6.41,6.41,0,0,1,12.81,0Zm11,0h-5.88V233.86a11.55,11.55,0,0,0-23.09,0v17.91H253V215.46h32.51ZM211,173.66l8.73,36.3H208.4v-17.9a11.55,11.55,0,0,0-23.09,0V210h-3.68v-36.3Zm-27.42-5.14h-10.8v-17.9a11.55,11.55,0,1,0-23.09,0v17.9H146v-36.3h31Zm-111-36.3h32.51v36.3h-3.54v-17.9a11.55,11.55,0,1,0-23.09,0v17.9H72.65Z"/><rect class="cls-5" x="258.98" y="60.92" width="5.14" height="9.85"/><rect class="cls-5" x="247.37" y="64.03" width="5.14" height="9.85" transform="translate(-1 134.18) rotate(-29.99)"/><rect class="cls-5" x="238.85" y="72.55" width="5.14" height="9.85" transform="translate(53.62 247.82) rotate(-60)"/><rect class="cls-5" x="233.39" y="86.52" width="9.85" height="5.14"/><rect class="cls-5" x="236.5" y="98.14" width="9.85" height="5.14" transform="translate(-18.01 134.17) rotate(-29.99)"/><rect class="cls-5" x="245.01" y="106.65" width="9.85" height="5.14" transform="translate(30.41 271.09) rotate(-60.01)"/><rect class="cls-5" x="258.98" y="107.41" width="5.14" height="9.85"/><rect class="cls-5" x="270.61" y="104.29" width="5.14" height="9.85" transform="translate(-18.01 151.19) rotate(-29.99)"/><rect class="cls-5" x="279.11" y="95.78" width="5.14" height="9.85" transform="translate(53.63 294.29) rotate(-60)"/><rect class="cls-5" x="279.87" y="86.52" width="9.85" height="5.14"/><rect class="cls-5" x="276.76" y="74.89" width="9.85" height="5.14" transform="translate(-1 151.19) rotate(-29.99)"/><rect class="cls-5" x="268.24" y="66.39" width="9.85" height="5.14" transform="translate(76.88 271.08) rotate(-60.01)"/><path class="cls-5" d="M248.08,89.09a13.48,13.48,0,1,0,13.47-13.48A13.48,13.48,0,0,0,248.08,89.09Zm13.47-8.33a8.33,8.33,0,1,1-8.33,8.33A8.34,8.34,0,0,1,261.55,80.76Z"/><rect class="cls-5" x="95.81" y="92.67" width="9.64" height="5.14"/><path class="cls-5" d="M54.75,97.81H87.59V92.67H60.17a11.69,11.69,0,0,1,16-8.18l3,1.26.47-3.27a22.22,22.22,0,0,1,44.09,1l.42,4.21,3.54-2.31a11.71,11.71,0,0,1,17.74,7.24H112.57v5.14h38.3V95.24a16.83,16.83,0,0,0-22.58-15.8,27.37,27.37,0,0,0-53.12-.62A16.81,16.81,0,0,0,54.75,95.24Z"/><rect class="cls-5" x="252.52" y="156.08" width="6.79" height="5.14"/><path class="cls-5" d="M222.83,158.65v2.57h23.89v-5.14H228.41a7.5,7.5,0,0,1,10-4.3l3.06,1.26.47-3.27a14.89,14.89,0,0,1,29.55.71l.41,4.2,3.55-2.3a7.49,7.49,0,0,1,11.06,3.7H264.32v5.14h27.74v-2.57a12.6,12.6,0,0,0-16.13-12.1,20,20,0,0,0-38.5-.34A12.6,12.6,0,0,0,222.83,158.65Z"/><polygon class="cls-5" points="172.19 88.49 162.74 99.73 166.67 103.04 172.3 96.35 180.07 105.11 187.62 96.15 193.42 102.68 197.26 99.27 187.51 88.29 179.97 97.25 172.19 88.49"/><polygon class="cls-5" points="194.06 76.09 199.66 82.56 205.26 76.09 208.91 80.32 212.8 76.95 205.26 68.23 199.66 74.71 194.06 68.23 186.52 76.95 190.41 80.32 194.06 76.09"/></svg>