<svg id="Capa_1" data-name="Capa 1" xmlns="http://www.w3.org/2000/svg" viewBox="0 0 350 455"><defs><style>.cls-1{font-size:30px;font-family:Raleway-Bold, Raleway;font-weight:700;}.cls-1,.cls-5{fill:#7d60f5;}.cls-2{letter-spacing:-0.03em;}.cls-3{letter-spacing:-0.03em;}.cls-4{letter-spacing:-0.05em;}</style></defs><title>quienes</title><text class="cls-1" transform="translate(74.41 373.57)"><tspan class="cls-2">T</tspan><tspan x="17.58" y="0">ORRE EIFFE</tspan><tspan class="cls-3" x="184.47" y="0">L</tspan><tspan class="cls-4" x="58.38" y="40">P</tspan><tspan x="75.72" y="40">ARIS</tspan></text><path class="cls-5" d="M298.36,294H245.82c-8.86-17.87-16.69-35.9-23.48-53.87h4v-5.06h-5.92c-4.56-12.42-8.61-24.8-12.11-37h7.76V193h-9.17a444.22,444.22,0,0,1-10.79-50.06H202v-5.06h-6.65c-.27-1.92-.51-3.82-.75-5.73H202v-5.06h-8q-.32-2.88-.58-5.74H202v-5.06h-9c-.35-4.42-.63-8.81-.79-13.13a12.08,12.08,0,0,0-7.58-18.48V64.8h-5.06V84.64A12.08,12.08,0,0,0,172,103.13c-.16,4.32-.44,8.7-.79,13.12h-9v5.06h8.59c-.18,1.91-.36,3.82-.58,5.74h-8v5.06h7.41c-.24,1.91-.47,3.81-.74,5.73h-6.67v5.06h5.9A444.22,444.22,0,0,1,157.29,193h-9.17V198h7.76c-3.51,12.25-7.55,24.63-12.11,37h-5.93v5.06h4c-6.79,18-14.63,36-23.5,53.87H60.59v5.06H298.36Zm-83.3-58.93H204l-9.52-37h8.62C206.55,210.27,210.55,222.65,215.06,235.07Zm-25.82-37,9.52,37H165.44L175,198Zm-13-5.06,5.84-22.71L187.94,193ZM182.1,89.42a7.06,7.06,0,1,1-7,7A7.05,7.05,0,0,1,182.1,89.42Zm-5.25,17.91a11.67,11.67,0,0,0,10.51,0c.15,3,.33,5.92.56,8.92H176.29C176.52,113.25,176.7,110.29,176.85,107.33Zm-1,14h12.51c.18,1.91.36,3.82.57,5.74H175.28Q175.6,124.17,175.85,121.31Zm-1.17,10.8h14.85c.23,1.91.46,3.81.73,5.73H174C174.22,135.92,174.45,134,174.68,132.11ZM173.2,142.9H191A447.12,447.12,0,0,0,201.68,193h-8.52l-11.06-43L171,193h-8.51A446.65,446.65,0,0,0,173.2,142.9ZM161.13,198h8.61l-9.52,37H149.14C153.66,222.65,157.66,210.27,161.13,198Zm54.65,96-4.84-21.25a29.59,29.59,0,0,0-57.7,0L148.41,294H124c8.78-17.87,16.53-35.91,23.25-53.87h69.66c6.72,18,14.46,36,23.24,53.87Zm-62.18,0,4.57-20.12a24.53,24.53,0,0,1,47.84,0L210.59,294Z"/><path class="cls-5" d="M157,248.46l3.19,3.92a34.52,34.52,0,0,1,5.78-3.8l-2.33-4.49A38.46,38.46,0,0,0,157,248.46Z"/><path class="cls-5" d="M143.37,270.5l-3.76,16.56,4.93,1.12,3.77-16.56a34.7,34.7,0,0,1,8.86-16.45l-3.64-3.51A39.89,39.89,0,0,0,143.37,270.5Z"/><path class="cls-5" d="M99.89,59.06l-6.53,1a27,27,0,1,0,24.83,43.87l4.14-5-6.41.84A21.94,21.94,0,0,1,95.68,64.14Zm9.71,45.83a21.92,21.92,0,1,1-21.54-38,27,27,0,0,0,21.54,38Z"/><polygon class="cls-5" points="135.57 77.8 135.57 82.93 130.44 82.93 130.44 87.98 135.57 87.98 135.57 93.11 140.63 93.11 140.63 87.98 145.76 87.98 145.76 82.93 140.63 82.93 140.63 77.8 135.57 77.8"/><polygon class="cls-5" points="91.14 195.49 91.14 192.06 94.58 192.06 94.58 187 91.14 187 91.14 183.56 86.09 183.56 86.09 187 82.65 187 82.65 192.06 86.09 192.06 86.09 195.49 91.14 195.49"/><polygon class="cls-5" points="120.25 131.85 120.25 136.98 115.13 136.98 115.13 142.04 120.25 142.04 120.25 147.17 125.31 147.17 125.31 142.04 130.44 142.04 130.44 136.98 125.31 136.98 125.31 131.85 120.25 131.85"/><polygon class="cls-5" points="130.13 185.41 125.08 185.41 125.08 190.54 119.94 190.54 119.94 195.6 125.08 195.6 125.08 200.73 130.13 200.73 130.13 195.6 135.26 195.6 135.26 190.54 130.13 190.54 130.13 185.41"/><polygon class="cls-5" points="238.16 110.32 238.16 113.62 234.87 113.62 234.87 118.68 238.16 118.68 238.16 121.97 243.22 121.97 243.22 118.68 246.52 118.68 246.52 113.62 243.22 113.62 243.22 110.32 238.16 110.32"/><polygon class="cls-5" points="259.46 67.65 259.46 71.14 255.97 71.14 255.97 76.2 259.46 76.2 259.46 79.7 264.52 79.7 264.52 76.2 268.02 76.2 268.02 71.14 264.52 71.14 264.52 67.65 259.46 67.65"/><polygon class="cls-5" points="208.84 71.83 208.84 75.27 205.4 75.27 205.4 80.33 208.84 80.33 208.84 83.77 213.9 83.77 213.9 80.33 217.34 80.33 217.34 75.27 213.9 75.27 213.9 71.83 208.84 71.83"/><rect class="cls-5" x="231.42" y="181.03" width="6.77" height="5.06"/><rect class="cls-5" x="209.29" y="181.03" width="11.59" height="5.06"/><path class="cls-5" d="M207.24,155.82l5,.65a18.76,18.76,0,0,1,37.31.95,2.53,2.53,0,0,0,3.83,2,11.48,11.48,0,0,1,6-1.7,11.67,11.67,0,1,1,0,23.34h-11.3v5.05h11.3a16.73,16.73,0,1,0,0-33.45,16.35,16.35,0,0,0-5.31.89,23.82,23.82,0,0,0-46.84,2.3Z"/></svg>