<svg id="Capa_1" data-name="Capa 1" xmlns="http://www.w3.org/2000/svg" viewBox="0 0 350 455"><defs><style>.cls-1{font-size:30px;font-family:Raleway-Bold, Raleway;font-weight:700;}.cls-1,.cls-10{fill:#7d60f5;}.cls-2{letter-spacing:-0.01em;}.cls-3{letter-spacing:-0.03em;}.cls-4{letter-spacing:-0.01em;}.cls-5{letter-spacing:-0.03em;}.cls-6{letter-spacing:-0.03em;}.cls-7{letter-spacing:-0.08em;}.cls-8{letter-spacing:-0.02em;}.cls-9{letter-spacing:-0.04em;}</style></defs><title>quienes</title><text class="cls-1" transform="translate(45 373.57)"><tspan class="cls-2">S</tspan><tspan class="cls-3" x="18.03" y="0">A</tspan><tspan x="37.41" y="0">G</tspan><tspan class="cls-4" x="59.16" y="0">R</tspan><tspan x="78.78" y="0">A</tspan><tspan class="cls-5" x="98.94" y="0">D</tspan><tspan class="cls-6" x="119.67" y="0">A</tspan><tspan x="138.9" y="0"> </tspan><tspan class="cls-7" x="146.1" y="0">F</tspan><tspan x="160.98" y="0">AMILI</tspan><tspan class="cls-6" x="241.77" y="0">A</tspan><tspan class="cls-8" x="40.68" y="40">B</tspan><tspan x="60.63" y="40">ARCE</tspan><tspan class="cls-9" x="139.35" y="40">L</tspan><tspan x="155.52" y="40">ON</tspan><tspan class="cls-6" x="201.09" y="40">A</tspan></text><path class="cls-10" d="M291.8,293.9H264.72V207.36L249.45,182l-12.89,21.15L223.84,182l-10.36,17V172.63c0-27-4.8-44.7-7.48-60a9.15,9.15,0,1,0-7.95.17c-1,6.55-1.87,12.16-2.66,17.16-1.12-8.56-2.58-16-3.88-22.52-.64-3.24-1.23-6.29-1.75-9.24a9.16,9.16,0,1,0-7.94.11c-.62,4.36-1.28,8.54-1.92,12.57-6.13,38-3.43,45.43-4.13,62.85l-9.36-18.23L157,173.71c-.76-17.9,2.1-24.11-4.2-63.35-.63-3.9-1.26-7.94-1.85-12.08a9.18,9.18,0,1,0-7.94-.11c-1.83,10.47-4,18.8-5.64,31.73-.77-4.89-1.71-10.59-2.66-17.16,8.94-4.18,5.83-17.46-3.86-17.46a9.15,9.15,0,0,0-4.08,17.35c-2.61,14.92-7.48,32.68-7.48,60v26.86l-10.36-16.9-12.72,21-12.89-21L68,207.81V293.9H51.94V299c143.65.13-166.93,0,239.86,0Zm-218.67-23H93.65v10.71H73.13Zm0-15.81H93.65v10.71H73.13Zm102.64-48.4H157v-19h18.79Zm-20.08,5.12h21.42l5.52,7H150.46Zm103.93,69.8H239.1V270.88h20.52Zm-63.77,1.61c-1-4-2.09-8.13-3.36-12.32H234v10.71H195.85Zm17.63-43.94H234V250H213.48Zm-6,10.71H184.6a114.16,114.16,0,0,0-8.83-15.9h19Zm26.54,5.1v10.71H190.85c-1.2-3.58-2.54-7.16-4-10.71Zm25.63,10.71H239.1V255.07h20.52Zm0-15.81H239.1V239.26h20.52Zm0-15.82H239.1v-10.7h20.52Zm-25.63,0H213.48v-10.7H234ZM172.06,229c-2.42-3.1-2.4-2.93-4.24-5.12h18.87l4.07,5.12Zm-25.44-5.12h21c-1.84,2.32-1.62,1.9-4,5.12H142.77Zm-7.69,10.23H160a123.57,123.57,0,0,0-8.65,15.9H126.94Zm1.39,47.52H98.76V270.88H143.4C142.25,274.52,141.23,278.1,140.32,281.59Zm4.76-15.81H98.76V255.07h50.39C147.67,258.62,146.31,262.21,145.08,265.78ZM98.76,250V239.26h20.51V250Zm20.51-15.82H98.76v-10.7h20.51Zm-25.62,0H73.13v-10.7H93.65Zm0,5.11V250H73.13V239.26Zm5.11,47.44H139q-.89,3.72-1.62,7.2H98.76Zm43.87,7.2c4.08-19.06,11.63-44,25.2-62.1,14,17.74,21.33,42.82,25.14,62.1Zm54-7.2H234v7.2H198.16C197.71,291.57,197.22,289.17,196.66,286.7Zm42.44,7.2v-7.2h20.52v7.2Zm10.32-102,10.2,16.92v9.57H239.1v-9.56Zm-25.61,0L234,208.78v9.56H213.48v-9.56Zm-15.44-19.22v70.29l-11.13-14c1.57-72.08-3.42-55.19,4.91-109C205.65,137.73,208.37,151.65,208.37,172.63Zm-6.5-72.24a4.07,4.07,0,1,1-4.07,4.07A4.07,4.07,0,0,1,201.87,100.39ZM185.69,85.92A4.07,4.07,0,1,1,181.62,90,4.07,4.07,0,0,1,185.69,85.92Zm-.76,25.74q.49-3.06,1-6.23c7.47,38.07,6.08,46.19,6.08,63.44v53.46l-11.13-14V183.63C181.83,155.05,178.55,151.3,184.93,111.66ZM174.61,182.6H158.13l8.26-16ZM147.06,85.92A4.07,4.07,0,1,1,143,90,4.07,4.07,0,0,1,147.06,85.92Zm-.23,19.5c8,51.46,3.92,44.89,5,78l0,0v24.94l-11.11,14.76v-54.3C140.74,150.45,139.44,143,146.83,105.42Zm-16-5c5.38,0,5.38,8.13,0,8.13a4.07,4.07,0,1,1,0-8.13Zm-6.46,72.24c0-20.75,2.5-33.79,6.23-52.77,8.32,53.83,3.39,39.7,4.91,110.27L124.37,244.9V172.63Zm-15.43,19.78,10.33,16.84v9.09H98.76v-9.1Zm-25.61,0,10.32,16.85v9.09H73.13v-9.1Zm-10.2,94.3H93.65v7.2H73.13Z"/><rect class="cls-10" x="103.86" y="150.51" width="11.01" height="5.1"/><path class="cls-10" d="M121.87,113.45a30.68,30.68,0,0,0-11.34-2.16,31,31,0,0,0-30,23.47,18.84,18.84,0,0,0-23.24,18.3v2.55H94.46v-5.1H62.65a13.74,13.74,0,0,1,18.88-10.08l3,1.25.47-3.25a25.85,25.85,0,0,1,25.5-22,25.41,25.41,0,0,1,9.46,1.8Z"/><rect class="cls-10" x="251.69" y="146.37" width="6.17" height="5.1"/><path class="cls-10" d="M262.41,151.48h25.42v-2.56a11.68,11.68,0,0,0-14.72-11.26,18.42,18.42,0,0,0-35.28-.28,11.66,11.66,0,0,0-13.32,11.54v2.56h21.92v-5.11H230.11a6.59,6.59,0,0,1,8.65-3.48l3,1.25.46-3.25a13.31,13.31,0,0,1,26.42.63l.41,4.18,3.52-2.29a6.59,6.59,0,0,1,9.62,3H262.41v5.11Z"/><rect class="cls-10" x="233.13" y="81.02" width="6.17" height="5.1"/><path class="cls-10" d="M254.55,72.31A18.42,18.42,0,0,0,219.27,72a11.66,11.66,0,0,0-13.33,11.54v2.55h21.93V81H211.55a6.5,6.5,0,0,1,2.41-2.9c4-2.67,7.59.23,9.28.67l.46-3.25a13.31,13.31,0,0,1,26.42.63l.41,4.17,3.52-2.29a6.6,6.6,0,0,1,9.62,3H243.85v5.1h25.42V83.57A11.67,11.67,0,0,0,254.55,72.31Z"/></svg>