<svg id="Capa_1" data-name="Capa 1" xmlns="http://www.w3.org/2000/svg" viewBox="0 0 350 455"><defs><style>.cls-1{fill:#b9cead;}.cls-2,.cls-3{fill:#f3b244;}.cls-3{font-size:31px;font-family:Raleway-Bold, Raleway;font-weight:700;}.cls-4{letter-spacing:-0.08em;}.cls-5{letter-spacing:-0.08em;}.cls-6{letter-spacing:-0.01em;}.cls-7{letter-spacing:-0.07em;}.cls-8{letter-spacing:-0.02em;}.cls-9{font-size:57px;}</style></defs><title>quienes</title><path class="cls-1" d="M250.81,111.45l1.86-7.34a3.54,3.54,0,1,0-6.87-1.74l-1.89,7.42c-44-9.52-86.71,10.36-100.31,47.41a3.51,3.51,0,0,0,.41,3.23,3.55,3.55,0,0,0,2.87,1.54,43.61,43.61,0,0,1,10.28,1.33c14.13,3.59,25.37,13.95,28.63,26.39a3.55,3.55,0,0,0,6,1.53c8.61-9.15,22.29-8.91,33.36-6.61L204,267.86c-100.3-5.53-167.87,16.21-168.77,16.5a3.55,3.55,0,0,0,2.23,6.74c.87-.29,66.73-21.41,164.76-16.23L191.62,316.6a3.57,3.57,0,0,0,2.56,4.32,3.32,3.32,0,0,0,.88.11,3.56,3.56,0,0,0,3.44-2.67l10.94-43A591,591,0,0,1,312.3,291.18a3.55,3.55,0,0,0,1.7-6.89,597.77,597.77,0,0,0-102.79-16l20.84-82c11,3.33,23.32,9.82,26.33,22.39a3.55,3.55,0,0,0,2.57,2.61,3.37,3.37,0,0,0,.88.11,3.58,3.58,0,0,0,2.64-1.17c8.77-9.75,23.76-13.68,38.22-10a44.43,44.43,0,0,1,9.05,3.42,3.55,3.55,0,0,0,5.11-2.66C322.5,161.92,294.27,123.92,250.81,111.45Zm-91.9,45h0a50.77,50.77,0,0,0-6.81-1.23c12.81-27.78,46-43.83,80.76-40-14.77,7-27.16,19.76-36.3,37.56a130.5,130.5,0,0,0-9.21,23.47A47.82,47.82,0,0,0,158.91,156.42Zm71.47,22.1a70.48,70.48,0,0,0-17.29-2.36c-7.61,0-14.22,1.62-19.68,4.82,4-15.07,17.36-53.71,52.21-63,26,24.63,19.58,64.73,15.85,80C255.85,189,245.32,182.32,230.38,178.52Zm79.94,16.8a49.08,49.08,0,0,0-41.48,2.56,130.22,130.22,0,0,0,3.31-25.95c.48-20.06-4.35-37.22-14-50.44C291.16,134.67,312.44,164.24,310.32,195.32Z"/><path class="cls-2" d="M117.69,95.14a27.45,27.45,0,1,0-27.45,27.45A27.47,27.47,0,0,0,117.69,95.14ZM90.24,115.49A20.35,20.35,0,1,1,110.6,95.14,20.37,20.37,0,0,1,90.24,115.49Z"/><path class="cls-2" d="M93.79,52V40.58a3.55,3.55,0,1,0-7.09,0V52a3.55,3.55,0,1,0,7.09,0Z"/><path class="cls-2" d="M72.71,59.31a3.55,3.55,0,0,0,3.24-5L71.3,43.86a3.55,3.55,0,1,0-6.48,2.88L69.47,57.2A3.54,3.54,0,0,0,72.71,59.31Z"/><path class="cls-2" d="M58.21,69.85a3.55,3.55,0,0,0,2.38-6.19L52.08,56a3.55,3.55,0,1,0-4.75,5.28l8.51,7.66A3.52,3.52,0,0,0,58.21,69.85Z"/><path class="cls-2" d="M35,77.19a3.55,3.55,0,0,0,2.28,4.47L48.15,85.2a3.75,3.75,0,0,0,1.09.17,3.55,3.55,0,0,0,1.1-6.92L39.45,74.91A3.54,3.54,0,0,0,35,77.19Z"/><path class="cls-2" d="M32.45,101.22A3.55,3.55,0,0,0,36,104.4l.37,0,11.39-1.2A3.54,3.54,0,1,0,47,96.13L35.61,97.32A3.55,3.55,0,0,0,32.45,101.22Z"/><path class="cls-2" d="M43,126a3.56,3.56,0,0,0,1.77-.47l9.92-5.73a3.55,3.55,0,0,0-3.55-6.15l-9.92,5.73A3.55,3.55,0,0,0,43,126Z"/><path class="cls-2" d="M58.17,142.83A3.51,3.51,0,0,0,61,141.37l6.73-9.26A3.55,3.55,0,0,0,62,127.93L55.3,137.2a3.54,3.54,0,0,0,2.87,5.63Z"/><path class="cls-2" d="M77.81,136.57l-2.38,11.21A3.55,3.55,0,0,0,78.17,152a3.64,3.64,0,0,0,.74.07,3.53,3.53,0,0,0,3.46-2.81l2.38-11.2a3.55,3.55,0,1,0-6.94-1.48Z"/><path class="cls-2" d="M98.47,133.84a3.54,3.54,0,0,0-2.73,4.21l2.38,11.2a3.55,3.55,0,0,0,3.47,2.81,3.78,3.78,0,0,0,.74-.07,3.56,3.56,0,0,0,2.73-4.21l-2.38-11.21A3.54,3.54,0,0,0,98.47,133.84Z"/><path class="cls-2" d="M119.45,141.37a3.51,3.51,0,0,0,2.87,1.46,3.54,3.54,0,0,0,2.87-5.63l-6.73-9.27a3.55,3.55,0,0,0-5.75,4.18Z"/><path class="cls-2" d="M137.49,126a3.55,3.55,0,0,0,1.78-6.62l-9.92-5.73a3.55,3.55,0,0,0-3.54,6.15l9.91,5.73A3.56,3.56,0,0,0,137.49,126Z"/><path class="cls-2" d="M144.51,104.39a3.54,3.54,0,0,0,.37-7.07l-11.39-1.2a3.55,3.55,0,1,0-.74,7.06l11.39,1.19A2.36,2.36,0,0,0,144.51,104.39Z"/><path class="cls-2" d="M127.87,82.92a3.55,3.55,0,0,0,3.38,2.45,3.75,3.75,0,0,0,1.09-.17l10.89-3.54A3.55,3.55,0,0,0,141,74.91l-10.89,3.54A3.55,3.55,0,0,0,127.87,82.92Z"/><path class="cls-2" d="M128.42,56l-8.51,7.67a3.55,3.55,0,0,0,4.75,5.28l8.51-7.67A3.55,3.55,0,0,0,128.42,56Z"/><path class="cls-2" d="M107.78,59.31A3.53,3.53,0,0,0,111,57.2l4.66-10.46a3.55,3.55,0,0,0-6.49-2.88l-4.65,10.46a3.55,3.55,0,0,0,3.24,5Z"/><text class="cls-3" transform="translate(5.66 374.3)">PL<tspan class="cls-4" x="37.42" y="0">A</tspan><tspan class="cls-5" x="55.68" y="0">Y</tspan><tspan class="cls-6" x="73.59" y="0">A</tspan><tspan x="94.08" y="0">S DISFRU</tspan><tspan class="cls-7" x="232.25" y="0">T</tspan><tspan x="249.27" y="0">A</tspan><tspan class="cls-8" x="270.1" y="0">D</tspan><tspan class="cls-6" x="291.52" y="0">A</tspan><tspan x="312.01" y="0">S:</tspan><tspan class="cls-9"><tspan x="153.35" y="50">7</tspan></tspan></text></svg>