<svg id="Capa_1" data-name="Capa 1" xmlns="http://www.w3.org/2000/svg" viewBox="0 0 350 455"><defs><style>.cls-1{font-size:30px;font-family:Raleway-Bold, Raleway;font-weight:700;}.cls-1,.cls-8{fill:#7d60f5;}.cls-2{letter-spacing:-0.01em;}.cls-3{letter-spacing:-0.07em;}.cls-4{letter-spacing:-0.01em;}.cls-5{letter-spacing:-0.03em;}.cls-6{letter-spacing:-0.02em;}.cls-7{letter-spacing:-0.04em;}</style></defs><title>quienes</title><text class="cls-1" transform="translate(44.1 373.57)">CERRO <tspan class="cls-2" x="108.39" y="0">C</tspan><tspan class="cls-3" x="128.67" y="0">A</tspan><tspan x="146.73" y="0">TED</tspan><tspan class="cls-4" x="204.81" y="0">R</tspan><tspan x="224.43" y="0">A</tspan><tspan class="cls-5" x="244.59" y="0">L</tspan><tspan class="cls-6" x="46.42" y="40">B</tspan><tspan x="66.37" y="40">ARI</tspan><tspan class="cls-7" x="115.06" y="40">L</tspan><tspan x="131.23" y="40">OCHE</tspan></text><path class="cls-8" d="M258.18,59.81,189.92,86.38a9.26,9.26,0,0,0-15.57,6.08L55,138.92l1.81,4.66L175.34,97.44a9.36,9.36,0,0,0,6.13,4.74V111H168.35l-15.24,35.23,15.74,18.15h30.22l15.74-18.15L199.57,111h-13.1v-9a9.24,9.24,0,0,0,6.42-8.79,9.11,9.11,0,0,0-.35-2.44L260,64.47ZM171.64,116h9.83v16.43H164.53Zm25.14,43.38H171.14L159,145.28l3.42-7.89h43.18l3.42,7.89Zm-.5-43.38,7.11,16.43H186.47V116ZM183.66,97.46l-.07,2.47h0V97.46a4.29,4.29,0,1,1,0-8.58,4.2,4.2,0,0,1,3.53,1.88,4.25,4.25,0,0,1,.76,2.41A4.32,4.32,0,0,1,183.66,97.46Z"/><path class="cls-8" d="M272.08,106.1A13.13,13.13,0,1,0,259,119.23,13.14,13.14,0,0,0,272.08,106.1ZM259,114.22a8.12,8.12,0,1,1,8.12-8.12A8.13,8.13,0,0,1,259,114.22Z"/><rect class="cls-8" x="256.46" y="77.08" width="5" height="11.04"/><rect class="cls-8" x="239.83" y="83.96" width="5" height="11.04" transform="translate(7.71 197.56) rotate(-45)"/><rect class="cls-8" x="229.93" y="103.6" width="11.04" height="5"/><rect class="cls-8" x="236.82" y="120.22" width="11.04" height="5" transform="translate(-15.8 207.3) rotate(-45)"/><rect class="cls-8" x="256.46" y="124.09" width="5" height="11.04"/><rect class="cls-8" x="273.08" y="117.2" width="5" height="11.04" transform="translate(-6.06 230.81) rotate(-45)"/><rect class="cls-8" x="276.94" y="103.6" width="11.04" height="5"/><rect class="cls-8" x="270.06" y="86.98" width="11.04" height="5" transform="translate(17.44 221.07) rotate(-45)"/><path class="cls-8" d="M291.6,238.53,278.18,215.8h7.6l-18.14-38.45L249.49,215.8h7.6l-13.42,22.73h12.66l-5.65,9.55,4.31,2.55,10.11-17.11H252.44l3.84-6.5h12.33v-5h-9.38l6.62-11.22h-8.47l10.26-21.71,10.25,21.71h-8.47l13.42,22.73H270.18l9,15.28H267.12v5h15l2.63,4.44H259.21v5h6v12.26l-77.4-101.86-16.37,25.21-27.51-41.09L52.42,295.91l-.42.64v3.26H289.17v-5h-9.35l-9.66-12.7V263.25h23.4L279,238.53ZM188.08,182.34l10.49,13.8-2.68,5-8.81-8.77L184,203l-6-5.21ZM143.9,166.8l16,23.91-7.81,16.45-10.57-16.35-8.85,17.63-6.06-15.53Zm-84.75,128,24.59-37.13h69.14v-5H87.05L123.24,198l8.87,22.73,10-19.86,10.69,16.54,10.38-21.87,66.47,99.25Zm176.49,0-13.7-20.45h13.87v-5H218.59l-44.17-65.95.88-1.35L186.65,212l2.9-10.07,7.57,7.55,4.78-8.92,71.63,94.28Z"/><polygon class="cls-8" points="237.04 149.41 216.24 193.48 225.34 193.48 216.41 208.6 220.72 211.15 222.7 207.79 237.31 207.79 237.31 202.79 225.65 202.79 234.1 188.47 224.13 188.47 237.04 161.13 249.95 188.47 239.97 188.47 250.28 205.93 254.59 203.39 248.74 193.48 257.84 193.48 237.04 149.41"/><rect class="cls-8" x="232.63" y="177.72" width="9.35" height="5"/><rect class="cls-8" x="264.81" y="202.86" width="6.5" height="5"/><rect class="cls-8" x="233.36" y="222.01" width="13.57" height="5"/><rect class="cls-8" x="106.64" y="188" width="9.03" height="5"/><path class="cls-8" d="M120.55,172.84l5-.54a18.66,18.66,0,0,0-36.72-2.23H84.18a11.47,11.47,0,1,0,0,22.93h15.89v-5H84.18a6.47,6.47,0,1,1,0-12.93h9l.24-2.23a13.66,13.66,0,0,1,27.15,0Z"/><path class="cls-8" d="M127.67,94h-15.1v5h15.1a11.88,11.88,0,1,0,0-23.76h-5a19.41,19.41,0,0,0-37.83,0H80A11.88,11.88,0,1,0,80,99H94.82V94H80a6.88,6.88,0,1,1,0-13.75h9.29L89.49,78a14.4,14.4,0,0,1,28.63,0l.24,2.24h9.31a6.88,6.88,0,1,1,0,13.75Z"/><rect class="cls-8" x="99.94" y="94.02" width="7.41" height="5"/><rect class="cls-8" x="163.19" y="252.67" width="10.31" height="5"/><rect class="cls-8" x="240.82" y="269.34" width="5.42" height="5"/></svg>